<?xml version="1.0" encoding="UTF-8" standalone="no"?>
<!DOCTYPE svg PUBLIC "-//W3C//DTD SVG 1.1//EN"
 "http://www.w3.org/Graphics/SVG/1.1/DTD/svg11.dtd">
<!-- Generated by graphviz version 2.36.0 (20140111.2315)
 -->
<!-- Title: controllers_diagram Pages: 1 -->
<svg width="398pt" height="214pt"
 viewBox="0.00 0.00 398.00 214.00" xmlns="http://www.w3.org/2000/svg" xmlns:xlink="http://www.w3.org/1999/xlink">
<g id="graph0" class="graph" transform="scale(1 1) rotate(0) translate(4 210)">
<title>controllers_diagram</title>
<polygon fill="none" stroke="none" points="-4,4 -4,-210 394,-210 394,4 -4,4"/>
<!-- _diagram_info -->
<g id="node1" class="node"><title>_diagram_info</title>
<text text-anchor="start" x="184" y="-63.6" font-family="Times,serif" font-size="13.00">Controllers diagram</text>
<text text-anchor="start" x="184" y="-49.6" font-family="Times,serif" font-size="13.00">Date: Nov 19 2015 &#45; 08:38</text>
<text text-anchor="start" x="184" y="-35.6" font-family="Times,serif" font-size="13.00">Migration version: 20151119063540</text>
<text text-anchor="start" x="184" y="-21.6" font-family="Times,serif" font-size="13.00">Generated by RailRoady 1.4.1</text>
<text text-anchor="start" x="184" y="-7.6" font-family="Times,serif" font-size="13.00">http://railroady.prestonlee.com</text>
</g>
<!-- HomeController -->
<g id="node2" class="node"><title>HomeController</title>
<path fill="none" stroke="black" d="M188,-112.5C188,-112.5 270,-112.5 270,-112.5 276,-112.5 282,-118.5 282,-124.5 282,-124.5 282,-193.5 282,-193.5 282,-199.5 276,-205.5 270,-205.5 270,-205.5 188,-205.5 188,-205.5 182,-205.5 176,-199.5 176,-193.5 176,-193.5 176,-124.5 176,-124.5 176,-118.5 182,-112.5 188,-112.5"/>
<text text-anchor="middle" x="229" y="-190.3" font-family="Times,serif" font-size="14.00">HomeController</text>
<polyline fill="none" stroke="black" points="176,-182.5 282,-182.5 "/>
<text text-anchor="start" x="184" y="-167.3" font-family="Times,serif" font-size="14.00">index</text>
<polyline fill="none" stroke="black" points="176,-159.5 282,-159.5 "/>
<polyline fill="none" stroke="black" points="176,-135.5 282,-135.5 "/>
<text text-anchor="start" x="184" y="-120.3" font-family="Times,serif" font-size="14.00">_layout</text>
</g>
<!-- ApplicationController -->
<g id="node3" class="node"><title>ApplicationController</title>
<path fill="none" stroke="black" d="M12,-0.5C12,-0.5 124,-0.5 124,-0.5 130,-0.5 136,-6.5 136,-12.5 136,-12.5 136,-156.5 136,-156.5 136,-162.5 130,-168.5 124,-168.5 124,-168.5 12,-168.5 12,-168.5 6,-168.5 0,-162.5 0,-156.5 0,-156.5 0,-12.5 0,-12.5 0,-6.5 6,-0.5 12,-0.5"/>
<text text-anchor="middle" x="68" y="-153.3" font-family="Times,serif" font-size="14.00">ApplicationController</text>
<polyline fill="none" stroke="black" points="0,-145.5 136,-145.5 "/>
<text text-anchor="start" x="8" y="-130.3" font-family="Times,serif" font-size="14.00">authenticate_attendee</text>
<text text-anchor="start" x="8" y="-115.3" font-family="Times,serif" font-size="14.00">authenticate_partner</text>
<text text-anchor="start" x="8" y="-100.3" font-family="Times,serif" font-size="14.00">authenticate_speaker</text>
<text text-anchor="start" x="8" y="-85.3" font-family="Times,serif" font-size="14.00">current_attendee</text>
<text text-anchor="start" x="8" y="-70.3" font-family="Times,serif" font-size="14.00">current_partner</text>
<text text-anchor="start" x="8" y="-55.3" font-family="Times,serif" font-size="14.00">current_speaker</text>
<polyline fill="none" stroke="black" points="0,-47.5 136,-47.5 "/>
<polyline fill="none" stroke="black" points="0,-23.5 136,-23.5 "/>
<text text-anchor="start" x="8" y="-8.3" font-family="Times,serif" font-size="14.00">_layout</text>
</g>
</g>
</svg>
