<?xml version="1.0" encoding="UTF-8" standalone="no"?>
<!DOCTYPE svg PUBLIC "-//W3C//DTD SVG 1.1//EN"
 "http://www.w3.org/Graphics/SVG/1.1/DTD/svg11.dtd">
<!-- Generated by graphviz version 2.36.0 (20140111.2315)
 -->
<!-- Title: models_diagram Pages: 1 -->
<svg width="1808pt" height="1010pt"
 viewBox="0.00 0.00 1808.00 1010.00" xmlns="http://www.w3.org/2000/svg" xmlns:xlink="http://www.w3.org/1999/xlink">
<g id="graph0" class="graph" transform="scale(1 1) rotate(0) translate(4 1006)">
<title>models_diagram</title>
<polygon fill="none" stroke="none" points="-4,4 -4,-1006 1804,-1006 1804,4 -4,4"/>
<!-- _diagram_info -->
<g id="node1" class="node"><title>_diagram_info</title>
<text text-anchor="start" x="8" y="-957.6" font-family="Times,serif" font-size="13.00">Models diagram</text>
<text text-anchor="start" x="8" y="-943.6" font-family="Times,serif" font-size="13.00">Date: Nov 19 2015 &#45; 12:28</text>
<text text-anchor="start" x="8" y="-929.6" font-family="Times,serif" font-size="13.00">Migration version: 20151119102638</text>
<text text-anchor="start" x="8" y="-915.6" font-family="Times,serif" font-size="13.00">Generated by RailRoady 1.4.1</text>
<text text-anchor="start" x="8" y="-901.6" font-family="Times,serif" font-size="13.00">http://railroady.prestonlee.com</text>
</g>
<!-- ContactType -->
<g id="node2" class="node"><title>ContactType</title>
<path fill="none" stroke="black" d="M244,-196C244,-196 464,-196 464,-196 470,-196 476,-202 476,-208 476,-208 476,-290 476,-290 476,-296 470,-302 464,-302 464,-302 244,-302 244,-302 238,-302 232,-296 232,-290 232,-290 232,-208 232,-208 232,-202 238,-196 244,-196"/>
<text text-anchor="middle" x="354" y="-286.8" font-family="Times,serif" font-size="14.00">ContactType</text>
<polyline fill="none" stroke="black" points="232,-279 476,-279 "/>
<text text-anchor="start" x="240" y="-263.8" font-family="Times,serif" font-size="14.00">id :integer</text>
<text text-anchor="start" x="240" y="-248.8" font-family="Times,serif" font-size="14.00">name :character varying</text>
<text text-anchor="start" x="240" y="-233.8" font-family="Times,serif" font-size="14.00">contact_id :integer</text>
<text text-anchor="start" x="240" y="-218.8" font-family="Times,serif" font-size="14.00">created_at :timestamp without time zone</text>
<text text-anchor="start" x="240" y="-203.8" font-family="Times,serif" font-size="14.00">updated_at :timestamp without time zone</text>
</g>
<!-- Contact -->
<g id="node3" class="node"><title>Contact</title>
<path fill="none" stroke="black" d="M244,-549C244,-549 464,-549 464,-549 470,-549 476,-555 476,-561 476,-561 476,-643 476,-643 476,-649 470,-655 464,-655 464,-655 244,-655 244,-655 238,-655 232,-649 232,-643 232,-643 232,-561 232,-561 232,-555 238,-549 244,-549"/>
<text text-anchor="middle" x="354" y="-639.8" font-family="Times,serif" font-size="14.00">Contact</text>
<polyline fill="none" stroke="black" points="232,-632 476,-632 "/>
<text text-anchor="start" x="240" y="-616.8" font-family="Times,serif" font-size="14.00">id :integer</text>
<text text-anchor="start" x="240" y="-601.8" font-family="Times,serif" font-size="14.00">contact :character varying</text>
<text text-anchor="start" x="240" y="-586.8" font-family="Times,serif" font-size="14.00">organisers_contact_id :integer</text>
<text text-anchor="start" x="240" y="-571.8" font-family="Times,serif" font-size="14.00">created_at :timestamp without time zone</text>
<text text-anchor="start" x="240" y="-556.8" font-family="Times,serif" font-size="14.00">updated_at :timestamp without time zone</text>
</g>
<!-- Contact&#45;&gt;ContactType -->
<g id="edge1" class="edge"><title>Contact&#45;&gt;ContactType</title>
<path fill="none" stroke="#5c56ab" d="M354,-540.431C354,-475.959 354,-374.552 354,-310.215"/>
<ellipse fill="none" stroke="#5c56ab" cx="354" cy="-544.831" rx="4" ry="4"/>
<ellipse fill="#5c56ab" stroke="#5c56ab" cx="354" cy="-306.169" rx="4" ry="4"/>
</g>
<!-- Conference -->
<g id="node4" class="node"><title>Conference</title>
<path fill="none" stroke="black" d="M872,-865C872,-865 1092,-865 1092,-865 1098,-865 1104,-871 1104,-877 1104,-877 1104,-989 1104,-989 1104,-995 1098,-1001 1092,-1001 1092,-1001 872,-1001 872,-1001 866,-1001 860,-995 860,-989 860,-989 860,-877 860,-877 860,-871 866,-865 872,-865"/>
<text text-anchor="middle" x="982" y="-985.8" font-family="Times,serif" font-size="14.00">Conference</text>
<polyline fill="none" stroke="black" points="860,-978 1104,-978 "/>
<text text-anchor="start" x="868" y="-962.8" font-family="Times,serif" font-size="14.00">id :integer</text>
<text text-anchor="start" x="868" y="-947.8" font-family="Times,serif" font-size="14.00">name :character varying</text>
<text text-anchor="start" x="868" y="-932.8" font-family="Times,serif" font-size="14.00">description :text</text>
<text text-anchor="start" x="868" y="-917.8" font-family="Times,serif" font-size="14.00">date :date</text>
<text text-anchor="start" x="868" y="-902.8" font-family="Times,serif" font-size="14.00">place :character varying</text>
<text text-anchor="start" x="868" y="-887.8" font-family="Times,serif" font-size="14.00">created_at :timestamp without time zone</text>
<text text-anchor="start" x="868" y="-872.8" font-family="Times,serif" font-size="14.00">updated_at :timestamp without time zone</text>
</g>
<!-- Speaker -->
<g id="node6" class="node"><title>Speaker</title>
<path fill="none" stroke="black" d="M506.5,-376.5C506.5,-376.5 795.5,-376.5 795.5,-376.5 801.5,-376.5 807.5,-382.5 807.5,-388.5 807.5,-388.5 807.5,-815.5 807.5,-815.5 807.5,-821.5 801.5,-827.5 795.5,-827.5 795.5,-827.5 506.5,-827.5 506.5,-827.5 500.5,-827.5 494.5,-821.5 494.5,-815.5 494.5,-815.5 494.5,-388.5 494.5,-388.5 494.5,-382.5 500.5,-376.5 506.5,-376.5"/>
<text text-anchor="middle" x="651" y="-812.3" font-family="Times,serif" font-size="14.00">Speaker</text>
<polyline fill="none" stroke="black" points="494.5,-804.5 807.5,-804.5 "/>
<text text-anchor="start" x="502.5" y="-789.3" font-family="Times,serif" font-size="14.00">id :integer</text>
<text text-anchor="start" x="502.5" y="-774.3" font-family="Times,serif" font-size="14.00">first_name :character varying</text>
<text text-anchor="start" x="502.5" y="-759.3" font-family="Times,serif" font-size="14.00">last_name :character varying</text>
<text text-anchor="start" x="502.5" y="-744.3" font-family="Times,serif" font-size="14.00">username :character varying</text>
<text text-anchor="start" x="502.5" y="-729.3" font-family="Times,serif" font-size="14.00">type :character varying</text>
<text text-anchor="start" x="502.5" y="-714.3" font-family="Times,serif" font-size="14.00">company_name :character varying</text>
<text text-anchor="start" x="502.5" y="-699.3" font-family="Times,serif" font-size="14.00">subscription :boolean</text>
<text text-anchor="start" x="502.5" y="-684.3" font-family="Times,serif" font-size="14.00">about :text</text>
<text text-anchor="start" x="502.5" y="-669.3" font-family="Times,serif" font-size="14.00">created_at :timestamp without time zone</text>
<text text-anchor="start" x="502.5" y="-654.3" font-family="Times,serif" font-size="14.00">updated_at :timestamp without time zone</text>
<text text-anchor="start" x="502.5" y="-639.3" font-family="Times,serif" font-size="14.00">email :character varying</text>
<text text-anchor="start" x="502.5" y="-624.3" font-family="Times,serif" font-size="14.00">encrypted_password :character varying</text>
<text text-anchor="start" x="502.5" y="-609.3" font-family="Times,serif" font-size="14.00">reset_password_token :character varying</text>
<text text-anchor="start" x="502.5" y="-594.3" font-family="Times,serif" font-size="14.00">reset_password_sent_at :timestamp without time zone</text>
<text text-anchor="start" x="502.5" y="-579.3" font-family="Times,serif" font-size="14.00">remember_created_at :timestamp without time zone</text>
<text text-anchor="start" x="502.5" y="-564.3" font-family="Times,serif" font-size="14.00">sign_in_count :integer</text>
<text text-anchor="start" x="502.5" y="-549.3" font-family="Times,serif" font-size="14.00">current_sign_in_at :timestamp without time zone</text>
<text text-anchor="start" x="502.5" y="-534.3" font-family="Times,serif" font-size="14.00">last_sign_in_at :timestamp without time zone</text>
<text text-anchor="start" x="502.5" y="-519.3" font-family="Times,serif" font-size="14.00">current_sign_in_ip :inet</text>
<text text-anchor="start" x="502.5" y="-504.3" font-family="Times,serif" font-size="14.00">last_sign_in_ip :inet</text>
<text text-anchor="start" x="502.5" y="-489.3" font-family="Times,serif" font-size="14.00">confirmation_token :character varying</text>
<text text-anchor="start" x="502.5" y="-474.3" font-family="Times,serif" font-size="14.00">confirmed_at :timestamp without time zone</text>
<text text-anchor="start" x="502.5" y="-459.3" font-family="Times,serif" font-size="14.00">confirmation_sent_at :timestamp without time zone</text>
<text text-anchor="start" x="502.5" y="-444.3" font-family="Times,serif" font-size="14.00">unconfirmed_email :character varying</text>
<text text-anchor="start" x="502.5" y="-429.3" font-family="Times,serif" font-size="14.00">failed_attempts :integer</text>
<text text-anchor="start" x="502.5" y="-414.3" font-family="Times,serif" font-size="14.00">unlock_token :character varying</text>
<text text-anchor="start" x="502.5" y="-399.3" font-family="Times,serif" font-size="14.00">locked_at :timestamp without time zone</text>
<text text-anchor="start" x="502.5" y="-384.3" font-family="Times,serif" font-size="14.00">partnership_plan_id :integer</text>
</g>
<!-- Conference&#45;&gt;Speaker -->
<g id="edge4" class="edge"><title>Conference&#45;&gt;Speaker</title>
<path fill="none" stroke="#8f4c2f" d="M853.961,-858.858C840.595,-849.18 827.655,-838.833 816,-828 815.645,-827.67 815.291,-827.34 814.936,-827.008"/>
<polygon fill="#8f4c2f" stroke="#8f4c2f" points="854.174,-859.009 859.726,-868.465 858.252,-861.902 862.33,-864.795 862.33,-864.795 862.33,-864.795 858.252,-861.902 864.934,-861.124 854.174,-859.009 854.174,-859.009"/>
<polygon fill="#8f4c2f" stroke="#8f4c2f" points="814.761,-826.84 810.646,-816.675 811.148,-823.383 807.535,-819.927 807.535,-819.927 807.535,-819.927 811.148,-823.383 804.424,-823.178 814.761,-826.84 814.761,-826.84"/>
</g>
<!-- Partner -->
<g id="node10" class="node"><title>Partner</title>
<path fill="none" stroke="black" d="M1499.5,-376.5C1499.5,-376.5 1788.5,-376.5 1788.5,-376.5 1794.5,-376.5 1800.5,-382.5 1800.5,-388.5 1800.5,-388.5 1800.5,-815.5 1800.5,-815.5 1800.5,-821.5 1794.5,-827.5 1788.5,-827.5 1788.5,-827.5 1499.5,-827.5 1499.5,-827.5 1493.5,-827.5 1487.5,-821.5 1487.5,-815.5 1487.5,-815.5 1487.5,-388.5 1487.5,-388.5 1487.5,-382.5 1493.5,-376.5 1499.5,-376.5"/>
<text text-anchor="middle" x="1644" y="-812.3" font-family="Times,serif" font-size="14.00">Partner</text>
<polyline fill="none" stroke="black" points="1487.5,-804.5 1800.5,-804.5 "/>
<text text-anchor="start" x="1495.5" y="-789.3" font-family="Times,serif" font-size="14.00">id :integer</text>
<text text-anchor="start" x="1495.5" y="-774.3" font-family="Times,serif" font-size="14.00">first_name :character varying</text>
<text text-anchor="start" x="1495.5" y="-759.3" font-family="Times,serif" font-size="14.00">last_name :character varying</text>
<text text-anchor="start" x="1495.5" y="-744.3" font-family="Times,serif" font-size="14.00">username :character varying</text>
<text text-anchor="start" x="1495.5" y="-729.3" font-family="Times,serif" font-size="14.00">type :character varying</text>
<text text-anchor="start" x="1495.5" y="-714.3" font-family="Times,serif" font-size="14.00">company_name :character varying</text>
<text text-anchor="start" x="1495.5" y="-699.3" font-family="Times,serif" font-size="14.00">subscription :boolean</text>
<text text-anchor="start" x="1495.5" y="-684.3" font-family="Times,serif" font-size="14.00">about :text</text>
<text text-anchor="start" x="1495.5" y="-669.3" font-family="Times,serif" font-size="14.00">created_at :timestamp without time zone</text>
<text text-anchor="start" x="1495.5" y="-654.3" font-family="Times,serif" font-size="14.00">updated_at :timestamp without time zone</text>
<text text-anchor="start" x="1495.5" y="-639.3" font-family="Times,serif" font-size="14.00">email :character varying</text>
<text text-anchor="start" x="1495.5" y="-624.3" font-family="Times,serif" font-size="14.00">encrypted_password :character varying</text>
<text text-anchor="start" x="1495.5" y="-609.3" font-family="Times,serif" font-size="14.00">reset_password_token :character varying</text>
<text text-anchor="start" x="1495.5" y="-594.3" font-family="Times,serif" font-size="14.00">reset_password_sent_at :timestamp without time zone</text>
<text text-anchor="start" x="1495.5" y="-579.3" font-family="Times,serif" font-size="14.00">remember_created_at :timestamp without time zone</text>
<text text-anchor="start" x="1495.5" y="-564.3" font-family="Times,serif" font-size="14.00">sign_in_count :integer</text>
<text text-anchor="start" x="1495.5" y="-549.3" font-family="Times,serif" font-size="14.00">current_sign_in_at :timestamp without time zone</text>
<text text-anchor="start" x="1495.5" y="-534.3" font-family="Times,serif" font-size="14.00">last_sign_in_at :timestamp without time zone</text>
<text text-anchor="start" x="1495.5" y="-519.3" font-family="Times,serif" font-size="14.00">current_sign_in_ip :inet</text>
<text text-anchor="start" x="1495.5" y="-504.3" font-family="Times,serif" font-size="14.00">last_sign_in_ip :inet</text>
<text text-anchor="start" x="1495.5" y="-489.3" font-family="Times,serif" font-size="14.00">confirmation_token :character varying</text>
<text text-anchor="start" x="1495.5" y="-474.3" font-family="Times,serif" font-size="14.00">confirmed_at :timestamp without time zone</text>
<text text-anchor="start" x="1495.5" y="-459.3" font-family="Times,serif" font-size="14.00">confirmation_sent_at :timestamp without time zone</text>
<text text-anchor="start" x="1495.5" y="-444.3" font-family="Times,serif" font-size="14.00">unconfirmed_email :character varying</text>
<text text-anchor="start" x="1495.5" y="-429.3" font-family="Times,serif" font-size="14.00">failed_attempts :integer</text>
<text text-anchor="start" x="1495.5" y="-414.3" font-family="Times,serif" font-size="14.00">unlock_token :character varying</text>
<text text-anchor="start" x="1495.5" y="-399.3" font-family="Times,serif" font-size="14.00">locked_at :timestamp without time zone</text>
<text text-anchor="start" x="1495.5" y="-384.3" font-family="Times,serif" font-size="14.00">partnership_plan_id :integer</text>
</g>
<!-- Conference&#45;&gt;Partner -->
<g id="edge3" class="edge"><title>Conference&#45;&gt;Partner</title>
<path fill="none" stroke="#f79a92" d="M1114.16,-929.639C1220.07,-922.088 1368.54,-898.301 1478,-828 1478.3,-827.809 1478.59,-827.618 1478.89,-827.426"/>
<polygon fill="#f79a92" stroke="#f79a92" points="1114.02,-929.648 1103.74,-925.83 1109.03,-929.984 1104.04,-930.32 1104.04,-930.32 1104.04,-930.32 1109.03,-929.984 1104.35,-934.81 1114.02,-929.648 1114.02,-929.648"/>
<polygon fill="#f79a92" stroke="#f79a92" points="1479.11,-827.279 1489.91,-825.38 1483.24,-824.469 1487.38,-821.658 1487.38,-821.658 1487.38,-821.658 1483.24,-824.469 1484.85,-817.936 1479.11,-827.279 1479.11,-827.279"/>
</g>
<!-- Attendee -->
<g id="node12" class="node"><title>Attendee</title>
<path fill="none" stroke="black" d="M837.5,-376.5C837.5,-376.5 1126.5,-376.5 1126.5,-376.5 1132.5,-376.5 1138.5,-382.5 1138.5,-388.5 1138.5,-388.5 1138.5,-815.5 1138.5,-815.5 1138.5,-821.5 1132.5,-827.5 1126.5,-827.5 1126.5,-827.5 837.5,-827.5 837.5,-827.5 831.5,-827.5 825.5,-821.5 825.5,-815.5 825.5,-815.5 825.5,-388.5 825.5,-388.5 825.5,-382.5 831.5,-376.5 837.5,-376.5"/>
<text text-anchor="middle" x="982" y="-812.3" font-family="Times,serif" font-size="14.00">Attendee</text>
<polyline fill="none" stroke="black" points="825.5,-804.5 1138.5,-804.5 "/>
<text text-anchor="start" x="833.5" y="-789.3" font-family="Times,serif" font-size="14.00">id :integer</text>
<text text-anchor="start" x="833.5" y="-774.3" font-family="Times,serif" font-size="14.00">first_name :character varying</text>
<text text-anchor="start" x="833.5" y="-759.3" font-family="Times,serif" font-size="14.00">last_name :character varying</text>
<text text-anchor="start" x="833.5" y="-744.3" font-family="Times,serif" font-size="14.00">username :character varying</text>
<text text-anchor="start" x="833.5" y="-729.3" font-family="Times,serif" font-size="14.00">type :character varying</text>
<text text-anchor="start" x="833.5" y="-714.3" font-family="Times,serif" font-size="14.00">company_name :character varying</text>
<text text-anchor="start" x="833.5" y="-699.3" font-family="Times,serif" font-size="14.00">subscription :boolean</text>
<text text-anchor="start" x="833.5" y="-684.3" font-family="Times,serif" font-size="14.00">about :text</text>
<text text-anchor="start" x="833.5" y="-669.3" font-family="Times,serif" font-size="14.00">created_at :timestamp without time zone</text>
<text text-anchor="start" x="833.5" y="-654.3" font-family="Times,serif" font-size="14.00">updated_at :timestamp without time zone</text>
<text text-anchor="start" x="833.5" y="-639.3" font-family="Times,serif" font-size="14.00">email :character varying</text>
<text text-anchor="start" x="833.5" y="-624.3" font-family="Times,serif" font-size="14.00">encrypted_password :character varying</text>
<text text-anchor="start" x="833.5" y="-609.3" font-family="Times,serif" font-size="14.00">reset_password_token :character varying</text>
<text text-anchor="start" x="833.5" y="-594.3" font-family="Times,serif" font-size="14.00">reset_password_sent_at :timestamp without time zone</text>
<text text-anchor="start" x="833.5" y="-579.3" font-family="Times,serif" font-size="14.00">remember_created_at :timestamp without time zone</text>
<text text-anchor="start" x="833.5" y="-564.3" font-family="Times,serif" font-size="14.00">sign_in_count :integer</text>
<text text-anchor="start" x="833.5" y="-549.3" font-family="Times,serif" font-size="14.00">current_sign_in_at :timestamp without time zone</text>
<text text-anchor="start" x="833.5" y="-534.3" font-family="Times,serif" font-size="14.00">last_sign_in_at :timestamp without time zone</text>
<text text-anchor="start" x="833.5" y="-519.3" font-family="Times,serif" font-size="14.00">current_sign_in_ip :inet</text>
<text text-anchor="start" x="833.5" y="-504.3" font-family="Times,serif" font-size="14.00">last_sign_in_ip :inet</text>
<text text-anchor="start" x="833.5" y="-489.3" font-family="Times,serif" font-size="14.00">confirmation_token :character varying</text>
<text text-anchor="start" x="833.5" y="-474.3" font-family="Times,serif" font-size="14.00">confirmed_at :timestamp without time zone</text>
<text text-anchor="start" x="833.5" y="-459.3" font-family="Times,serif" font-size="14.00">confirmation_sent_at :timestamp without time zone</text>
<text text-anchor="start" x="833.5" y="-444.3" font-family="Times,serif" font-size="14.00">unconfirmed_email :character varying</text>
<text text-anchor="start" x="833.5" y="-429.3" font-family="Times,serif" font-size="14.00">failed_attempts :integer</text>
<text text-anchor="start" x="833.5" y="-414.3" font-family="Times,serif" font-size="14.00">unlock_token :character varying</text>
<text text-anchor="start" x="833.5" y="-399.3" font-family="Times,serif" font-size="14.00">locked_at :timestamp without time zone</text>
<text text-anchor="start" x="833.5" y="-384.3" font-family="Times,serif" font-size="14.00">partnership_plan_id :integer</text>
</g>
<!-- Conference&#45;&gt;Attendee -->
<g id="edge2" class="edge"><title>Conference&#45;&gt;Attendee</title>
<path fill="none" stroke="#f4d78a" d="M982,-854.447C982,-849.114 982,-843.61 982,-837.97"/>
<polygon fill="#f4d78a" stroke="#f4d78a" points="982,-854.628 977.5,-864.628 982,-859.628 982,-864.628 982,-864.628 982,-864.628 982,-859.628 986.5,-864.628 982,-854.628 982,-854.628"/>
<polygon fill="#f4d78a" stroke="#f4d78a" points="982,-837.678 986.5,-827.678 982,-832.678 982,-827.678 982,-827.678 982,-827.678 982,-832.678 977.5,-827.678 982,-837.678 982,-837.678"/>
</g>
<!-- User -->
<g id="node5" class="node"><title>User</title>
<path fill="none" stroke="black" d="M1168.5,-376.5C1168.5,-376.5 1457.5,-376.5 1457.5,-376.5 1463.5,-376.5 1469.5,-382.5 1469.5,-388.5 1469.5,-388.5 1469.5,-815.5 1469.5,-815.5 1469.5,-821.5 1463.5,-827.5 1457.5,-827.5 1457.5,-827.5 1168.5,-827.5 1168.5,-827.5 1162.5,-827.5 1156.5,-821.5 1156.5,-815.5 1156.5,-815.5 1156.5,-388.5 1156.5,-388.5 1156.5,-382.5 1162.5,-376.5 1168.5,-376.5"/>
<text text-anchor="middle" x="1313" y="-812.3" font-family="Times,serif" font-size="14.00">User</text>
<polyline fill="none" stroke="black" points="1156.5,-804.5 1469.5,-804.5 "/>
<text text-anchor="start" x="1164.5" y="-789.3" font-family="Times,serif" font-size="14.00">id :integer</text>
<text text-anchor="start" x="1164.5" y="-774.3" font-family="Times,serif" font-size="14.00">first_name :character varying</text>
<text text-anchor="start" x="1164.5" y="-759.3" font-family="Times,serif" font-size="14.00">last_name :character varying</text>
<text text-anchor="start" x="1164.5" y="-744.3" font-family="Times,serif" font-size="14.00">username :character varying</text>
<text text-anchor="start" x="1164.5" y="-729.3" font-family="Times,serif" font-size="14.00">type :character varying</text>
<text text-anchor="start" x="1164.5" y="-714.3" font-family="Times,serif" font-size="14.00">company_name :character varying</text>
<text text-anchor="start" x="1164.5" y="-699.3" font-family="Times,serif" font-size="14.00">subscription :boolean</text>
<text text-anchor="start" x="1164.5" y="-684.3" font-family="Times,serif" font-size="14.00">about :text</text>
<text text-anchor="start" x="1164.5" y="-669.3" font-family="Times,serif" font-size="14.00">created_at :timestamp without time zone</text>
<text text-anchor="start" x="1164.5" y="-654.3" font-family="Times,serif" font-size="14.00">updated_at :timestamp without time zone</text>
<text text-anchor="start" x="1164.5" y="-639.3" font-family="Times,serif" font-size="14.00">email :character varying</text>
<text text-anchor="start" x="1164.5" y="-624.3" font-family="Times,serif" font-size="14.00">encrypted_password :character varying</text>
<text text-anchor="start" x="1164.5" y="-609.3" font-family="Times,serif" font-size="14.00">reset_password_token :character varying</text>
<text text-anchor="start" x="1164.5" y="-594.3" font-family="Times,serif" font-size="14.00">reset_password_sent_at :timestamp without time zone</text>
<text text-anchor="start" x="1164.5" y="-579.3" font-family="Times,serif" font-size="14.00">remember_created_at :timestamp without time zone</text>
<text text-anchor="start" x="1164.5" y="-564.3" font-family="Times,serif" font-size="14.00">sign_in_count :integer</text>
<text text-anchor="start" x="1164.5" y="-549.3" font-family="Times,serif" font-size="14.00">current_sign_in_at :timestamp without time zone</text>
<text text-anchor="start" x="1164.5" y="-534.3" font-family="Times,serif" font-size="14.00">last_sign_in_at :timestamp without time zone</text>
<text text-anchor="start" x="1164.5" y="-519.3" font-family="Times,serif" font-size="14.00">current_sign_in_ip :inet</text>
<text text-anchor="start" x="1164.5" y="-504.3" font-family="Times,serif" font-size="14.00">last_sign_in_ip :inet</text>
<text text-anchor="start" x="1164.5" y="-489.3" font-family="Times,serif" font-size="14.00">confirmation_token :character varying</text>
<text text-anchor="start" x="1164.5" y="-474.3" font-family="Times,serif" font-size="14.00">confirmed_at :timestamp without time zone</text>
<text text-anchor="start" x="1164.5" y="-459.3" font-family="Times,serif" font-size="14.00">confirmation_sent_at :timestamp without time zone</text>
<text text-anchor="start" x="1164.5" y="-444.3" font-family="Times,serif" font-size="14.00">unconfirmed_email :character varying</text>
<text text-anchor="start" x="1164.5" y="-429.3" font-family="Times,serif" font-size="14.00">failed_attempts :integer</text>
<text text-anchor="start" x="1164.5" y="-414.3" font-family="Times,serif" font-size="14.00">unlock_token :character varying</text>
<text text-anchor="start" x="1164.5" y="-399.3" font-family="Times,serif" font-size="14.00">locked_at :timestamp without time zone</text>
<text text-anchor="start" x="1164.5" y="-384.3" font-family="Times,serif" font-size="14.00">partnership_plan_id :integer</text>
</g>
<!-- Feedback -->
<g id="node8" class="node"><title>Feedback</title>
<path fill="none" stroke="black" d="M1038,-196C1038,-196 1258,-196 1258,-196 1264,-196 1270,-202 1270,-208 1270,-208 1270,-290 1270,-290 1270,-296 1264,-302 1258,-302 1258,-302 1038,-302 1038,-302 1032,-302 1026,-296 1026,-290 1026,-290 1026,-208 1026,-208 1026,-202 1032,-196 1038,-196"/>
<text text-anchor="middle" x="1148" y="-286.8" font-family="Times,serif" font-size="14.00">Feedback</text>
<polyline fill="none" stroke="black" points="1026,-279 1270,-279 "/>
<text text-anchor="start" x="1034" y="-263.8" font-family="Times,serif" font-size="14.00">id :integer</text>
<text text-anchor="start" x="1034" y="-248.8" font-family="Times,serif" font-size="14.00">feedback :text</text>
<text text-anchor="start" x="1034" y="-233.8" font-family="Times,serif" font-size="14.00">user_id :integer</text>
<text text-anchor="start" x="1034" y="-218.8" font-family="Times,serif" font-size="14.00">created_at :timestamp without time zone</text>
<text text-anchor="start" x="1034" y="-203.8" font-family="Times,serif" font-size="14.00">updated_at :timestamp without time zone</text>
</g>
<!-- User&#45;&gt;Feedback -->
<g id="edge5" class="edge"><title>User&#45;&gt;Feedback</title>
<path fill="none" stroke="#6d2003" d="M1203.88,-368.868C1194.09,-348.043 1184.86,-328.41 1176.83,-311.327"/>
<ellipse fill="none" stroke="#6d2003" cx="1205.63" cy="-372.603" rx="4.00002" ry="4.00002"/>
<polygon fill="#6d2003" stroke="#6d2003" points="1176.75,-311.158 1176.57,-300.193 1174.62,-306.633 1172.5,-302.108 1172.5,-302.108 1172.5,-302.108 1174.62,-306.633 1168.42,-304.022 1176.75,-311.158 1176.75,-311.158"/>
</g>
<!-- Speaker&#45;&gt;Feedback -->
<g id="edge6" class="edge"><title>Speaker&#45;&gt;Feedback</title>
<path fill="none" stroke="#9f0c54" d="M814.17,-377.404C814.778,-376.933 815.389,-376.465 816,-376 874.802,-331.262 951.312,-300.798 1016.06,-281.047"/>
<ellipse fill="none" stroke="#9f0c54" cx="810.824" cy="-380.064" rx="4.00002" ry="4.00002"/>
<polygon fill="#9f0c54" stroke="#9f0c54" points="1016.36,-280.959 1027.23,-282.4 1021.15,-279.524 1025.94,-278.09 1025.94,-278.09 1025.94,-278.09 1021.15,-279.524 1024.64,-273.779 1016.36,-280.959 1016.36,-280.959"/>
</g>
<!-- Speech -->
<g id="node13" class="node"><title>Speech</title>
<path fill="none" stroke="black" d="M541,-158.5C541,-158.5 761,-158.5 761,-158.5 767,-158.5 773,-164.5 773,-170.5 773,-170.5 773,-327.5 773,-327.5 773,-333.5 767,-339.5 761,-339.5 761,-339.5 541,-339.5 541,-339.5 535,-339.5 529,-333.5 529,-327.5 529,-327.5 529,-170.5 529,-170.5 529,-164.5 535,-158.5 541,-158.5"/>
<text text-anchor="middle" x="651" y="-324.3" font-family="Times,serif" font-size="14.00">Speech</text>
<polyline fill="none" stroke="black" points="529,-316.5 773,-316.5 "/>
<text text-anchor="start" x="537" y="-301.3" font-family="Times,serif" font-size="14.00">id :integer</text>
<text text-anchor="start" x="537" y="-286.3" font-family="Times,serif" font-size="14.00">name :character varying</text>
<text text-anchor="start" x="537" y="-271.3" font-family="Times,serif" font-size="14.00">description :text</text>
<text text-anchor="start" x="537" y="-256.3" font-family="Times,serif" font-size="14.00">speech_start :time without time zone</text>
<text text-anchor="start" x="537" y="-241.3" font-family="Times,serif" font-size="14.00">speech_finish :time without time zone</text>
<text text-anchor="start" x="537" y="-226.3" font-family="Times,serif" font-size="14.00">qa_start :time without time zone</text>
<text text-anchor="start" x="537" y="-211.3" font-family="Times,serif" font-size="14.00">qa_finish :time without time zone</text>
<text text-anchor="start" x="537" y="-196.3" font-family="Times,serif" font-size="14.00">user_id :integer</text>
<text text-anchor="start" x="537" y="-181.3" font-family="Times,serif" font-size="14.00">created_at :timestamp without time zone</text>
<text text-anchor="start" x="537" y="-166.3" font-family="Times,serif" font-size="14.00">updated_at :timestamp without time zone</text>
</g>
<!-- Speaker&#45;&gt;Speech -->
<g id="edge7" class="edge"><title>Speaker&#45;&gt;Speech</title>
<path fill="none" stroke="#090f3d" d="M651,-368.017C651,-361.955 651,-355.996 651,-350.174"/>
<ellipse fill="none" stroke="#090f3d" cx="651" cy="-372.223" rx="4" ry="4"/>
<polygon fill="#090f3d" stroke="#090f3d" points="651,-349.848 655.5,-339.848 651,-344.848 651,-339.848 651,-339.848 651,-339.848 651,-344.848 646.5,-339.848 651,-349.848 651,-349.848"/>
</g>
<!-- PartnershipPlan -->
<g id="node7" class="node"><title>PartnershipPlan</title>
<path fill="none" stroke="black" d="M1534,-196C1534,-196 1754,-196 1754,-196 1760,-196 1766,-202 1766,-208 1766,-208 1766,-290 1766,-290 1766,-296 1760,-302 1754,-302 1754,-302 1534,-302 1534,-302 1528,-302 1522,-296 1522,-290 1522,-290 1522,-208 1522,-208 1522,-202 1528,-196 1534,-196"/>
<text text-anchor="middle" x="1644" y="-286.8" font-family="Times,serif" font-size="14.00">PartnershipPlan</text>
<polyline fill="none" stroke="black" points="1522,-279 1766,-279 "/>
<text text-anchor="start" x="1530" y="-263.8" font-family="Times,serif" font-size="14.00">id :integer</text>
<text text-anchor="start" x="1530" y="-248.8" font-family="Times,serif" font-size="14.00">name :character varying</text>
<text text-anchor="start" x="1530" y="-233.8" font-family="Times,serif" font-size="14.00">description :text</text>
<text text-anchor="start" x="1530" y="-218.8" font-family="Times,serif" font-size="14.00">created_at :timestamp without time zone</text>
<text text-anchor="start" x="1530" y="-203.8" font-family="Times,serif" font-size="14.00">updated_at :timestamp without time zone</text>
</g>
<!-- PartnershipPerk -->
<g id="node11" class="node"><title>PartnershipPerk</title>
<path fill="none" stroke="black" d="M1534,-0.5C1534,-0.5 1754,-0.5 1754,-0.5 1760,-0.5 1766,-6.5 1766,-12.5 1766,-12.5 1766,-109.5 1766,-109.5 1766,-115.5 1760,-121.5 1754,-121.5 1754,-121.5 1534,-121.5 1534,-121.5 1528,-121.5 1522,-115.5 1522,-109.5 1522,-109.5 1522,-12.5 1522,-12.5 1522,-6.5 1528,-0.5 1534,-0.5"/>
<text text-anchor="middle" x="1644" y="-106.3" font-family="Times,serif" font-size="14.00">PartnershipPerk</text>
<polyline fill="none" stroke="black" points="1522,-98.5 1766,-98.5 "/>
<text text-anchor="start" x="1530" y="-83.3" font-family="Times,serif" font-size="14.00">id :integer</text>
<text text-anchor="start" x="1530" y="-68.3" font-family="Times,serif" font-size="14.00">name :character varying</text>
<text text-anchor="start" x="1530" y="-53.3" font-family="Times,serif" font-size="14.00">description :text</text>
<text text-anchor="start" x="1530" y="-38.3" font-family="Times,serif" font-size="14.00">partnership_plan_id :integer</text>
<text text-anchor="start" x="1530" y="-23.3" font-family="Times,serif" font-size="14.00">created_at :timestamp without time zone</text>
<text text-anchor="start" x="1530" y="-8.3" font-family="Times,serif" font-size="14.00">updated_at :timestamp without time zone</text>
</g>
<!-- PartnershipPlan&#45;&gt;PartnershipPerk -->
<g id="edge8" class="edge"><title>PartnershipPlan&#45;&gt;PartnershipPerk</title>
<path fill="none" stroke="#a99227" d="M1644,-187.451C1644,-169.678 1644,-150.097 1644,-131.797"/>
<ellipse fill="none" stroke="#a99227" cx="1644" cy="-191.694" rx="4" ry="4"/>
<polygon fill="#a99227" stroke="#a99227" points="1644,-131.781 1648.5,-121.781 1644,-126.781 1644,-121.781 1644,-121.781 1644,-121.781 1644,-126.781 1639.5,-121.781 1644,-131.781 1644,-131.781"/>
</g>
<!-- OrganisersContact -->
<g id="node9" class="node"><title>OrganisersContact</title>
<path fill="none" stroke="black" d="M244,-887.5C244,-887.5 464,-887.5 464,-887.5 470,-887.5 476,-893.5 476,-899.5 476,-899.5 476,-966.5 476,-966.5 476,-972.5 470,-978.5 464,-978.5 464,-978.5 244,-978.5 244,-978.5 238,-978.5 232,-972.5 232,-966.5 232,-966.5 232,-899.5 232,-899.5 232,-893.5 238,-887.5 244,-887.5"/>
<text text-anchor="middle" x="354" y="-963.3" font-family="Times,serif" font-size="14.00">OrganisersContact</text>
<polyline fill="none" stroke="black" points="232,-955.5 476,-955.5 "/>
<text text-anchor="start" x="240" y="-940.3" font-family="Times,serif" font-size="14.00">id :integer</text>
<text text-anchor="start" x="240" y="-925.3" font-family="Times,serif" font-size="14.00">name :character varying</text>
<text text-anchor="start" x="240" y="-910.3" font-family="Times,serif" font-size="14.00">created_at :timestamp without time zone</text>
<text text-anchor="start" x="240" y="-895.3" font-family="Times,serif" font-size="14.00">updated_at :timestamp without time zone</text>
</g>
<!-- OrganisersContact&#45;&gt;Contact -->
<g id="edge9" class="edge"><title>OrganisersContact&#45;&gt;Contact</title>
<path fill="none" stroke="#966e59" d="M354,-879.243C354,-820.932 354,-727.097 354,-665.238"/>
<ellipse fill="none" stroke="#966e59" cx="354" cy="-883.287" rx="4" ry="4"/>
<polygon fill="#966e59" stroke="#966e59" points="354,-665.216 358.5,-655.216 354,-660.216 354,-655.216 354,-655.216 354,-655.216 354,-660.216 349.5,-655.216 354,-665.216 354,-665.216"/>
</g>
<!-- Partner&#45;&gt;PartnershipPlan -->
<g id="edge11" class="edge"><title>Partner&#45;&gt;PartnershipPlan</title>
<path fill="none" stroke="#dd152e" d="M1644,-367.915C1644,-347.015 1644,-327.34 1644,-310.272"/>
<ellipse fill="none" stroke="#dd152e" cx="1644" cy="-372.223" rx="4" ry="4"/>
<ellipse fill="#dd152e" stroke="#dd152e" cx="1644" cy="-306.108" rx="4" ry="4"/>
</g>
<!-- Partner&#45;&gt;Feedback -->
<g id="edge10" class="edge"><title>Partner&#45;&gt;Feedback</title>
<path fill="none" stroke="#e19413" d="M1480.98,-378.294C1479.99,-377.522 1479,-376.757 1478,-376 1419.72,-331.7 1344.04,-301.317 1279.86,-281.505"/>
<ellipse fill="none" stroke="#e19413" cx="1484.34" cy="-380.993" rx="4.00002" ry="4.00002"/>
<polygon fill="#e19413" stroke="#e19413" points="1279.64,-281.438 1271.37,-274.23 1274.85,-279.988 1270.07,-278.537 1270.07,-278.537 1270.07,-278.537 1274.85,-279.988 1268.76,-282.843 1279.64,-281.438 1279.64,-281.438"/>
</g>
<!-- Attendee&#45;&gt;Feedback -->
<g id="edge12" class="edge"><title>Attendee&#45;&gt;Feedback</title>
<path fill="none" stroke="#d868db" d="M1091.78,-368.868C1101.63,-348.043 1110.92,-328.41 1119,-311.327"/>
<ellipse fill="none" stroke="#d868db" cx="1090.01" cy="-372.607" rx="4.00002" ry="4.00002"/>
<polygon fill="#d868db" stroke="#d868db" points="1119.08,-311.148 1127.42,-304.032 1121.22,-306.628 1123.36,-302.108 1123.36,-302.108 1123.36,-302.108 1121.22,-306.628 1119.29,-300.184 1119.08,-311.148 1119.08,-311.148"/>
</g>
</g>
</svg>
