<?xml version="1.0" encoding="UTF-8" standalone="no"?>
<!DOCTYPE svg PUBLIC "-//W3C//DTD SVG 1.1//EN"
 "http://www.w3.org/Graphics/SVG/1.1/DTD/svg11.dtd">
<!-- Generated by graphviz version 2.36.0 (20140111.2315)
 -->
<!-- Title: models_diagram Pages: 1 -->
<svg width="1807pt" height="658pt"
 viewBox="0.00 0.00 1807.00 658.00" xmlns="http://www.w3.org/2000/svg" xmlns:xlink="http://www.w3.org/1999/xlink">
<g id="graph0" class="graph" transform="scale(1 1) rotate(0) translate(4 654)">
<title>models_diagram</title>
<polygon fill="none" stroke="none" points="-4,4 -4,-654 1803,-654 1803,4 -4,4"/>
<!-- _diagram_info -->
<g id="node1" class="node"><title>_diagram_info</title>
<text text-anchor="start" x="7" y="-485.6" font-family="Times,serif" font-size="13.00">Models diagram</text>
<text text-anchor="start" x="7" y="-471.6" font-family="Times,serif" font-size="13.00">Date: Nov 19 2015 &#45; 08:08</text>
<text text-anchor="start" x="7" y="-457.6" font-family="Times,serif" font-size="13.00">Migration version: 20151119055649</text>
<text text-anchor="start" x="7" y="-443.6" font-family="Times,serif" font-size="13.00">Generated by RailRoady 1.4.1</text>
<text text-anchor="start" x="7" y="-429.6" font-family="Times,serif" font-size="13.00">http://railroady.prestonlee.com</text>
</g>
<!-- ContactType -->
<g id="node2" class="node"><title>ContactType</title>
<path fill="none" stroke="black" d="M243,-0.5C243,-0.5 463,-0.5 463,-0.5 469,-0.5 475,-6.5 475,-12.5 475,-12.5 475,-79.5 475,-79.5 475,-85.5 469,-91.5 463,-91.5 463,-91.5 243,-91.5 243,-91.5 237,-91.5 231,-85.5 231,-79.5 231,-79.5 231,-12.5 231,-12.5 231,-6.5 237,-0.5 243,-0.5"/>
<text text-anchor="middle" x="353" y="-76.3" font-family="Times,serif" font-size="14.00">ContactType</text>
<polyline fill="none" stroke="black" points="231,-68.5 475,-68.5 "/>
<text text-anchor="start" x="239" y="-53.3" font-family="Times,serif" font-size="14.00">id :integer</text>
<text text-anchor="start" x="239" y="-38.3" font-family="Times,serif" font-size="14.00">name :character varying</text>
<text text-anchor="start" x="239" y="-23.3" font-family="Times,serif" font-size="14.00">created_at :timestamp without time zone</text>
<text text-anchor="start" x="239" y="-8.3" font-family="Times,serif" font-size="14.00">updated_at :timestamp without time zone</text>
</g>
<!-- Contact -->
<g id="node3" class="node"><title>Contact</title>
<path fill="none" stroke="black" d="M243,-129C243,-129 463,-129 463,-129 469,-129 475,-135 475,-141 475,-141 475,-223 475,-223 475,-229 469,-235 463,-235 463,-235 243,-235 243,-235 237,-235 231,-229 231,-223 231,-223 231,-141 231,-141 231,-135 237,-129 243,-129"/>
<text text-anchor="middle" x="353" y="-219.8" font-family="Times,serif" font-size="14.00">Contact</text>
<polyline fill="none" stroke="black" points="231,-212 475,-212 "/>
<text text-anchor="start" x="239" y="-196.8" font-family="Times,serif" font-size="14.00">id :integer</text>
<text text-anchor="start" x="239" y="-181.8" font-family="Times,serif" font-size="14.00">contact :character varying</text>
<text text-anchor="start" x="239" y="-166.8" font-family="Times,serif" font-size="14.00">created_at :timestamp without time zone</text>
<text text-anchor="start" x="239" y="-151.8" font-family="Times,serif" font-size="14.00">updated_at :timestamp without time zone</text>
<text text-anchor="start" x="239" y="-136.8" font-family="Times,serif" font-size="14.00">contact_type_id :integer</text>
</g>
<!-- Contact&#45;&gt;ContactType -->
<g id="edge1" class="edge"><title>Contact&#45;&gt;ContactType</title>
<path fill="none" stroke="#998e84" d="M353,-120.722C353,-113.901 353,-106.986 353,-100.264"/>
<ellipse fill="none" stroke="#998e84" cx="353" cy="-124.808" rx="4" ry="4"/>
<ellipse fill="#998e84" stroke="#998e84" cx="353" cy="-95.8734" rx="4" ry="4"/>
</g>
<!-- User -->
<g id="node4" class="node"><title>User</title>
<path fill="none" stroke="black" d="M505.5,-273C505.5,-273 794.5,-273 794.5,-273 800.5,-273 806.5,-279 806.5,-285 806.5,-285 806.5,-637 806.5,-637 806.5,-643 800.5,-649 794.5,-649 794.5,-649 505.5,-649 505.5,-649 499.5,-649 493.5,-643 493.5,-637 493.5,-637 493.5,-285 493.5,-285 493.5,-279 499.5,-273 505.5,-273"/>
<text text-anchor="middle" x="650" y="-633.8" font-family="Times,serif" font-size="14.00">User</text>
<polyline fill="none" stroke="black" points="493.5,-626 806.5,-626 "/>
<text text-anchor="start" x="501.5" y="-610.8" font-family="Times,serif" font-size="14.00">id :integer</text>
<text text-anchor="start" x="501.5" y="-595.8" font-family="Times,serif" font-size="14.00">first_name :character varying</text>
<text text-anchor="start" x="501.5" y="-580.8" font-family="Times,serif" font-size="14.00">last_name :character varying</text>
<text text-anchor="start" x="501.5" y="-565.8" font-family="Times,serif" font-size="14.00">type :character varying</text>
<text text-anchor="start" x="501.5" y="-550.8" font-family="Times,serif" font-size="14.00">created_at :timestamp without time zone</text>
<text text-anchor="start" x="501.5" y="-535.8" font-family="Times,serif" font-size="14.00">updated_at :timestamp without time zone</text>
<text text-anchor="start" x="501.5" y="-520.8" font-family="Times,serif" font-size="14.00">email :character varying</text>
<text text-anchor="start" x="501.5" y="-505.8" font-family="Times,serif" font-size="14.00">encrypted_password :character varying</text>
<text text-anchor="start" x="501.5" y="-490.8" font-family="Times,serif" font-size="14.00">reset_password_token :character varying</text>
<text text-anchor="start" x="501.5" y="-475.8" font-family="Times,serif" font-size="14.00">reset_password_sent_at :timestamp without time zone</text>
<text text-anchor="start" x="501.5" y="-460.8" font-family="Times,serif" font-size="14.00">remember_created_at :timestamp without time zone</text>
<text text-anchor="start" x="501.5" y="-445.8" font-family="Times,serif" font-size="14.00">sign_in_count :integer</text>
<text text-anchor="start" x="501.5" y="-430.8" font-family="Times,serif" font-size="14.00">current_sign_in_at :timestamp without time zone</text>
<text text-anchor="start" x="501.5" y="-415.8" font-family="Times,serif" font-size="14.00">last_sign_in_at :timestamp without time zone</text>
<text text-anchor="start" x="501.5" y="-400.8" font-family="Times,serif" font-size="14.00">current_sign_in_ip :inet</text>
<text text-anchor="start" x="501.5" y="-385.8" font-family="Times,serif" font-size="14.00">last_sign_in_ip :inet</text>
<text text-anchor="start" x="501.5" y="-370.8" font-family="Times,serif" font-size="14.00">confirmation_token :character varying</text>
<text text-anchor="start" x="501.5" y="-355.8" font-family="Times,serif" font-size="14.00">confirmed_at :timestamp without time zone</text>
<text text-anchor="start" x="501.5" y="-340.8" font-family="Times,serif" font-size="14.00">confirmation_sent_at :timestamp without time zone</text>
<text text-anchor="start" x="501.5" y="-325.8" font-family="Times,serif" font-size="14.00">unconfirmed_email :character varying</text>
<text text-anchor="start" x="501.5" y="-310.8" font-family="Times,serif" font-size="14.00">failed_attempts :integer</text>
<text text-anchor="start" x="501.5" y="-295.8" font-family="Times,serif" font-size="14.00">unlock_token :character varying</text>
<text text-anchor="start" x="501.5" y="-280.8" font-family="Times,serif" font-size="14.00">locked_at :timestamp without time zone</text>
</g>
<!-- Speaker -->
<g id="node5" class="node"><title>Speaker</title>
<path fill="none" stroke="black" d="M836.5,-273C836.5,-273 1125.5,-273 1125.5,-273 1131.5,-273 1137.5,-279 1137.5,-285 1137.5,-285 1137.5,-637 1137.5,-637 1137.5,-643 1131.5,-649 1125.5,-649 1125.5,-649 836.5,-649 836.5,-649 830.5,-649 824.5,-643 824.5,-637 824.5,-637 824.5,-285 824.5,-285 824.5,-279 830.5,-273 836.5,-273"/>
<text text-anchor="middle" x="981" y="-633.8" font-family="Times,serif" font-size="14.00">Speaker</text>
<polyline fill="none" stroke="black" points="824.5,-626 1137.5,-626 "/>
<text text-anchor="start" x="832.5" y="-610.8" font-family="Times,serif" font-size="14.00">id :integer</text>
<text text-anchor="start" x="832.5" y="-595.8" font-family="Times,serif" font-size="14.00">first_name :character varying</text>
<text text-anchor="start" x="832.5" y="-580.8" font-family="Times,serif" font-size="14.00">last_name :character varying</text>
<text text-anchor="start" x="832.5" y="-565.8" font-family="Times,serif" font-size="14.00">type :character varying</text>
<text text-anchor="start" x="832.5" y="-550.8" font-family="Times,serif" font-size="14.00">created_at :timestamp without time zone</text>
<text text-anchor="start" x="832.5" y="-535.8" font-family="Times,serif" font-size="14.00">updated_at :timestamp without time zone</text>
<text text-anchor="start" x="832.5" y="-520.8" font-family="Times,serif" font-size="14.00">email :character varying</text>
<text text-anchor="start" x="832.5" y="-505.8" font-family="Times,serif" font-size="14.00">encrypted_password :character varying</text>
<text text-anchor="start" x="832.5" y="-490.8" font-family="Times,serif" font-size="14.00">reset_password_token :character varying</text>
<text text-anchor="start" x="832.5" y="-475.8" font-family="Times,serif" font-size="14.00">reset_password_sent_at :timestamp without time zone</text>
<text text-anchor="start" x="832.5" y="-460.8" font-family="Times,serif" font-size="14.00">remember_created_at :timestamp without time zone</text>
<text text-anchor="start" x="832.5" y="-445.8" font-family="Times,serif" font-size="14.00">sign_in_count :integer</text>
<text text-anchor="start" x="832.5" y="-430.8" font-family="Times,serif" font-size="14.00">current_sign_in_at :timestamp without time zone</text>
<text text-anchor="start" x="832.5" y="-415.8" font-family="Times,serif" font-size="14.00">last_sign_in_at :timestamp without time zone</text>
<text text-anchor="start" x="832.5" y="-400.8" font-family="Times,serif" font-size="14.00">current_sign_in_ip :inet</text>
<text text-anchor="start" x="832.5" y="-385.8" font-family="Times,serif" font-size="14.00">last_sign_in_ip :inet</text>
<text text-anchor="start" x="832.5" y="-370.8" font-family="Times,serif" font-size="14.00">confirmation_token :character varying</text>
<text text-anchor="start" x="832.5" y="-355.8" font-family="Times,serif" font-size="14.00">confirmed_at :timestamp without time zone</text>
<text text-anchor="start" x="832.5" y="-340.8" font-family="Times,serif" font-size="14.00">confirmation_sent_at :timestamp without time zone</text>
<text text-anchor="start" x="832.5" y="-325.8" font-family="Times,serif" font-size="14.00">unconfirmed_email :character varying</text>
<text text-anchor="start" x="832.5" y="-310.8" font-family="Times,serif" font-size="14.00">failed_attempts :integer</text>
<text text-anchor="start" x="832.5" y="-295.8" font-family="Times,serif" font-size="14.00">unlock_token :character varying</text>
<text text-anchor="start" x="832.5" y="-280.8" font-family="Times,serif" font-size="14.00">locked_at :timestamp without time zone</text>
</g>
<!-- OrganisersContact -->
<g id="node6" class="node"><title>OrganisersContact</title>
<path fill="none" stroke="black" d="M243,-408C243,-408 463,-408 463,-408 469,-408 475,-414 475,-420 475,-420 475,-502 475,-502 475,-508 469,-514 463,-514 463,-514 243,-514 243,-514 237,-514 231,-508 231,-502 231,-502 231,-420 231,-420 231,-414 237,-408 243,-408"/>
<text text-anchor="middle" x="353" y="-498.8" font-family="Times,serif" font-size="14.00">OrganisersContact</text>
<polyline fill="none" stroke="black" points="231,-491 475,-491 "/>
<text text-anchor="start" x="239" y="-475.8" font-family="Times,serif" font-size="14.00">id :integer</text>
<text text-anchor="start" x="239" y="-460.8" font-family="Times,serif" font-size="14.00">name :character varying</text>
<text text-anchor="start" x="239" y="-445.8" font-family="Times,serif" font-size="14.00">created_at :timestamp without time zone</text>
<text text-anchor="start" x="239" y="-430.8" font-family="Times,serif" font-size="14.00">updated_at :timestamp without time zone</text>
<text text-anchor="start" x="239" y="-415.8" font-family="Times,serif" font-size="14.00">contact_id :integer</text>
</g>
<!-- OrganisersContact&#45;&gt;Contact -->
<g id="edge2" class="edge"><title>OrganisersContact&#45;&gt;Contact</title>
<path fill="none" stroke="#dcdb7a" d="M353,-399.892C353,-354.272 353,-291.732 353,-245.527"/>
<ellipse fill="none" stroke="#dcdb7a" cx="353" cy="-403.898" rx="4" ry="4"/>
<polygon fill="#dcdb7a" stroke="#dcdb7a" points="353,-245.338 357.5,-235.338 353,-240.338 353,-235.338 353,-235.338 353,-235.338 353,-240.338 348.5,-235.338 353,-245.338 353,-245.338"/>
</g>
<!-- Partner -->
<g id="node7" class="node"><title>Partner</title>
<path fill="none" stroke="black" d="M1167.5,-273C1167.5,-273 1456.5,-273 1456.5,-273 1462.5,-273 1468.5,-279 1468.5,-285 1468.5,-285 1468.5,-637 1468.5,-637 1468.5,-643 1462.5,-649 1456.5,-649 1456.5,-649 1167.5,-649 1167.5,-649 1161.5,-649 1155.5,-643 1155.5,-637 1155.5,-637 1155.5,-285 1155.5,-285 1155.5,-279 1161.5,-273 1167.5,-273"/>
<text text-anchor="middle" x="1312" y="-633.8" font-family="Times,serif" font-size="14.00">Partner</text>
<polyline fill="none" stroke="black" points="1155.5,-626 1468.5,-626 "/>
<text text-anchor="start" x="1163.5" y="-610.8" font-family="Times,serif" font-size="14.00">id :integer</text>
<text text-anchor="start" x="1163.5" y="-595.8" font-family="Times,serif" font-size="14.00">first_name :character varying</text>
<text text-anchor="start" x="1163.5" y="-580.8" font-family="Times,serif" font-size="14.00">last_name :character varying</text>
<text text-anchor="start" x="1163.5" y="-565.8" font-family="Times,serif" font-size="14.00">type :character varying</text>
<text text-anchor="start" x="1163.5" y="-550.8" font-family="Times,serif" font-size="14.00">created_at :timestamp without time zone</text>
<text text-anchor="start" x="1163.5" y="-535.8" font-family="Times,serif" font-size="14.00">updated_at :timestamp without time zone</text>
<text text-anchor="start" x="1163.5" y="-520.8" font-family="Times,serif" font-size="14.00">email :character varying</text>
<text text-anchor="start" x="1163.5" y="-505.8" font-family="Times,serif" font-size="14.00">encrypted_password :character varying</text>
<text text-anchor="start" x="1163.5" y="-490.8" font-family="Times,serif" font-size="14.00">reset_password_token :character varying</text>
<text text-anchor="start" x="1163.5" y="-475.8" font-family="Times,serif" font-size="14.00">reset_password_sent_at :timestamp without time zone</text>
<text text-anchor="start" x="1163.5" y="-460.8" font-family="Times,serif" font-size="14.00">remember_created_at :timestamp without time zone</text>
<text text-anchor="start" x="1163.5" y="-445.8" font-family="Times,serif" font-size="14.00">sign_in_count :integer</text>
<text text-anchor="start" x="1163.5" y="-430.8" font-family="Times,serif" font-size="14.00">current_sign_in_at :timestamp without time zone</text>
<text text-anchor="start" x="1163.5" y="-415.8" font-family="Times,serif" font-size="14.00">last_sign_in_at :timestamp without time zone</text>
<text text-anchor="start" x="1163.5" y="-400.8" font-family="Times,serif" font-size="14.00">current_sign_in_ip :inet</text>
<text text-anchor="start" x="1163.5" y="-385.8" font-family="Times,serif" font-size="14.00">last_sign_in_ip :inet</text>
<text text-anchor="start" x="1163.5" y="-370.8" font-family="Times,serif" font-size="14.00">confirmation_token :character varying</text>
<text text-anchor="start" x="1163.5" y="-355.8" font-family="Times,serif" font-size="14.00">confirmed_at :timestamp without time zone</text>
<text text-anchor="start" x="1163.5" y="-340.8" font-family="Times,serif" font-size="14.00">confirmation_sent_at :timestamp without time zone</text>
<text text-anchor="start" x="1163.5" y="-325.8" font-family="Times,serif" font-size="14.00">unconfirmed_email :character varying</text>
<text text-anchor="start" x="1163.5" y="-310.8" font-family="Times,serif" font-size="14.00">failed_attempts :integer</text>
<text text-anchor="start" x="1163.5" y="-295.8" font-family="Times,serif" font-size="14.00">unlock_token :character varying</text>
<text text-anchor="start" x="1163.5" y="-280.8" font-family="Times,serif" font-size="14.00">locked_at :timestamp without time zone</text>
</g>
<!-- Attendee -->
<g id="node8" class="node"><title>Attendee</title>
<path fill="none" stroke="black" d="M1498.5,-273C1498.5,-273 1787.5,-273 1787.5,-273 1793.5,-273 1799.5,-279 1799.5,-285 1799.5,-285 1799.5,-637 1799.5,-637 1799.5,-643 1793.5,-649 1787.5,-649 1787.5,-649 1498.5,-649 1498.5,-649 1492.5,-649 1486.5,-643 1486.5,-637 1486.5,-637 1486.5,-285 1486.5,-285 1486.5,-279 1492.5,-273 1498.5,-273"/>
<text text-anchor="middle" x="1643" y="-633.8" font-family="Times,serif" font-size="14.00">Attendee</text>
<polyline fill="none" stroke="black" points="1486.5,-626 1799.5,-626 "/>
<text text-anchor="start" x="1494.5" y="-610.8" font-family="Times,serif" font-size="14.00">id :integer</text>
<text text-anchor="start" x="1494.5" y="-595.8" font-family="Times,serif" font-size="14.00">first_name :character varying</text>
<text text-anchor="start" x="1494.5" y="-580.8" font-family="Times,serif" font-size="14.00">last_name :character varying</text>
<text text-anchor="start" x="1494.5" y="-565.8" font-family="Times,serif" font-size="14.00">type :character varying</text>
<text text-anchor="start" x="1494.5" y="-550.8" font-family="Times,serif" font-size="14.00">created_at :timestamp without time zone</text>
<text text-anchor="start" x="1494.5" y="-535.8" font-family="Times,serif" font-size="14.00">updated_at :timestamp without time zone</text>
<text text-anchor="start" x="1494.5" y="-520.8" font-family="Times,serif" font-size="14.00">email :character varying</text>
<text text-anchor="start" x="1494.5" y="-505.8" font-family="Times,serif" font-size="14.00">encrypted_password :character varying</text>
<text text-anchor="start" x="1494.5" y="-490.8" font-family="Times,serif" font-size="14.00">reset_password_token :character varying</text>
<text text-anchor="start" x="1494.5" y="-475.8" font-family="Times,serif" font-size="14.00">reset_password_sent_at :timestamp without time zone</text>
<text text-anchor="start" x="1494.5" y="-460.8" font-family="Times,serif" font-size="14.00">remember_created_at :timestamp without time zone</text>
<text text-anchor="start" x="1494.5" y="-445.8" font-family="Times,serif" font-size="14.00">sign_in_count :integer</text>
<text text-anchor="start" x="1494.5" y="-430.8" font-family="Times,serif" font-size="14.00">current_sign_in_at :timestamp without time zone</text>
<text text-anchor="start" x="1494.5" y="-415.8" font-family="Times,serif" font-size="14.00">last_sign_in_at :timestamp without time zone</text>
<text text-anchor="start" x="1494.5" y="-400.8" font-family="Times,serif" font-size="14.00">current_sign_in_ip :inet</text>
<text text-anchor="start" x="1494.5" y="-385.8" font-family="Times,serif" font-size="14.00">last_sign_in_ip :inet</text>
<text text-anchor="start" x="1494.5" y="-370.8" font-family="Times,serif" font-size="14.00">confirmation_token :character varying</text>
<text text-anchor="start" x="1494.5" y="-355.8" font-family="Times,serif" font-size="14.00">confirmed_at :timestamp without time zone</text>
<text text-anchor="start" x="1494.5" y="-340.8" font-family="Times,serif" font-size="14.00">confirmation_sent_at :timestamp without time zone</text>
<text text-anchor="start" x="1494.5" y="-325.8" font-family="Times,serif" font-size="14.00">unconfirmed_email :character varying</text>
<text text-anchor="start" x="1494.5" y="-310.8" font-family="Times,serif" font-size="14.00">failed_attempts :integer</text>
<text text-anchor="start" x="1494.5" y="-295.8" font-family="Times,serif" font-size="14.00">unlock_token :character varying</text>
<text text-anchor="start" x="1494.5" y="-280.8" font-family="Times,serif" font-size="14.00">locked_at :timestamp without time zone</text>
</g>
</g>
</svg>
