<?xml version="1.0" encoding="UTF-8" standalone="no"?>
<!DOCTYPE svg PUBLIC "-//W3C//DTD SVG 1.1//EN"
 "http://www.w3.org/Graphics/SVG/1.1/DTD/svg11.dtd">
<!-- Generated by graphviz version 2.36.0 (20140111.2315)
 -->
<!-- Title: models_diagram Pages: 1 -->
<svg width="2071pt" height="688pt"
 viewBox="0.00 0.00 2071.00 688.00" xmlns="http://www.w3.org/2000/svg" xmlns:xlink="http://www.w3.org/1999/xlink">
<g id="graph0" class="graph" transform="scale(1 1) rotate(0) translate(4 684)">
<title>models_diagram</title>
<polygon fill="none" stroke="none" points="-4,4 -4,-684 2067,-684 2067,4 -4,4"/>
<!-- _diagram_info -->
<g id="node1" class="node"><title>_diagram_info</title>
<text text-anchor="start" x="8" y="-515.6" font-family="Times,serif" font-size="13.00">Models diagram</text>
<text text-anchor="start" x="8" y="-501.6" font-family="Times,serif" font-size="13.00">Date: Nov 19 2015 &#45; 08:48</text>
<text text-anchor="start" x="8" y="-487.6" font-family="Times,serif" font-size="13.00">Migration version: 20151119064657</text>
<text text-anchor="start" x="8" y="-473.6" font-family="Times,serif" font-size="13.00">Generated by RailRoady 1.4.1</text>
<text text-anchor="start" x="8" y="-459.6" font-family="Times,serif" font-size="13.00">http://railroady.prestonlee.com</text>
</g>
<!-- ContactType -->
<g id="node2" class="node"><title>ContactType</title>
<path fill="none" stroke="black" d="M244,-1C244,-1 464,-1 464,-1 470,-1 476,-7 476,-13 476,-13 476,-95 476,-95 476,-101 470,-107 464,-107 464,-107 244,-107 244,-107 238,-107 232,-101 232,-95 232,-95 232,-13 232,-13 232,-7 238,-1 244,-1"/>
<text text-anchor="middle" x="354" y="-91.8" font-family="Times,serif" font-size="14.00">ContactType</text>
<polyline fill="none" stroke="black" points="232,-84 476,-84 "/>
<text text-anchor="start" x="240" y="-68.8" font-family="Times,serif" font-size="14.00">id :integer</text>
<text text-anchor="start" x="240" y="-53.8" font-family="Times,serif" font-size="14.00">name :character varying</text>
<text text-anchor="start" x="240" y="-38.8" font-family="Times,serif" font-size="14.00">contact_id :integer</text>
<text text-anchor="start" x="240" y="-23.8" font-family="Times,serif" font-size="14.00">created_at :timestamp without time zone</text>
<text text-anchor="start" x="240" y="-8.8" font-family="Times,serif" font-size="14.00">updated_at :timestamp without time zone</text>
</g>
<!-- Contact -->
<g id="node3" class="node"><title>Contact</title>
<path fill="none" stroke="black" d="M244,-152C244,-152 464,-152 464,-152 470,-152 476,-158 476,-164 476,-164 476,-246 476,-246 476,-252 470,-258 464,-258 464,-258 244,-258 244,-258 238,-258 232,-252 232,-246 232,-246 232,-164 232,-164 232,-158 238,-152 244,-152"/>
<text text-anchor="middle" x="354" y="-242.8" font-family="Times,serif" font-size="14.00">Contact</text>
<polyline fill="none" stroke="black" points="232,-235 476,-235 "/>
<text text-anchor="start" x="240" y="-219.8" font-family="Times,serif" font-size="14.00">id :integer</text>
<text text-anchor="start" x="240" y="-204.8" font-family="Times,serif" font-size="14.00">contact :character varying</text>
<text text-anchor="start" x="240" y="-189.8" font-family="Times,serif" font-size="14.00">organisers_contact_id :integer</text>
<text text-anchor="start" x="240" y="-174.8" font-family="Times,serif" font-size="14.00">created_at :timestamp without time zone</text>
<text text-anchor="start" x="240" y="-159.8" font-family="Times,serif" font-size="14.00">updated_at :timestamp without time zone</text>
</g>
<!-- Contact&#45;&gt;ContactType -->
<g id="edge1" class="edge"><title>Contact&#45;&gt;ContactType</title>
<path fill="none" stroke="#f33bf4" d="M354,-143.605C354,-134.242 354,-124.571 354,-115.212"/>
<ellipse fill="none" stroke="#f33bf4" cx="354" cy="-147.887" rx="4" ry="4"/>
<ellipse fill="#f33bf4" stroke="#f33bf4" cx="354" cy="-111.084" rx="4" ry="4"/>
</g>
<!-- User -->
<g id="node4" class="node"><title>User</title>
<path fill="none" stroke="black" d="M506.5,-303C506.5,-303 795.5,-303 795.5,-303 801.5,-303 807.5,-309 807.5,-315 807.5,-315 807.5,-667 807.5,-667 807.5,-673 801.5,-679 795.5,-679 795.5,-679 506.5,-679 506.5,-679 500.5,-679 494.5,-673 494.5,-667 494.5,-667 494.5,-315 494.5,-315 494.5,-309 500.5,-303 506.5,-303"/>
<text text-anchor="middle" x="651" y="-663.8" font-family="Times,serif" font-size="14.00">User</text>
<polyline fill="none" stroke="black" points="494.5,-656 807.5,-656 "/>
<text text-anchor="start" x="502.5" y="-640.8" font-family="Times,serif" font-size="14.00">id :integer</text>
<text text-anchor="start" x="502.5" y="-625.8" font-family="Times,serif" font-size="14.00">first_name :character varying</text>
<text text-anchor="start" x="502.5" y="-610.8" font-family="Times,serif" font-size="14.00">last_name :character varying</text>
<text text-anchor="start" x="502.5" y="-595.8" font-family="Times,serif" font-size="14.00">type :character varying</text>
<text text-anchor="start" x="502.5" y="-580.8" font-family="Times,serif" font-size="14.00">created_at :timestamp without time zone</text>
<text text-anchor="start" x="502.5" y="-565.8" font-family="Times,serif" font-size="14.00">updated_at :timestamp without time zone</text>
<text text-anchor="start" x="502.5" y="-550.8" font-family="Times,serif" font-size="14.00">email :character varying</text>
<text text-anchor="start" x="502.5" y="-535.8" font-family="Times,serif" font-size="14.00">encrypted_password :character varying</text>
<text text-anchor="start" x="502.5" y="-520.8" font-family="Times,serif" font-size="14.00">reset_password_token :character varying</text>
<text text-anchor="start" x="502.5" y="-505.8" font-family="Times,serif" font-size="14.00">reset_password_sent_at :timestamp without time zone</text>
<text text-anchor="start" x="502.5" y="-490.8" font-family="Times,serif" font-size="14.00">remember_created_at :timestamp without time zone</text>
<text text-anchor="start" x="502.5" y="-475.8" font-family="Times,serif" font-size="14.00">sign_in_count :integer</text>
<text text-anchor="start" x="502.5" y="-460.8" font-family="Times,serif" font-size="14.00">current_sign_in_at :timestamp without time zone</text>
<text text-anchor="start" x="502.5" y="-445.8" font-family="Times,serif" font-size="14.00">last_sign_in_at :timestamp without time zone</text>
<text text-anchor="start" x="502.5" y="-430.8" font-family="Times,serif" font-size="14.00">current_sign_in_ip :inet</text>
<text text-anchor="start" x="502.5" y="-415.8" font-family="Times,serif" font-size="14.00">last_sign_in_ip :inet</text>
<text text-anchor="start" x="502.5" y="-400.8" font-family="Times,serif" font-size="14.00">confirmation_token :character varying</text>
<text text-anchor="start" x="502.5" y="-385.8" font-family="Times,serif" font-size="14.00">confirmed_at :timestamp without time zone</text>
<text text-anchor="start" x="502.5" y="-370.8" font-family="Times,serif" font-size="14.00">confirmation_sent_at :timestamp without time zone</text>
<text text-anchor="start" x="502.5" y="-355.8" font-family="Times,serif" font-size="14.00">unconfirmed_email :character varying</text>
<text text-anchor="start" x="502.5" y="-340.8" font-family="Times,serif" font-size="14.00">failed_attempts :integer</text>
<text text-anchor="start" x="502.5" y="-325.8" font-family="Times,serif" font-size="14.00">unlock_token :character varying</text>
<text text-anchor="start" x="502.5" y="-310.8" font-family="Times,serif" font-size="14.00">locked_at :timestamp without time zone</text>
</g>
<!-- Speaker -->
<g id="node5" class="node"><title>Speaker</title>
<path fill="none" stroke="black" d="M837.5,-303C837.5,-303 1126.5,-303 1126.5,-303 1132.5,-303 1138.5,-309 1138.5,-315 1138.5,-315 1138.5,-667 1138.5,-667 1138.5,-673 1132.5,-679 1126.5,-679 1126.5,-679 837.5,-679 837.5,-679 831.5,-679 825.5,-673 825.5,-667 825.5,-667 825.5,-315 825.5,-315 825.5,-309 831.5,-303 837.5,-303"/>
<text text-anchor="middle" x="982" y="-663.8" font-family="Times,serif" font-size="14.00">Speaker</text>
<polyline fill="none" stroke="black" points="825.5,-656 1138.5,-656 "/>
<text text-anchor="start" x="833.5" y="-640.8" font-family="Times,serif" font-size="14.00">id :integer</text>
<text text-anchor="start" x="833.5" y="-625.8" font-family="Times,serif" font-size="14.00">first_name :character varying</text>
<text text-anchor="start" x="833.5" y="-610.8" font-family="Times,serif" font-size="14.00">last_name :character varying</text>
<text text-anchor="start" x="833.5" y="-595.8" font-family="Times,serif" font-size="14.00">type :character varying</text>
<text text-anchor="start" x="833.5" y="-580.8" font-family="Times,serif" font-size="14.00">created_at :timestamp without time zone</text>
<text text-anchor="start" x="833.5" y="-565.8" font-family="Times,serif" font-size="14.00">updated_at :timestamp without time zone</text>
<text text-anchor="start" x="833.5" y="-550.8" font-family="Times,serif" font-size="14.00">email :character varying</text>
<text text-anchor="start" x="833.5" y="-535.8" font-family="Times,serif" font-size="14.00">encrypted_password :character varying</text>
<text text-anchor="start" x="833.5" y="-520.8" font-family="Times,serif" font-size="14.00">reset_password_token :character varying</text>
<text text-anchor="start" x="833.5" y="-505.8" font-family="Times,serif" font-size="14.00">reset_password_sent_at :timestamp without time zone</text>
<text text-anchor="start" x="833.5" y="-490.8" font-family="Times,serif" font-size="14.00">remember_created_at :timestamp without time zone</text>
<text text-anchor="start" x="833.5" y="-475.8" font-family="Times,serif" font-size="14.00">sign_in_count :integer</text>
<text text-anchor="start" x="833.5" y="-460.8" font-family="Times,serif" font-size="14.00">current_sign_in_at :timestamp without time zone</text>
<text text-anchor="start" x="833.5" y="-445.8" font-family="Times,serif" font-size="14.00">last_sign_in_at :timestamp without time zone</text>
<text text-anchor="start" x="833.5" y="-430.8" font-family="Times,serif" font-size="14.00">current_sign_in_ip :inet</text>
<text text-anchor="start" x="833.5" y="-415.8" font-family="Times,serif" font-size="14.00">last_sign_in_ip :inet</text>
<text text-anchor="start" x="833.5" y="-400.8" font-family="Times,serif" font-size="14.00">confirmation_token :character varying</text>
<text text-anchor="start" x="833.5" y="-385.8" font-family="Times,serif" font-size="14.00">confirmed_at :timestamp without time zone</text>
<text text-anchor="start" x="833.5" y="-370.8" font-family="Times,serif" font-size="14.00">confirmation_sent_at :timestamp without time zone</text>
<text text-anchor="start" x="833.5" y="-355.8" font-family="Times,serif" font-size="14.00">unconfirmed_email :character varying</text>
<text text-anchor="start" x="833.5" y="-340.8" font-family="Times,serif" font-size="14.00">failed_attempts :integer</text>
<text text-anchor="start" x="833.5" y="-325.8" font-family="Times,serif" font-size="14.00">unlock_token :character varying</text>
<text text-anchor="start" x="833.5" y="-310.8" font-family="Times,serif" font-size="14.00">locked_at :timestamp without time zone</text>
</g>
<!-- PartnershipPlan -->
<g id="node6" class="node"><title>PartnershipPlan</title>
<path fill="none" stroke="black" d="M1169,-438C1169,-438 1389,-438 1389,-438 1395,-438 1401,-444 1401,-450 1401,-450 1401,-532 1401,-532 1401,-538 1395,-544 1389,-544 1389,-544 1169,-544 1169,-544 1163,-544 1157,-538 1157,-532 1157,-532 1157,-450 1157,-450 1157,-444 1163,-438 1169,-438"/>
<text text-anchor="middle" x="1279" y="-528.8" font-family="Times,serif" font-size="14.00">PartnershipPlan</text>
<polyline fill="none" stroke="black" points="1157,-521 1401,-521 "/>
<text text-anchor="start" x="1165" y="-505.8" font-family="Times,serif" font-size="14.00">id :integer</text>
<text text-anchor="start" x="1165" y="-490.8" font-family="Times,serif" font-size="14.00">name :character varying</text>
<text text-anchor="start" x="1165" y="-475.8" font-family="Times,serif" font-size="14.00">description :text</text>
<text text-anchor="start" x="1165" y="-460.8" font-family="Times,serif" font-size="14.00">created_at :timestamp without time zone</text>
<text text-anchor="start" x="1165" y="-445.8" font-family="Times,serif" font-size="14.00">updated_at :timestamp without time zone</text>
</g>
<!-- PartnershipPerk -->
<g id="node9" class="node"><title>PartnershipPerk</title>
<path fill="none" stroke="black" d="M1169,-144.5C1169,-144.5 1389,-144.5 1389,-144.5 1395,-144.5 1401,-150.5 1401,-156.5 1401,-156.5 1401,-253.5 1401,-253.5 1401,-259.5 1395,-265.5 1389,-265.5 1389,-265.5 1169,-265.5 1169,-265.5 1163,-265.5 1157,-259.5 1157,-253.5 1157,-253.5 1157,-156.5 1157,-156.5 1157,-150.5 1163,-144.5 1169,-144.5"/>
<text text-anchor="middle" x="1279" y="-250.3" font-family="Times,serif" font-size="14.00">PartnershipPerk</text>
<polyline fill="none" stroke="black" points="1157,-242.5 1401,-242.5 "/>
<text text-anchor="start" x="1165" y="-227.3" font-family="Times,serif" font-size="14.00">id :integer</text>
<text text-anchor="start" x="1165" y="-212.3" font-family="Times,serif" font-size="14.00">name :character varying</text>
<text text-anchor="start" x="1165" y="-197.3" font-family="Times,serif" font-size="14.00">description :text</text>
<text text-anchor="start" x="1165" y="-182.3" font-family="Times,serif" font-size="14.00">partnership_plan_id :integer</text>
<text text-anchor="start" x="1165" y="-167.3" font-family="Times,serif" font-size="14.00">created_at :timestamp without time zone</text>
<text text-anchor="start" x="1165" y="-152.3" font-family="Times,serif" font-size="14.00">updated_at :timestamp without time zone</text>
</g>
<!-- PartnershipPlan&#45;&gt;PartnershipPerk -->
<g id="edge2" class="edge"><title>PartnershipPlan&#45;&gt;PartnershipPerk</title>
<path fill="none" stroke="#e5baca" d="M1279,-429.716C1279,-384.657 1279,-322.956 1279,-275.764"/>
<ellipse fill="none" stroke="#e5baca" cx="1279" cy="-433.91" rx="4" ry="4"/>
<polygon fill="#e5baca" stroke="#e5baca" points="1279,-275.622 1283.5,-265.622 1279,-270.622 1279,-265.622 1279,-265.622 1279,-265.622 1279,-270.622 1274.5,-265.622 1279,-275.622 1279,-275.622"/>
</g>
<!-- OrganisersContact -->
<g id="node7" class="node"><title>OrganisersContact</title>
<path fill="none" stroke="black" d="M244,-445.5C244,-445.5 464,-445.5 464,-445.5 470,-445.5 476,-451.5 476,-457.5 476,-457.5 476,-524.5 476,-524.5 476,-530.5 470,-536.5 464,-536.5 464,-536.5 244,-536.5 244,-536.5 238,-536.5 232,-530.5 232,-524.5 232,-524.5 232,-457.5 232,-457.5 232,-451.5 238,-445.5 244,-445.5"/>
<text text-anchor="middle" x="354" y="-521.3" font-family="Times,serif" font-size="14.00">OrganisersContact</text>
<polyline fill="none" stroke="black" points="232,-513.5 476,-513.5 "/>
<text text-anchor="start" x="240" y="-498.3" font-family="Times,serif" font-size="14.00">id :integer</text>
<text text-anchor="start" x="240" y="-483.3" font-family="Times,serif" font-size="14.00">name :character varying</text>
<text text-anchor="start" x="240" y="-468.3" font-family="Times,serif" font-size="14.00">created_at :timestamp without time zone</text>
<text text-anchor="start" x="240" y="-453.3" font-family="Times,serif" font-size="14.00">updated_at :timestamp without time zone</text>
</g>
<!-- OrganisersContact&#45;&gt;Contact -->
<g id="edge3" class="edge"><title>OrganisersContact&#45;&gt;Contact</title>
<path fill="none" stroke="#abee35" d="M354,-437.023C354,-389.194 354,-318.782 354,-268.276"/>
<ellipse fill="none" stroke="#abee35" cx="354" cy="-441.313" rx="4" ry="4"/>
<polygon fill="#abee35" stroke="#abee35" points="354,-268.135 358.5,-258.134 354,-263.135 354,-258.135 354,-258.135 354,-258.135 354,-263.135 349.5,-258.135 354,-268.135 354,-268.135"/>
</g>
<!-- Partner -->
<g id="node8" class="node"><title>Partner</title>
<path fill="none" stroke="black" d="M1431.5,-303C1431.5,-303 1720.5,-303 1720.5,-303 1726.5,-303 1732.5,-309 1732.5,-315 1732.5,-315 1732.5,-667 1732.5,-667 1732.5,-673 1726.5,-679 1720.5,-679 1720.5,-679 1431.5,-679 1431.5,-679 1425.5,-679 1419.5,-673 1419.5,-667 1419.5,-667 1419.5,-315 1419.5,-315 1419.5,-309 1425.5,-303 1431.5,-303"/>
<text text-anchor="middle" x="1576" y="-663.8" font-family="Times,serif" font-size="14.00">Partner</text>
<polyline fill="none" stroke="black" points="1419.5,-656 1732.5,-656 "/>
<text text-anchor="start" x="1427.5" y="-640.8" font-family="Times,serif" font-size="14.00">id :integer</text>
<text text-anchor="start" x="1427.5" y="-625.8" font-family="Times,serif" font-size="14.00">first_name :character varying</text>
<text text-anchor="start" x="1427.5" y="-610.8" font-family="Times,serif" font-size="14.00">last_name :character varying</text>
<text text-anchor="start" x="1427.5" y="-595.8" font-family="Times,serif" font-size="14.00">type :character varying</text>
<text text-anchor="start" x="1427.5" y="-580.8" font-family="Times,serif" font-size="14.00">created_at :timestamp without time zone</text>
<text text-anchor="start" x="1427.5" y="-565.8" font-family="Times,serif" font-size="14.00">updated_at :timestamp without time zone</text>
<text text-anchor="start" x="1427.5" y="-550.8" font-family="Times,serif" font-size="14.00">email :character varying</text>
<text text-anchor="start" x="1427.5" y="-535.8" font-family="Times,serif" font-size="14.00">encrypted_password :character varying</text>
<text text-anchor="start" x="1427.5" y="-520.8" font-family="Times,serif" font-size="14.00">reset_password_token :character varying</text>
<text text-anchor="start" x="1427.5" y="-505.8" font-family="Times,serif" font-size="14.00">reset_password_sent_at :timestamp without time zone</text>
<text text-anchor="start" x="1427.5" y="-490.8" font-family="Times,serif" font-size="14.00">remember_created_at :timestamp without time zone</text>
<text text-anchor="start" x="1427.5" y="-475.8" font-family="Times,serif" font-size="14.00">sign_in_count :integer</text>
<text text-anchor="start" x="1427.5" y="-460.8" font-family="Times,serif" font-size="14.00">current_sign_in_at :timestamp without time zone</text>
<text text-anchor="start" x="1427.5" y="-445.8" font-family="Times,serif" font-size="14.00">last_sign_in_at :timestamp without time zone</text>
<text text-anchor="start" x="1427.5" y="-430.8" font-family="Times,serif" font-size="14.00">current_sign_in_ip :inet</text>
<text text-anchor="start" x="1427.5" y="-415.8" font-family="Times,serif" font-size="14.00">last_sign_in_ip :inet</text>
<text text-anchor="start" x="1427.5" y="-400.8" font-family="Times,serif" font-size="14.00">confirmation_token :character varying</text>
<text text-anchor="start" x="1427.5" y="-385.8" font-family="Times,serif" font-size="14.00">confirmed_at :timestamp without time zone</text>
<text text-anchor="start" x="1427.5" y="-370.8" font-family="Times,serif" font-size="14.00">confirmation_sent_at :timestamp without time zone</text>
<text text-anchor="start" x="1427.5" y="-355.8" font-family="Times,serif" font-size="14.00">unconfirmed_email :character varying</text>
<text text-anchor="start" x="1427.5" y="-340.8" font-family="Times,serif" font-size="14.00">failed_attempts :integer</text>
<text text-anchor="start" x="1427.5" y="-325.8" font-family="Times,serif" font-size="14.00">unlock_token :character varying</text>
<text text-anchor="start" x="1427.5" y="-310.8" font-family="Times,serif" font-size="14.00">locked_at :timestamp without time zone</text>
</g>
<!-- Attendee -->
<g id="node10" class="node"><title>Attendee</title>
<path fill="none" stroke="black" d="M1762.5,-303C1762.5,-303 2051.5,-303 2051.5,-303 2057.5,-303 2063.5,-309 2063.5,-315 2063.5,-315 2063.5,-667 2063.5,-667 2063.5,-673 2057.5,-679 2051.5,-679 2051.5,-679 1762.5,-679 1762.5,-679 1756.5,-679 1750.5,-673 1750.5,-667 1750.5,-667 1750.5,-315 1750.5,-315 1750.5,-309 1756.5,-303 1762.5,-303"/>
<text text-anchor="middle" x="1907" y="-663.8" font-family="Times,serif" font-size="14.00">Attendee</text>
<polyline fill="none" stroke="black" points="1750.5,-656 2063.5,-656 "/>
<text text-anchor="start" x="1758.5" y="-640.8" font-family="Times,serif" font-size="14.00">id :integer</text>
<text text-anchor="start" x="1758.5" y="-625.8" font-family="Times,serif" font-size="14.00">first_name :character varying</text>
<text text-anchor="start" x="1758.5" y="-610.8" font-family="Times,serif" font-size="14.00">last_name :character varying</text>
<text text-anchor="start" x="1758.5" y="-595.8" font-family="Times,serif" font-size="14.00">type :character varying</text>
<text text-anchor="start" x="1758.5" y="-580.8" font-family="Times,serif" font-size="14.00">created_at :timestamp without time zone</text>
<text text-anchor="start" x="1758.5" y="-565.8" font-family="Times,serif" font-size="14.00">updated_at :timestamp without time zone</text>
<text text-anchor="start" x="1758.5" y="-550.8" font-family="Times,serif" font-size="14.00">email :character varying</text>
<text text-anchor="start" x="1758.5" y="-535.8" font-family="Times,serif" font-size="14.00">encrypted_password :character varying</text>
<text text-anchor="start" x="1758.5" y="-520.8" font-family="Times,serif" font-size="14.00">reset_password_token :character varying</text>
<text text-anchor="start" x="1758.5" y="-505.8" font-family="Times,serif" font-size="14.00">reset_password_sent_at :timestamp without time zone</text>
<text text-anchor="start" x="1758.5" y="-490.8" font-family="Times,serif" font-size="14.00">remember_created_at :timestamp without time zone</text>
<text text-anchor="start" x="1758.5" y="-475.8" font-family="Times,serif" font-size="14.00">sign_in_count :integer</text>
<text text-anchor="start" x="1758.5" y="-460.8" font-family="Times,serif" font-size="14.00">current_sign_in_at :timestamp without time zone</text>
<text text-anchor="start" x="1758.5" y="-445.8" font-family="Times,serif" font-size="14.00">last_sign_in_at :timestamp without time zone</text>
<text text-anchor="start" x="1758.5" y="-430.8" font-family="Times,serif" font-size="14.00">current_sign_in_ip :inet</text>
<text text-anchor="start" x="1758.5" y="-415.8" font-family="Times,serif" font-size="14.00">last_sign_in_ip :inet</text>
<text text-anchor="start" x="1758.5" y="-400.8" font-family="Times,serif" font-size="14.00">confirmation_token :character varying</text>
<text text-anchor="start" x="1758.5" y="-385.8" font-family="Times,serif" font-size="14.00">confirmed_at :timestamp without time zone</text>
<text text-anchor="start" x="1758.5" y="-370.8" font-family="Times,serif" font-size="14.00">confirmation_sent_at :timestamp without time zone</text>
<text text-anchor="start" x="1758.5" y="-355.8" font-family="Times,serif" font-size="14.00">unconfirmed_email :character varying</text>
<text text-anchor="start" x="1758.5" y="-340.8" font-family="Times,serif" font-size="14.00">failed_attempts :integer</text>
<text text-anchor="start" x="1758.5" y="-325.8" font-family="Times,serif" font-size="14.00">unlock_token :character varying</text>
<text text-anchor="start" x="1758.5" y="-310.8" font-family="Times,serif" font-size="14.00">locked_at :timestamp without time zone</text>
</g>
</g>
</svg>
