<?xml version="1.0" encoding="UTF-8" standalone="no"?>
<!DOCTYPE svg PUBLIC "-//W3C//DTD SVG 1.1//EN"
 "http://www.w3.org/Graphics/SVG/1.1/DTD/svg11.dtd">
<!-- Generated by graphviz version 2.36.0 (20140111.2315)
 -->
<!-- Title: models_diagram Pages: 1 -->
<svg width="879pt" height="322pt"
 viewBox="0.00 0.00 879.00 322.00" xmlns="http://www.w3.org/2000/svg" xmlns:xlink="http://www.w3.org/1999/xlink">
<g id="graph0" class="graph" transform="scale(1 1) rotate(0) translate(4 318)">
<title>models_diagram</title>
<polygon fill="none" stroke="none" points="-4,4 -4,-318 875,-318 875,4 -4,4"/>
<!-- _diagram_info -->
<g id="node1" class="node"><title>_diagram_info</title>
<text text-anchor="start" x="8" y="-299.6" font-family="Times,serif" font-size="13.00">Models diagram</text>
<text text-anchor="start" x="8" y="-285.6" font-family="Times,serif" font-size="13.00">Date: Nov 19 2015 &#45; 12:40</text>
<text text-anchor="start" x="8" y="-271.6" font-family="Times,serif" font-size="13.00">Migration version: 20151119102638</text>
<text text-anchor="start" x="8" y="-257.6" font-family="Times,serif" font-size="13.00">Generated by RailRoady 1.4.1</text>
<text text-anchor="start" x="8" y="-243.6" font-family="Times,serif" font-size="13.00">http://railroady.prestonlee.com</text>
</g>
<!-- ContactType -->
<g id="node2" class="node"><title>ContactType</title>
<ellipse fill="none" stroke="black" cx="308" cy="-92" rx="55.3436" ry="18"/>
<text text-anchor="middle" x="308" y="-88.3" font-family="Times,serif" font-size="14.00">ContactType</text>
</g>
<!-- Contact -->
<g id="node3" class="node"><title>Contact</title>
<ellipse fill="none" stroke="black" cx="308" cy="-180" rx="38.0212" ry="18"/>
<text text-anchor="middle" x="308" y="-176.3" font-family="Times,serif" font-size="14.00">Contact</text>
</g>
<!-- Contact&#45;&gt;ContactType -->
<g id="edge1" class="edge"><title>Contact&#45;&gt;ContactType</title>
<path fill="none" stroke="#f83422" d="M308,-153.339C308,-142.199 308,-129.195 308,-118.117"/>
<ellipse fill="none" stroke="#f83422" cx="308" cy="-157.597" rx="4" ry="4"/>
<ellipse fill="#f83422" stroke="#f83422" cx="308" cy="-114.084" rx="4" ry="4"/>
</g>
<!-- Conference -->
<g id="node4" class="node"><title>Conference</title>
<ellipse fill="none" stroke="black" cx="562" cy="-180" rx="51.0191" ry="18"/>
<text text-anchor="middle" x="562" y="-176.3" font-family="Times,serif" font-size="14.00">Conference</text>
</g>
<!-- User -->
<g id="node5" class="node"><title>User</title>
<ellipse fill="none" stroke="black" cx="573" cy="-92" rx="26.949" ry="18"/>
<text text-anchor="middle" x="573" y="-88.3" font-family="Times,serif" font-size="14.00">User</text>
</g>
<!-- Conference&#45;&gt;User -->
<g id="edge2" class="edge"><title>Conference&#45;&gt;User</title>
<path fill="none" stroke="#6500b6" d="M598.492,-158.478C603.127,-154.301 607.215,-149.477 610,-144 615.768,-132.655 608.651,-121.089 599.17,-111.845"/>
<polygon fill="#6500b6" stroke="#6500b6" points="598.177,-158.725 587.533,-161.36 594.244,-161.812 590.311,-164.9 590.311,-164.9 590.311,-164.9 594.244,-161.812 593.09,-168.439 598.177,-158.725 598.177,-158.725"/>
<polygon fill="#6500b6" stroke="#6500b6" points="599.169,-111.844 594.591,-101.88 595.401,-108.558 591.633,-105.271 591.633,-105.271 591.633,-105.271 595.401,-108.558 588.675,-108.663 599.169,-111.844 599.169,-111.844"/>
<text text-anchor="middle" x="637.5" y="-132.3" font-family="Times,serif" font-size="14.00">attendees</text>
</g>
<!-- Conference&#45;&gt;User -->
<g id="edge3" class="edge"><title>Conference&#45;&gt;User</title>
<path fill="none" stroke="#ad34c7" d="M516.867,-162.934C499.94,-154.226 486.787,-142.307 496,-128 505.13,-113.821 521.565,-105.32 536.913,-100.256"/>
<polygon fill="#ad34c7" stroke="#ad34c7" points="516.906,-162.953 524.056,-171.267 521.435,-165.072 525.964,-167.191 525.964,-167.191 525.964,-167.191 521.435,-165.072 527.871,-163.115 516.906,-162.953 516.906,-162.953"/>
<polygon fill="#ad34c7" stroke="#ad34c7" points="537.15,-100.187 548.008,-101.721 541.952,-98.7934 546.754,-97.3995 546.754,-97.3995 546.754,-97.3995 541.952,-98.7934 545.499,-93.0779 537.15,-100.187 537.15,-100.187"/>
<text text-anchor="middle" x="518" y="-132.3" font-family="Times,serif" font-size="14.00">partners</text>
</g>
<!-- Conference&#45;&gt;User -->
<g id="edge4" class="edge"><title>Conference&#45;&gt;User</title>
<path fill="none" stroke="#f1523b" d="M557.913,-151.838C557.417,-144.086 557.524,-135.664 559,-128 559.587,-124.949 560.438,-121.827 561.435,-118.764"/>
<polygon fill="#f1523b" stroke="#f1523b" points="557.92,-151.908 554.411,-162.298 558.405,-156.885 558.89,-161.861 558.89,-161.861 558.89,-161.861 558.405,-156.885 563.369,-161.424 557.92,-151.908 557.92,-151.908"/>
<polygon fill="#f1523b" stroke="#f1523b" points="561.457,-118.705 569.183,-110.924 563.213,-114.024 564.97,-109.343 564.97,-109.343 564.97,-109.343 563.213,-114.024 560.757,-107.762 561.457,-118.705 561.457,-118.705"/>
<text text-anchor="middle" x="582.5" y="-132.3" font-family="Times,serif" font-size="14.00">speakers</text>
</g>
<!-- Feedback -->
<g id="node8" class="node"><title>Feedback</title>
<ellipse fill="none" stroke="black" cx="731" cy="-18" rx="44.2946" ry="18"/>
<text text-anchor="middle" x="731" y="-14.3" font-family="Times,serif" font-size="14.00">Feedback</text>
</g>
<!-- User&#45;&gt;Feedback -->
<g id="edge5" class="edge"><title>User&#45;&gt;Feedback</title>
<path fill="none" stroke="#a64ce8" d="M602.27,-77.6617C627.876,-65.9934 665.228,-48.9722 693.109,-36.2666"/>
<ellipse fill="none" stroke="#a64ce8" cx="598.609" cy="-79.33" rx="4.00002" ry="4.00002"/>
<polygon fill="#a64ce8" stroke="#a64ce8" points="693.442,-36.1151 704.408,-36.0632 697.992,-34.0417 702.542,-31.9683 702.542,-31.9683 702.542,-31.9683 697.992,-34.0417 700.676,-27.8734 693.442,-36.1151 693.442,-36.1151"/>
</g>
<!-- Speaker -->
<g id="node6" class="node"><title>Speaker</title>
<ellipse fill="none" stroke="black" cx="456" cy="-275" rx="38.4949" ry="18"/>
<text text-anchor="middle" x="456" y="-271.3" font-family="Times,serif" font-size="14.00">Speaker</text>
</g>
<!-- Speaker&#45;&gt;Conference -->
<g id="edge7" class="edge"><title>Speaker&#45;&gt;Conference</title>
<path fill="none" stroke="#14f341" d="M481.029,-252.041C497.578,-237.521 519.226,-218.528 535.975,-203.834"/>
<polygon fill="#14f341" stroke="#14f341" points="481.021,-252.048 470.536,-255.26 477.262,-255.345 473.504,-258.643 473.504,-258.643 473.504,-258.643 477.262,-255.345 476.472,-262.026 481.021,-252.048 481.021,-252.048"/>
<polygon fill="#14f341" stroke="#14f341" points="536.242,-203.599 546.727,-200.386 540.001,-200.301 543.759,-197.004 543.759,-197.004 543.759,-197.004 540.001,-200.301 540.791,-193.621 536.242,-203.599 536.242,-203.599"/>
</g>
<!-- Speaker&#45;&gt;Feedback -->
<g id="edge6" class="edge"><title>Speaker&#45;&gt;Feedback</title>
<path fill="none" stroke="#201768" d="M435.909,-251.967C417.498,-228.961 395.306,-192.104 411,-162 461.949,-64.2722 600.98,-33.2498 677.957,-23.4628"/>
<ellipse fill="none" stroke="#201768" cx="438.656" cy="-255.277" rx="4.00002" ry="4.00002"/>
<polygon fill="#201768" stroke="#201768" points="678.007,-23.4569 688.471,-26.737 682.972,-22.8629 687.936,-22.2689 687.936,-22.2689 687.936,-22.2689 682.972,-22.8629 687.402,-17.8007 678.007,-23.4569 678.007,-23.4569"/>
</g>
<!-- Speech -->
<g id="node13" class="node"><title>Speech</title>
<ellipse fill="none" stroke="black" cx="456" cy="-180" rx="36.096" ry="18"/>
<text text-anchor="middle" x="456" y="-176.3" font-family="Times,serif" font-size="14.00">Speech</text>
</g>
<!-- Speaker&#45;&gt;Speech -->
<g id="edge8" class="edge"><title>Speaker&#45;&gt;Speech</title>
<path fill="none" stroke="#85c233" d="M456,-248.562C456,-236.078 456,-221.025 456,-208.299"/>
<ellipse fill="none" stroke="#85c233" cx="456" cy="-252.942" rx="4" ry="4"/>
<polygon fill="#85c233" stroke="#85c233" points="456,-208.264 460.5,-198.264 456,-203.264 456,-198.264 456,-198.264 456,-198.264 456,-203.264 451.5,-198.264 456,-208.264 456,-208.264"/>
</g>
<!-- PartnershipPlan -->
<g id="node7" class="node"><title>PartnershipPlan</title>
<ellipse fill="none" stroke="black" cx="698" cy="-180" rx="65.9423" ry="18"/>
<text text-anchor="middle" x="698" y="-176.3" font-family="Times,serif" font-size="14.00">PartnershipPlan</text>
</g>
<!-- PartnershipPerk -->
<g id="node11" class="node"><title>PartnershipPerk</title>
<ellipse fill="none" stroke="black" cx="697" cy="-92" rx="66.4165" ry="18"/>
<text text-anchor="middle" x="697" y="-88.3" font-family="Times,serif" font-size="14.00">PartnershipPerk</text>
</g>
<!-- PartnershipPlan&#45;&gt;PartnershipPerk -->
<g id="edge9" class="edge"><title>PartnershipPlan&#45;&gt;PartnershipPerk</title>
<path fill="none" stroke="#d1e747" d="M697.702,-153.339C697.58,-142.855 697.439,-130.718 697.315,-120.091"/>
<ellipse fill="none" stroke="#d1e747" cx="697.751" cy="-157.597" rx="4" ry="4"/>
<polygon fill="#d1e747" stroke="#d1e747" points="697.315,-120.083 701.698,-110.032 697.257,-115.084 697.199,-110.084 697.199,-110.084 697.199,-110.084 697.257,-115.084 692.699,-110.136 697.315,-120.083 697.315,-120.083"/>
</g>
<!-- OrganisersContact -->
<g id="node9" class="node"><title>OrganisersContact</title>
<ellipse fill="none" stroke="black" cx="308" cy="-275" rx="76.0649" ry="18"/>
<text text-anchor="middle" x="308" y="-271.3" font-family="Times,serif" font-size="14.00">OrganisersContact</text>
</g>
<!-- OrganisersContact&#45;&gt;Contact -->
<g id="edge10" class="edge"><title>OrganisersContact&#45;&gt;Contact</title>
<path fill="none" stroke="#0b6ac1" d="M308,-248.562C308,-236.078 308,-221.025 308,-208.299"/>
<ellipse fill="none" stroke="#0b6ac1" cx="308" cy="-252.942" rx="4" ry="4"/>
<polygon fill="#0b6ac1" stroke="#0b6ac1" points="308,-208.264 312.5,-198.264 308,-203.264 308,-198.264 308,-198.264 308,-198.264 308,-203.264 303.5,-198.264 308,-208.264 308,-208.264"/>
</g>
<!-- Partner -->
<g id="node10" class="node"><title>Partner</title>
<ellipse fill="none" stroke="black" cx="698" cy="-275" rx="36.096" ry="18"/>
<text text-anchor="middle" x="698" y="-271.3" font-family="Times,serif" font-size="14.00">Partner</text>
</g>
<!-- Partner&#45;&gt;Conference -->
<g id="edge12" class="edge"><title>Partner&#45;&gt;Conference</title>
<path fill="none" stroke="#157d01" d="M669.176,-254.29C646.709,-238.926 615.582,-217.64 592.66,-201.966"/>
<polygon fill="#157d01" stroke="#157d01" points="669.385,-254.432 675.099,-263.792 673.512,-257.255 677.639,-260.077 677.639,-260.077 677.639,-260.077 673.512,-257.255 680.18,-256.362 669.385,-254.432 669.385,-254.432"/>
<polygon fill="#157d01" stroke="#157d01" points="592.566,-201.902 586.851,-192.542 588.439,-199.079 584.311,-196.257 584.311,-196.257 584.311,-196.257 588.439,-199.079 581.771,-199.972 592.566,-201.902 592.566,-201.902"/>
</g>
<!-- Partner&#45;&gt;PartnershipPlan -->
<g id="edge13" class="edge"><title>Partner&#45;&gt;PartnershipPlan</title>
<path fill="none" stroke="#b8b282" d="M698,-248.562C698,-235.454 698,-219.513 698,-206.408"/>
<ellipse fill="none" stroke="#b8b282" cx="698" cy="-252.942" rx="4" ry="4"/>
<ellipse fill="#b8b282" stroke="#b8b282" cx="698" cy="-202.264" rx="4" ry="4"/>
</g>
<!-- Partner&#45;&gt;Feedback -->
<g id="edge11" class="edge"><title>Partner&#45;&gt;Feedback</title>
<path fill="none" stroke="#ba35dd" d="M725.698,-254.918C742.875,-241.301 763.433,-221.316 773,-198 779.377,-182.459 786.074,-115.635 772,-74 768.204,-62.7703 761.162,-51.9588 753.972,-42.9379"/>
<ellipse fill="none" stroke="#ba35dd" cx="722.245" cy="-257.564" rx="4.00002" ry="4.00002"/>
<polygon fill="#ba35dd" stroke="#ba35dd" points="753.879,-42.8275 750.85,-32.288 750.648,-39.0118 747.416,-35.1961 747.416,-35.1961 747.416,-35.1961 750.648,-39.0118 743.982,-38.1041 753.879,-42.8275 753.879,-42.8275"/>
</g>
<!-- Attendee -->
<g id="node12" class="node"><title>Attendee</title>
<ellipse fill="none" stroke="black" cx="829" cy="-275" rx="42.3701" ry="18"/>
<text text-anchor="middle" x="829" y="-271.3" font-family="Times,serif" font-size="14.00">Attendee</text>
</g>
<!-- Attendee&#45;&gt;Conference -->
<g id="edge15" class="edge"><title>Attendee&#45;&gt;Conference</title>
<path fill="none" stroke="#0aab97" d="M792.348,-256.633C777.236,-249.781 759.444,-242.106 743,-236 718.598,-226.939 655.021,-208.013 610.138,-194.911"/>
<polygon fill="#0aab97" stroke="#0aab97" points="792.76,-256.822 799.973,-265.082 797.305,-258.907 801.849,-260.992 801.849,-260.992 801.849,-260.992 797.305,-258.907 803.726,-256.902 792.76,-256.822 792.76,-256.822"/>
<polygon fill="#0aab97" stroke="#0aab97" points="609.901,-194.843 601.558,-187.725 605.1,-193.444 600.3,-192.046 600.3,-192.046 600.3,-192.046 605.1,-193.444 599.041,-196.366 609.901,-194.843 609.901,-194.843"/>
</g>
<!-- Attendee&#45;&gt;Feedback -->
<g id="edge14" class="edge"><title>Attendee&#45;&gt;Feedback</title>
<path fill="none" stroke="#4812c1" d="M827.014,-248.628C823.299,-209.773 813.345,-133.754 789,-74 783.534,-60.5845 772.882,-48.9645 762.182,-39.9065"/>
<ellipse fill="none" stroke="#4812c1" cx="827.392" cy="-252.799" rx="4" ry="4"/>
<polygon fill="#4812c1" stroke="#4812c1" points="761.917,-39.6971 756.867,-29.963 757.996,-36.5945 754.075,-33.4919 754.075,-33.4919 754.075,-33.4919 757.996,-36.5945 751.282,-37.0208 761.917,-39.6971 761.917,-39.6971"/>
</g>
</g>
</svg>
