<?xml version="1.0" encoding="UTF-8" standalone="no"?>
<!DOCTYPE svg PUBLIC "-//W3C//DTD SVG 1.1//EN"
 "http://www.w3.org/Graphics/SVG/1.1/DTD/svg11.dtd">
<!-- Generated by graphviz version 2.36.0 (20140111.2315)
 -->
<!-- Title: models_diagram Pages: 1 -->
<svg width="746pt" height="302pt"
 viewBox="0.00 0.00 746.00 302.00" xmlns="http://www.w3.org/2000/svg" xmlns:xlink="http://www.w3.org/1999/xlink">
<g id="graph0" class="graph" transform="scale(1 1) rotate(0) translate(4 298)">
<title>models_diagram</title>
<polygon fill="none" stroke="none" points="-4,4 -4,-298 742,-298 742,4 -4,4"/>
<!-- _diagram_info -->
<g id="node1" class="node"><title>_diagram_info</title>
<text text-anchor="start" x="8" y="-279.6" font-family="Times,serif" font-size="13.00">Models diagram</text>
<text text-anchor="start" x="8" y="-265.6" font-family="Times,serif" font-size="13.00">Date: Nov 19 2015 &#45; 09:31</text>
<text text-anchor="start" x="8" y="-251.6" font-family="Times,serif" font-size="13.00">Migration version: 20151119071227</text>
<text text-anchor="start" x="8" y="-237.6" font-family="Times,serif" font-size="13.00">Generated by RailRoady 1.4.1</text>
<text text-anchor="start" x="8" y="-223.6" font-family="Times,serif" font-size="13.00">http://railroady.prestonlee.com</text>
</g>
<!-- ContactType -->
<g id="node2" class="node"><title>ContactType</title>
<ellipse fill="none" stroke="black" cx="308" cy="-90" rx="55.3436" ry="18"/>
<text text-anchor="middle" x="308" y="-86.3" font-family="Times,serif" font-size="14.00">ContactType</text>
</g>
<!-- Contact -->
<g id="node3" class="node"><title>Contact</title>
<ellipse fill="none" stroke="black" cx="308" cy="-162" rx="38.0212" ry="18"/>
<text text-anchor="middle" x="308" y="-158.3" font-family="Times,serif" font-size="14.00">Contact</text>
</g>
<!-- Contact&#45;&gt;ContactType -->
<g id="edge1" class="edge"><title>Contact&#45;&gt;ContactType</title>
<path fill="none" stroke="#485a83" d="M308,-135.64C308,-129.348 308,-122.605 308,-116.316"/>
<ellipse fill="none" stroke="#485a83" cx="308" cy="-139.697" rx="4" ry="4"/>
<ellipse fill="#485a83" stroke="#485a83" cx="308" cy="-112.104" rx="4" ry="4"/>
</g>
<!-- Conference -->
<g id="node4" class="node"><title>Conference</title>
<ellipse fill="none" stroke="black" cx="502" cy="-255" rx="51.0191" ry="18"/>
<text text-anchor="middle" x="502" y="-251.3" font-family="Times,serif" font-size="14.00">Conference</text>
</g>
<!-- Speaker -->
<g id="node6" class="node"><title>Speaker</title>
<ellipse fill="none" stroke="black" cx="403" cy="-162" rx="38.4949" ry="18"/>
<text text-anchor="middle" x="403" y="-158.3" font-family="Times,serif" font-size="14.00">Speaker</text>
</g>
<!-- Conference&#45;&gt;Speaker -->
<g id="edge4" class="edge"><title>Conference&#45;&gt;Speaker</title>
<path fill="none" stroke="#2f3560" d="M476.551,-230.608C461.384,-216.666 442.237,-199.066 427.281,-185.319"/>
<polygon fill="#2f3560" stroke="#2f3560" points="476.938,-230.964 481.255,-241.044 480.62,-234.347 484.301,-237.731 484.301,-237.731 484.301,-237.731 480.62,-234.347 487.346,-234.418 476.938,-230.964 476.938,-230.964"/>
<polygon fill="#2f3560" stroke="#2f3560" points="427.247,-185.288 422.93,-175.208 423.566,-181.904 419.885,-178.521 419.885,-178.521 419.885,-178.521 423.566,-181.904 416.84,-181.834 427.247,-185.288 427.247,-185.288"/>
</g>
<!-- Partner -->
<g id="node10" class="node"><title>Partner</title>
<ellipse fill="none" stroke="black" cx="672" cy="-162" rx="36.096" ry="18"/>
<text text-anchor="middle" x="672" y="-158.3" font-family="Times,serif" font-size="14.00">Partner</text>
</g>
<!-- Conference&#45;&gt;Partner -->
<g id="edge3" class="edge"><title>Conference&#45;&gt;Partner</title>
<path fill="none" stroke="#4c5a90" d="M537.872,-234.798C567.841,-218.756 610.218,-196.072 639.273,-180.518"/>
<polygon fill="#4c5a90" stroke="#4c5a90" points="537.753,-234.861 526.813,-235.613 533.345,-237.221 528.937,-239.581 528.937,-239.581 528.937,-239.581 533.345,-237.221 531.061,-243.548 537.753,-234.861 537.753,-234.861"/>
<polygon fill="#4c5a90" stroke="#4c5a90" points="639.39,-180.456 650.33,-179.704 643.798,-178.096 648.206,-175.737 648.206,-175.737 648.206,-175.737 643.798,-178.096 646.083,-171.769 639.39,-180.456 639.39,-180.456"/>
</g>
<!-- Attendee -->
<g id="node12" class="node"><title>Attendee</title>
<ellipse fill="none" stroke="black" cx="502" cy="-162" rx="42.3701" ry="18"/>
<text text-anchor="middle" x="502" y="-158.3" font-family="Times,serif" font-size="14.00">Attendee</text>
</g>
<!-- Conference&#45;&gt;Attendee -->
<g id="edge2" class="edge"><title>Conference&#45;&gt;Attendee</title>
<path fill="none" stroke="#b276fb" d="M502,-226.549C502,-215.083 502,-201.792 502,-190.339"/>
<polygon fill="#b276fb" stroke="#b276fb" points="502,-226.884 497.5,-236.884 502,-231.884 502,-236.884 502,-236.884 502,-236.884 502,-231.884 506.5,-236.884 502,-226.884 502,-226.884"/>
<polygon fill="#b276fb" stroke="#b276fb" points="502,-190.04 506.5,-180.04 502,-185.04 502,-180.04 502,-180.04 502,-180.04 502,-185.04 497.5,-180.04 502,-190.04 502,-190.04"/>
</g>
<!-- User -->
<g id="node5" class="node"><title>User</title>
<ellipse fill="none" stroke="black" cx="590" cy="-162" rx="26.949" ry="18"/>
<text text-anchor="middle" x="590" y="-158.3" font-family="Times,serif" font-size="14.00">User</text>
</g>
<!-- Feedback -->
<g id="node8" class="node"><title>Feedback</title>
<ellipse fill="none" stroke="black" cx="523" cy="-90" rx="44.2946" ry="18"/>
<text text-anchor="middle" x="523" y="-86.3" font-family="Times,serif" font-size="14.00">Feedback</text>
</g>
<!-- User&#45;&gt;Feedback -->
<g id="edge5" class="edge"><title>User&#45;&gt;Feedback</title>
<path fill="none" stroke="#164c56" d="M570.367,-140.488C562.526,-132.296 553.454,-122.817 545.36,-114.361"/>
<ellipse fill="none" stroke="#164c56" cx="573.352" cy="-143.606" rx="4.00002" ry="4.00002"/>
<polygon fill="#164c56" stroke="#164c56" points="545.181,-114.174 541.517,-103.838 541.723,-110.562 538.266,-106.95 538.266,-106.95 538.266,-106.95 541.723,-110.562 535.015,-110.061 545.181,-114.174 545.181,-114.174"/>
</g>
<!-- Speaker&#45;&gt;Feedback -->
<g id="edge6" class="edge"><title>Speaker&#45;&gt;Feedback</title>
<path fill="none" stroke="#8ee089" d="M433.298,-143.326C450.539,-133.269 472.155,-120.66 489.848,-110.339"/>
<ellipse fill="none" stroke="#8ee089" cx="429.592" cy="-145.488" rx="4.00002" ry="4.00002"/>
<polygon fill="#8ee089" stroke="#8ee089" points="490.06,-110.215 500.966,-109.063 494.379,-107.695 498.698,-105.176 498.698,-105.176 498.698,-105.176 494.379,-107.695 496.431,-101.289 490.06,-110.215 490.06,-110.215"/>
</g>
<!-- PartnershipPlan -->
<g id="node7" class="node"><title>PartnershipPlan</title>
<ellipse fill="none" stroke="black" cx="672" cy="-90" rx="65.9423" ry="18"/>
<text text-anchor="middle" x="672" y="-86.3" font-family="Times,serif" font-size="14.00">PartnershipPlan</text>
</g>
<!-- PartnershipPerk -->
<g id="node11" class="node"><title>PartnershipPerk</title>
<ellipse fill="none" stroke="black" cx="672" cy="-18" rx="66.4165" ry="18"/>
<text text-anchor="middle" x="672" y="-14.3" font-family="Times,serif" font-size="14.00">PartnershipPerk</text>
</g>
<!-- PartnershipPlan&#45;&gt;PartnershipPerk -->
<g id="edge7" class="edge"><title>PartnershipPlan&#45;&gt;PartnershipPerk</title>
<path fill="none" stroke="#647a93" d="M672,-63.6398C672,-58.0629 672,-52.1319 672,-46.4761"/>
<ellipse fill="none" stroke="#647a93" cx="672" cy="-67.6966" rx="4" ry="4"/>
<polygon fill="#647a93" stroke="#647a93" points="672,-46.1043 676.5,-36.1043 672,-41.1043 672,-36.1043 672,-36.1043 672,-36.1043 672,-41.1043 667.5,-36.1044 672,-46.1043 672,-46.1043"/>
</g>
<!-- OrganisersContact -->
<g id="node9" class="node"><title>OrganisersContact</title>
<ellipse fill="none" stroke="black" cx="308" cy="-255" rx="76.0649" ry="18"/>
<text text-anchor="middle" x="308" y="-251.3" font-family="Times,serif" font-size="14.00">OrganisersContact</text>
</g>
<!-- OrganisersContact&#45;&gt;Contact -->
<g id="edge8" class="edge"><title>OrganisersContact&#45;&gt;Contact</title>
<path fill="none" stroke="#e790d3" d="M308,-228.729C308,-216.725 308,-202.362 308,-190.129"/>
<ellipse fill="none" stroke="#e790d3" cx="308" cy="-232.884" rx="4" ry="4"/>
<polygon fill="#e790d3" stroke="#e790d3" points="308,-190.04 312.5,-180.04 308,-185.04 308,-180.04 308,-180.04 308,-180.04 308,-185.04 303.5,-180.04 308,-190.04 308,-190.04"/>
</g>
<!-- Partner&#45;&gt;PartnershipPlan -->
<g id="edge10" class="edge"><title>Partner&#45;&gt;PartnershipPlan</title>
<path fill="none" stroke="#f93725" d="M672,-135.64C672,-129.348 672,-122.605 672,-116.316"/>
<ellipse fill="none" stroke="#f93725" cx="672" cy="-139.697" rx="4" ry="4"/>
<ellipse fill="#f93725" stroke="#f93725" cx="672" cy="-112.104" rx="4" ry="4"/>
</g>
<!-- Partner&#45;&gt;Feedback -->
<g id="edge9" class="edge"><title>Partner&#45;&gt;Feedback</title>
<path fill="none" stroke="#5ab41a" d="M638.869,-145.435C615.511,-134.461 584.207,-119.755 560.025,-108.394"/>
<ellipse fill="none" stroke="#5ab41a" cx="642.766" cy="-147.266" rx="4.00002" ry="4.00002"/>
<polygon fill="#5ab41a" stroke="#5ab41a" points="559.858,-108.316 552.721,-99.9909 555.333,-106.19 550.807,-104.064 550.807,-104.064 550.807,-104.064 555.333,-106.19 548.894,-108.137 559.858,-108.316 559.858,-108.316"/>
</g>
<!-- Attendee&#45;&gt;Feedback -->
<g id="edge11" class="edge"><title>Attendee&#45;&gt;Feedback</title>
<path fill="none" stroke="#a3145f" d="M509.42,-136.267C511.198,-130.34 513.106,-123.981 514.912,-117.959"/>
<ellipse fill="none" stroke="#a3145f" cx="508.233" cy="-140.224" rx="4.00001" ry="4.00001"/>
<polygon fill="#a3145f" stroke="#a3145f" points="514.944,-117.854 522.128,-109.568 516.381,-113.064 517.817,-108.275 517.817,-108.275 517.817,-108.275 516.381,-113.064 513.507,-106.982 514.944,-117.854 514.944,-117.854"/>
</g>
</g>
</svg>
