<?xml version="1.0" encoding="UTF-8" standalone="no"?>
<!DOCTYPE svg PUBLIC "-//W3C//DTD SVG 1.1//EN"
 "http://www.w3.org/Graphics/SVG/1.1/DTD/svg11.dtd">
<!-- Generated by graphviz version 2.36.0 (20140111.2315)
 -->
<!-- Title: models_diagram Pages: 1 -->
<svg width="1808pt" height="862pt"
 viewBox="0.00 0.00 1808.00 862.00" xmlns="http://www.w3.org/2000/svg" xmlns:xlink="http://www.w3.org/1999/xlink">
<g id="graph0" class="graph" transform="scale(1 1) rotate(0) translate(4 858)">
<title>models_diagram</title>
<polygon fill="none" stroke="none" points="-4,4 -4,-858 1804,-858 1804,4 -4,4"/>
<!-- _diagram_info -->
<g id="node1" class="node"><title>_diagram_info</title>
<text text-anchor="start" x="8" y="-809.6" font-family="Times,serif" font-size="13.00">Models diagram</text>
<text text-anchor="start" x="8" y="-795.6" font-family="Times,serif" font-size="13.00">Date: Nov 19 2015 &#45; 09:31</text>
<text text-anchor="start" x="8" y="-781.6" font-family="Times,serif" font-size="13.00">Migration version: 20151119071227</text>
<text text-anchor="start" x="8" y="-767.6" font-family="Times,serif" font-size="13.00">Generated by RailRoady 1.4.1</text>
<text text-anchor="start" x="8" y="-753.6" font-family="Times,serif" font-size="13.00">http://railroady.prestonlee.com</text>
</g>
<!-- ContactType -->
<g id="node2" class="node"><title>ContactType</title>
<path fill="none" stroke="black" d="M244,-159C244,-159 464,-159 464,-159 470,-159 476,-165 476,-171 476,-171 476,-253 476,-253 476,-259 470,-265 464,-265 464,-265 244,-265 244,-265 238,-265 232,-259 232,-253 232,-253 232,-171 232,-171 232,-165 238,-159 244,-159"/>
<text text-anchor="middle" x="354" y="-249.8" font-family="Times,serif" font-size="14.00">ContactType</text>
<polyline fill="none" stroke="black" points="232,-242 476,-242 "/>
<text text-anchor="start" x="240" y="-226.8" font-family="Times,serif" font-size="14.00">id :integer</text>
<text text-anchor="start" x="240" y="-211.8" font-family="Times,serif" font-size="14.00">name :character varying</text>
<text text-anchor="start" x="240" y="-196.8" font-family="Times,serif" font-size="14.00">contact_id :integer</text>
<text text-anchor="start" x="240" y="-181.8" font-family="Times,serif" font-size="14.00">created_at :timestamp without time zone</text>
<text text-anchor="start" x="240" y="-166.8" font-family="Times,serif" font-size="14.00">updated_at :timestamp without time zone</text>
</g>
<!-- Contact -->
<g id="node3" class="node"><title>Contact</title>
<path fill="none" stroke="black" d="M244,-438C244,-438 464,-438 464,-438 470,-438 476,-444 476,-450 476,-450 476,-532 476,-532 476,-538 470,-544 464,-544 464,-544 244,-544 244,-544 238,-544 232,-538 232,-532 232,-532 232,-450 232,-450 232,-444 238,-438 244,-438"/>
<text text-anchor="middle" x="354" y="-528.8" font-family="Times,serif" font-size="14.00">Contact</text>
<polyline fill="none" stroke="black" points="232,-521 476,-521 "/>
<text text-anchor="start" x="240" y="-505.8" font-family="Times,serif" font-size="14.00">id :integer</text>
<text text-anchor="start" x="240" y="-490.8" font-family="Times,serif" font-size="14.00">contact :character varying</text>
<text text-anchor="start" x="240" y="-475.8" font-family="Times,serif" font-size="14.00">organisers_contact_id :integer</text>
<text text-anchor="start" x="240" y="-460.8" font-family="Times,serif" font-size="14.00">created_at :timestamp without time zone</text>
<text text-anchor="start" x="240" y="-445.8" font-family="Times,serif" font-size="14.00">updated_at :timestamp without time zone</text>
</g>
<!-- Contact&#45;&gt;ContactType -->
<g id="edge1" class="edge"><title>Contact&#45;&gt;ContactType</title>
<path fill="none" stroke="#8721f7" d="M354,-429.892C354,-383.601 354,-319.888 354,-273.499"/>
<ellipse fill="none" stroke="#8721f7" cx="354" cy="-433.898" rx="4" ry="4"/>
<ellipse fill="#8721f7" stroke="#8721f7" cx="354" cy="-269.338" rx="4" ry="4"/>
</g>
<!-- Conference -->
<g id="node4" class="node"><title>Conference</title>
<path fill="none" stroke="black" d="M872,-717C872,-717 1092,-717 1092,-717 1098,-717 1104,-723 1104,-729 1104,-729 1104,-841 1104,-841 1104,-847 1098,-853 1092,-853 1092,-853 872,-853 872,-853 866,-853 860,-847 860,-841 860,-841 860,-729 860,-729 860,-723 866,-717 872,-717"/>
<text text-anchor="middle" x="982" y="-837.8" font-family="Times,serif" font-size="14.00">Conference</text>
<polyline fill="none" stroke="black" points="860,-830 1104,-830 "/>
<text text-anchor="start" x="868" y="-814.8" font-family="Times,serif" font-size="14.00">id :integer</text>
<text text-anchor="start" x="868" y="-799.8" font-family="Times,serif" font-size="14.00">name :character varying</text>
<text text-anchor="start" x="868" y="-784.8" font-family="Times,serif" font-size="14.00">description :text</text>
<text text-anchor="start" x="868" y="-769.8" font-family="Times,serif" font-size="14.00">date :date</text>
<text text-anchor="start" x="868" y="-754.8" font-family="Times,serif" font-size="14.00">place :character varying</text>
<text text-anchor="start" x="868" y="-739.8" font-family="Times,serif" font-size="14.00">created_at :timestamp without time zone</text>
<text text-anchor="start" x="868" y="-724.8" font-family="Times,serif" font-size="14.00">updated_at :timestamp without time zone</text>
</g>
<!-- Speaker -->
<g id="node6" class="node"><title>Speaker</title>
<path fill="none" stroke="black" d="M506.5,-303C506.5,-303 795.5,-303 795.5,-303 801.5,-303 807.5,-309 807.5,-315 807.5,-315 807.5,-667 807.5,-667 807.5,-673 801.5,-679 795.5,-679 795.5,-679 506.5,-679 506.5,-679 500.5,-679 494.5,-673 494.5,-667 494.5,-667 494.5,-315 494.5,-315 494.5,-309 500.5,-303 506.5,-303"/>
<text text-anchor="middle" x="651" y="-663.8" font-family="Times,serif" font-size="14.00">Speaker</text>
<polyline fill="none" stroke="black" points="494.5,-656 807.5,-656 "/>
<text text-anchor="start" x="502.5" y="-640.8" font-family="Times,serif" font-size="14.00">id :integer</text>
<text text-anchor="start" x="502.5" y="-625.8" font-family="Times,serif" font-size="14.00">first_name :character varying</text>
<text text-anchor="start" x="502.5" y="-610.8" font-family="Times,serif" font-size="14.00">last_name :character varying</text>
<text text-anchor="start" x="502.5" y="-595.8" font-family="Times,serif" font-size="14.00">type :character varying</text>
<text text-anchor="start" x="502.5" y="-580.8" font-family="Times,serif" font-size="14.00">created_at :timestamp without time zone</text>
<text text-anchor="start" x="502.5" y="-565.8" font-family="Times,serif" font-size="14.00">updated_at :timestamp without time zone</text>
<text text-anchor="start" x="502.5" y="-550.8" font-family="Times,serif" font-size="14.00">email :character varying</text>
<text text-anchor="start" x="502.5" y="-535.8" font-family="Times,serif" font-size="14.00">encrypted_password :character varying</text>
<text text-anchor="start" x="502.5" y="-520.8" font-family="Times,serif" font-size="14.00">reset_password_token :character varying</text>
<text text-anchor="start" x="502.5" y="-505.8" font-family="Times,serif" font-size="14.00">reset_password_sent_at :timestamp without time zone</text>
<text text-anchor="start" x="502.5" y="-490.8" font-family="Times,serif" font-size="14.00">remember_created_at :timestamp without time zone</text>
<text text-anchor="start" x="502.5" y="-475.8" font-family="Times,serif" font-size="14.00">sign_in_count :integer</text>
<text text-anchor="start" x="502.5" y="-460.8" font-family="Times,serif" font-size="14.00">current_sign_in_at :timestamp without time zone</text>
<text text-anchor="start" x="502.5" y="-445.8" font-family="Times,serif" font-size="14.00">last_sign_in_at :timestamp without time zone</text>
<text text-anchor="start" x="502.5" y="-430.8" font-family="Times,serif" font-size="14.00">current_sign_in_ip :inet</text>
<text text-anchor="start" x="502.5" y="-415.8" font-family="Times,serif" font-size="14.00">last_sign_in_ip :inet</text>
<text text-anchor="start" x="502.5" y="-400.8" font-family="Times,serif" font-size="14.00">confirmation_token :character varying</text>
<text text-anchor="start" x="502.5" y="-385.8" font-family="Times,serif" font-size="14.00">confirmed_at :timestamp without time zone</text>
<text text-anchor="start" x="502.5" y="-370.8" font-family="Times,serif" font-size="14.00">confirmation_sent_at :timestamp without time zone</text>
<text text-anchor="start" x="502.5" y="-355.8" font-family="Times,serif" font-size="14.00">unconfirmed_email :character varying</text>
<text text-anchor="start" x="502.5" y="-340.8" font-family="Times,serif" font-size="14.00">failed_attempts :integer</text>
<text text-anchor="start" x="502.5" y="-325.8" font-family="Times,serif" font-size="14.00">unlock_token :character varying</text>
<text text-anchor="start" x="502.5" y="-310.8" font-family="Times,serif" font-size="14.00">locked_at :timestamp without time zone</text>
</g>
<!-- Conference&#45;&gt;Speaker -->
<g id="edge4" class="edge"><title>Conference&#45;&gt;Speaker</title>
<path fill="none" stroke="#5c31c3" d="M856.724,-711.096C842.55,-701.234 828.665,-690.778 816,-680 815.736,-679.776 815.473,-679.551 815.209,-679.326"/>
<polygon fill="#5c31c3" stroke="#5c31c3" points="856.848,-711.181 862.554,-720.545 860.972,-714.007 865.097,-716.833 865.097,-716.833 865.097,-716.833 860.972,-714.007 867.64,-713.121 856.848,-711.181 856.848,-711.181"/>
<polygon fill="#5c31c3" stroke="#5c31c3" points="815.124,-679.252 810.539,-669.291 811.354,-675.968 807.584,-672.684 807.584,-672.684 807.584,-672.684 811.354,-675.968 804.628,-676.077 815.124,-679.252 815.124,-679.252"/>
</g>
<!-- Partner -->
<g id="node10" class="node"><title>Partner</title>
<path fill="none" stroke="black" d="M1499.5,-303C1499.5,-303 1788.5,-303 1788.5,-303 1794.5,-303 1800.5,-309 1800.5,-315 1800.5,-315 1800.5,-667 1800.5,-667 1800.5,-673 1794.5,-679 1788.5,-679 1788.5,-679 1499.5,-679 1499.5,-679 1493.5,-679 1487.5,-673 1487.5,-667 1487.5,-667 1487.5,-315 1487.5,-315 1487.5,-309 1493.5,-303 1499.5,-303"/>
<text text-anchor="middle" x="1644" y="-663.8" font-family="Times,serif" font-size="14.00">Partner</text>
<polyline fill="none" stroke="black" points="1487.5,-656 1800.5,-656 "/>
<text text-anchor="start" x="1495.5" y="-640.8" font-family="Times,serif" font-size="14.00">id :integer</text>
<text text-anchor="start" x="1495.5" y="-625.8" font-family="Times,serif" font-size="14.00">first_name :character varying</text>
<text text-anchor="start" x="1495.5" y="-610.8" font-family="Times,serif" font-size="14.00">last_name :character varying</text>
<text text-anchor="start" x="1495.5" y="-595.8" font-family="Times,serif" font-size="14.00">type :character varying</text>
<text text-anchor="start" x="1495.5" y="-580.8" font-family="Times,serif" font-size="14.00">created_at :timestamp without time zone</text>
<text text-anchor="start" x="1495.5" y="-565.8" font-family="Times,serif" font-size="14.00">updated_at :timestamp without time zone</text>
<text text-anchor="start" x="1495.5" y="-550.8" font-family="Times,serif" font-size="14.00">email :character varying</text>
<text text-anchor="start" x="1495.5" y="-535.8" font-family="Times,serif" font-size="14.00">encrypted_password :character varying</text>
<text text-anchor="start" x="1495.5" y="-520.8" font-family="Times,serif" font-size="14.00">reset_password_token :character varying</text>
<text text-anchor="start" x="1495.5" y="-505.8" font-family="Times,serif" font-size="14.00">reset_password_sent_at :timestamp without time zone</text>
<text text-anchor="start" x="1495.5" y="-490.8" font-family="Times,serif" font-size="14.00">remember_created_at :timestamp without time zone</text>
<text text-anchor="start" x="1495.5" y="-475.8" font-family="Times,serif" font-size="14.00">sign_in_count :integer</text>
<text text-anchor="start" x="1495.5" y="-460.8" font-family="Times,serif" font-size="14.00">current_sign_in_at :timestamp without time zone</text>
<text text-anchor="start" x="1495.5" y="-445.8" font-family="Times,serif" font-size="14.00">last_sign_in_at :timestamp without time zone</text>
<text text-anchor="start" x="1495.5" y="-430.8" font-family="Times,serif" font-size="14.00">current_sign_in_ip :inet</text>
<text text-anchor="start" x="1495.5" y="-415.8" font-family="Times,serif" font-size="14.00">last_sign_in_ip :inet</text>
<text text-anchor="start" x="1495.5" y="-400.8" font-family="Times,serif" font-size="14.00">confirmation_token :character varying</text>
<text text-anchor="start" x="1495.5" y="-385.8" font-family="Times,serif" font-size="14.00">confirmed_at :timestamp without time zone</text>
<text text-anchor="start" x="1495.5" y="-370.8" font-family="Times,serif" font-size="14.00">confirmation_sent_at :timestamp without time zone</text>
<text text-anchor="start" x="1495.5" y="-355.8" font-family="Times,serif" font-size="14.00">unconfirmed_email :character varying</text>
<text text-anchor="start" x="1495.5" y="-340.8" font-family="Times,serif" font-size="14.00">failed_attempts :integer</text>
<text text-anchor="start" x="1495.5" y="-325.8" font-family="Times,serif" font-size="14.00">unlock_token :character varying</text>
<text text-anchor="start" x="1495.5" y="-310.8" font-family="Times,serif" font-size="14.00">locked_at :timestamp without time zone</text>
</g>
<!-- Conference&#45;&gt;Partner -->
<g id="edge3" class="edge"><title>Conference&#45;&gt;Partner</title>
<path fill="none" stroke="#c3c7aa" d="M1114.12,-778.9C1219.01,-769.735 1366.12,-745.114 1478,-680 1478.19,-679.887 1478.39,-679.774 1478.58,-679.66"/>
<polygon fill="#c3c7aa" stroke="#c3c7aa" points="1114.06,-778.904 1103.72,-775.255 1109.08,-779.321 1104.1,-779.739 1104.1,-779.739 1104.1,-779.739 1109.08,-779.321 1104.48,-784.223 1114.06,-778.904 1114.06,-778.904"/>
<polygon fill="#c3c7aa" stroke="#c3c7aa" points="1478.71,-679.583 1489.58,-678.185 1482.97,-676.966 1487.23,-674.35 1487.23,-674.35 1487.23,-674.35 1482.97,-676.966 1484.87,-670.515 1478.71,-679.583 1478.71,-679.583"/>
</g>
<!-- Attendee -->
<g id="node12" class="node"><title>Attendee</title>
<path fill="none" stroke="black" d="M837.5,-303C837.5,-303 1126.5,-303 1126.5,-303 1132.5,-303 1138.5,-309 1138.5,-315 1138.5,-315 1138.5,-667 1138.5,-667 1138.5,-673 1132.5,-679 1126.5,-679 1126.5,-679 837.5,-679 837.5,-679 831.5,-679 825.5,-673 825.5,-667 825.5,-667 825.5,-315 825.5,-315 825.5,-309 831.5,-303 837.5,-303"/>
<text text-anchor="middle" x="982" y="-663.8" font-family="Times,serif" font-size="14.00">Attendee</text>
<polyline fill="none" stroke="black" points="825.5,-656 1138.5,-656 "/>
<text text-anchor="start" x="833.5" y="-640.8" font-family="Times,serif" font-size="14.00">id :integer</text>
<text text-anchor="start" x="833.5" y="-625.8" font-family="Times,serif" font-size="14.00">first_name :character varying</text>
<text text-anchor="start" x="833.5" y="-610.8" font-family="Times,serif" font-size="14.00">last_name :character varying</text>
<text text-anchor="start" x="833.5" y="-595.8" font-family="Times,serif" font-size="14.00">type :character varying</text>
<text text-anchor="start" x="833.5" y="-580.8" font-family="Times,serif" font-size="14.00">created_at :timestamp without time zone</text>
<text text-anchor="start" x="833.5" y="-565.8" font-family="Times,serif" font-size="14.00">updated_at :timestamp without time zone</text>
<text text-anchor="start" x="833.5" y="-550.8" font-family="Times,serif" font-size="14.00">email :character varying</text>
<text text-anchor="start" x="833.5" y="-535.8" font-family="Times,serif" font-size="14.00">encrypted_password :character varying</text>
<text text-anchor="start" x="833.5" y="-520.8" font-family="Times,serif" font-size="14.00">reset_password_token :character varying</text>
<text text-anchor="start" x="833.5" y="-505.8" font-family="Times,serif" font-size="14.00">reset_password_sent_at :timestamp without time zone</text>
<text text-anchor="start" x="833.5" y="-490.8" font-family="Times,serif" font-size="14.00">remember_created_at :timestamp without time zone</text>
<text text-anchor="start" x="833.5" y="-475.8" font-family="Times,serif" font-size="14.00">sign_in_count :integer</text>
<text text-anchor="start" x="833.5" y="-460.8" font-family="Times,serif" font-size="14.00">current_sign_in_at :timestamp without time zone</text>
<text text-anchor="start" x="833.5" y="-445.8" font-family="Times,serif" font-size="14.00">last_sign_in_at :timestamp without time zone</text>
<text text-anchor="start" x="833.5" y="-430.8" font-family="Times,serif" font-size="14.00">current_sign_in_ip :inet</text>
<text text-anchor="start" x="833.5" y="-415.8" font-family="Times,serif" font-size="14.00">last_sign_in_ip :inet</text>
<text text-anchor="start" x="833.5" y="-400.8" font-family="Times,serif" font-size="14.00">confirmation_token :character varying</text>
<text text-anchor="start" x="833.5" y="-385.8" font-family="Times,serif" font-size="14.00">confirmed_at :timestamp without time zone</text>
<text text-anchor="start" x="833.5" y="-370.8" font-family="Times,serif" font-size="14.00">confirmation_sent_at :timestamp without time zone</text>
<text text-anchor="start" x="833.5" y="-355.8" font-family="Times,serif" font-size="14.00">unconfirmed_email :character varying</text>
<text text-anchor="start" x="833.5" y="-340.8" font-family="Times,serif" font-size="14.00">failed_attempts :integer</text>
<text text-anchor="start" x="833.5" y="-325.8" font-family="Times,serif" font-size="14.00">unlock_token :character varying</text>
<text text-anchor="start" x="833.5" y="-310.8" font-family="Times,serif" font-size="14.00">locked_at :timestamp without time zone</text>
</g>
<!-- Conference&#45;&gt;Attendee -->
<g id="edge2" class="edge"><title>Conference&#45;&gt;Attendee</title>
<path fill="none" stroke="#59cb27" d="M982,-706.548C982,-700.927 982,-695.13 982,-689.204"/>
<polygon fill="#59cb27" stroke="#59cb27" points="982,-706.643 977.5,-716.643 982,-711.643 982,-716.643 982,-716.643 982,-716.643 982,-711.643 986.5,-716.643 982,-706.643 982,-706.643"/>
<polygon fill="#59cb27" stroke="#59cb27" points="982,-689.118 986.5,-679.118 982,-684.118 982,-679.118 982,-679.118 982,-679.118 982,-684.118 977.5,-679.118 982,-689.118 982,-689.118"/>
</g>
<!-- User -->
<g id="node5" class="node"><title>User</title>
<path fill="none" stroke="black" d="M1168.5,-303C1168.5,-303 1457.5,-303 1457.5,-303 1463.5,-303 1469.5,-309 1469.5,-315 1469.5,-315 1469.5,-667 1469.5,-667 1469.5,-673 1463.5,-679 1457.5,-679 1457.5,-679 1168.5,-679 1168.5,-679 1162.5,-679 1156.5,-673 1156.5,-667 1156.5,-667 1156.5,-315 1156.5,-315 1156.5,-309 1162.5,-303 1168.5,-303"/>
<text text-anchor="middle" x="1313" y="-663.8" font-family="Times,serif" font-size="14.00">User</text>
<polyline fill="none" stroke="black" points="1156.5,-656 1469.5,-656 "/>
<text text-anchor="start" x="1164.5" y="-640.8" font-family="Times,serif" font-size="14.00">id :integer</text>
<text text-anchor="start" x="1164.5" y="-625.8" font-family="Times,serif" font-size="14.00">first_name :character varying</text>
<text text-anchor="start" x="1164.5" y="-610.8" font-family="Times,serif" font-size="14.00">last_name :character varying</text>
<text text-anchor="start" x="1164.5" y="-595.8" font-family="Times,serif" font-size="14.00">type :character varying</text>
<text text-anchor="start" x="1164.5" y="-580.8" font-family="Times,serif" font-size="14.00">created_at :timestamp without time zone</text>
<text text-anchor="start" x="1164.5" y="-565.8" font-family="Times,serif" font-size="14.00">updated_at :timestamp without time zone</text>
<text text-anchor="start" x="1164.5" y="-550.8" font-family="Times,serif" font-size="14.00">email :character varying</text>
<text text-anchor="start" x="1164.5" y="-535.8" font-family="Times,serif" font-size="14.00">encrypted_password :character varying</text>
<text text-anchor="start" x="1164.5" y="-520.8" font-family="Times,serif" font-size="14.00">reset_password_token :character varying</text>
<text text-anchor="start" x="1164.5" y="-505.8" font-family="Times,serif" font-size="14.00">reset_password_sent_at :timestamp without time zone</text>
<text text-anchor="start" x="1164.5" y="-490.8" font-family="Times,serif" font-size="14.00">remember_created_at :timestamp without time zone</text>
<text text-anchor="start" x="1164.5" y="-475.8" font-family="Times,serif" font-size="14.00">sign_in_count :integer</text>
<text text-anchor="start" x="1164.5" y="-460.8" font-family="Times,serif" font-size="14.00">current_sign_in_at :timestamp without time zone</text>
<text text-anchor="start" x="1164.5" y="-445.8" font-family="Times,serif" font-size="14.00">last_sign_in_at :timestamp without time zone</text>
<text text-anchor="start" x="1164.5" y="-430.8" font-family="Times,serif" font-size="14.00">current_sign_in_ip :inet</text>
<text text-anchor="start" x="1164.5" y="-415.8" font-family="Times,serif" font-size="14.00">last_sign_in_ip :inet</text>
<text text-anchor="start" x="1164.5" y="-400.8" font-family="Times,serif" font-size="14.00">confirmation_token :character varying</text>
<text text-anchor="start" x="1164.5" y="-385.8" font-family="Times,serif" font-size="14.00">confirmed_at :timestamp without time zone</text>
<text text-anchor="start" x="1164.5" y="-370.8" font-family="Times,serif" font-size="14.00">confirmation_sent_at :timestamp without time zone</text>
<text text-anchor="start" x="1164.5" y="-355.8" font-family="Times,serif" font-size="14.00">unconfirmed_email :character varying</text>
<text text-anchor="start" x="1164.5" y="-340.8" font-family="Times,serif" font-size="14.00">failed_attempts :integer</text>
<text text-anchor="start" x="1164.5" y="-325.8" font-family="Times,serif" font-size="14.00">unlock_token :character varying</text>
<text text-anchor="start" x="1164.5" y="-310.8" font-family="Times,serif" font-size="14.00">locked_at :timestamp without time zone</text>
</g>
<!-- Feedback -->
<g id="node8" class="node"><title>Feedback</title>
<path fill="none" stroke="black" d="M1038,-159C1038,-159 1258,-159 1258,-159 1264,-159 1270,-165 1270,-171 1270,-171 1270,-253 1270,-253 1270,-259 1264,-265 1258,-265 1258,-265 1038,-265 1038,-265 1032,-265 1026,-259 1026,-253 1026,-253 1026,-171 1026,-171 1026,-165 1032,-159 1038,-159"/>
<text text-anchor="middle" x="1148" y="-249.8" font-family="Times,serif" font-size="14.00">Feedback</text>
<polyline fill="none" stroke="black" points="1026,-242 1270,-242 "/>
<text text-anchor="start" x="1034" y="-226.8" font-family="Times,serif" font-size="14.00">id :integer</text>
<text text-anchor="start" x="1034" y="-211.8" font-family="Times,serif" font-size="14.00">feedback :text</text>
<text text-anchor="start" x="1034" y="-196.8" font-family="Times,serif" font-size="14.00">user_id :integer</text>
<text text-anchor="start" x="1034" y="-181.8" font-family="Times,serif" font-size="14.00">created_at :timestamp without time zone</text>
<text text-anchor="start" x="1034" y="-166.8" font-family="Times,serif" font-size="14.00">updated_at :timestamp without time zone</text>
</g>
<!-- User&#45;&gt;Feedback -->
<g id="edge5" class="edge"><title>User&#45;&gt;Feedback</title>
<path fill="none" stroke="#f89d0a" d="M1197.31,-295.776C1192.89,-288.365 1188.63,-281.209 1184.58,-274.417"/>
<ellipse fill="none" stroke="#f89d0a" cx="1199.52" cy="-299.497" rx="4.00002" ry="4.00002"/>
<polygon fill="#f89d0a" stroke="#f89d0a" points="1184.32,-273.98 1183.07,-263.086 1181.77,-269.685 1179.21,-265.389 1179.21,-265.389 1179.21,-265.389 1181.77,-269.685 1175.34,-267.692 1184.32,-273.98 1184.32,-273.98"/>
</g>
<!-- Speaker&#45;&gt;Feedback -->
<g id="edge6" class="edge"><title>Speaker&#45;&gt;Feedback</title>
<path fill="none" stroke="#8d23c4" d="M814.705,-302.81C815.136,-302.539 815.568,-302.269 816,-302 876.132,-264.619 951.844,-242.77 1015.78,-230.085"/>
<ellipse fill="none" stroke="#8d23c4" cx="811.115" cy="-305.151" rx="4.00002" ry="4.00002"/>
<polygon fill="#8d23c4" stroke="#8d23c4" points="1016.11,-230.021 1026.78,-232.546 1021.02,-229.074 1025.93,-228.127 1025.93,-228.127 1025.93,-228.127 1021.02,-229.074 1025.08,-223.709 1016.11,-230.021 1016.11,-230.021"/>
</g>
<!-- PartnershipPlan -->
<g id="node7" class="node"><title>PartnershipPlan</title>
<path fill="none" stroke="black" d="M1534,-159C1534,-159 1754,-159 1754,-159 1760,-159 1766,-165 1766,-171 1766,-171 1766,-253 1766,-253 1766,-259 1760,-265 1754,-265 1754,-265 1534,-265 1534,-265 1528,-265 1522,-259 1522,-253 1522,-253 1522,-171 1522,-171 1522,-165 1528,-159 1534,-159"/>
<text text-anchor="middle" x="1644" y="-249.8" font-family="Times,serif" font-size="14.00">PartnershipPlan</text>
<polyline fill="none" stroke="black" points="1522,-242 1766,-242 "/>
<text text-anchor="start" x="1530" y="-226.8" font-family="Times,serif" font-size="14.00">id :integer</text>
<text text-anchor="start" x="1530" y="-211.8" font-family="Times,serif" font-size="14.00">name :character varying</text>
<text text-anchor="start" x="1530" y="-196.8" font-family="Times,serif" font-size="14.00">description :text</text>
<text text-anchor="start" x="1530" y="-181.8" font-family="Times,serif" font-size="14.00">created_at :timestamp without time zone</text>
<text text-anchor="start" x="1530" y="-166.8" font-family="Times,serif" font-size="14.00">updated_at :timestamp without time zone</text>
</g>
<!-- PartnershipPerk -->
<g id="node11" class="node"><title>PartnershipPerk</title>
<path fill="none" stroke="black" d="M1534,-0.5C1534,-0.5 1754,-0.5 1754,-0.5 1760,-0.5 1766,-6.5 1766,-12.5 1766,-12.5 1766,-109.5 1766,-109.5 1766,-115.5 1760,-121.5 1754,-121.5 1754,-121.5 1534,-121.5 1534,-121.5 1528,-121.5 1522,-115.5 1522,-109.5 1522,-109.5 1522,-12.5 1522,-12.5 1522,-6.5 1528,-0.5 1534,-0.5"/>
<text text-anchor="middle" x="1644" y="-106.3" font-family="Times,serif" font-size="14.00">PartnershipPerk</text>
<polyline fill="none" stroke="black" points="1522,-98.5 1766,-98.5 "/>
<text text-anchor="start" x="1530" y="-83.3" font-family="Times,serif" font-size="14.00">id :integer</text>
<text text-anchor="start" x="1530" y="-68.3" font-family="Times,serif" font-size="14.00">name :character varying</text>
<text text-anchor="start" x="1530" y="-53.3" font-family="Times,serif" font-size="14.00">description :text</text>
<text text-anchor="start" x="1530" y="-38.3" font-family="Times,serif" font-size="14.00">partnership_plan_id :integer</text>
<text text-anchor="start" x="1530" y="-23.3" font-family="Times,serif" font-size="14.00">created_at :timestamp without time zone</text>
<text text-anchor="start" x="1530" y="-8.3" font-family="Times,serif" font-size="14.00">updated_at :timestamp without time zone</text>
</g>
<!-- PartnershipPlan&#45;&gt;PartnershipPerk -->
<g id="edge7" class="edge"><title>PartnershipPlan&#45;&gt;PartnershipPerk</title>
<path fill="none" stroke="#1a2876" d="M1644,-150.615C1644,-144.513 1644,-138.28 1644,-132.088"/>
<ellipse fill="none" stroke="#1a2876" cx="1644" cy="-154.887" rx="4" ry="4"/>
<polygon fill="#1a2876" stroke="#1a2876" points="1644,-131.735 1648.5,-121.735 1644,-126.735 1644,-121.735 1644,-121.735 1644,-121.735 1644,-126.735 1639.5,-121.735 1644,-131.735 1644,-131.735"/>
</g>
<!-- OrganisersContact -->
<g id="node9" class="node"><title>OrganisersContact</title>
<path fill="none" stroke="black" d="M244,-739.5C244,-739.5 464,-739.5 464,-739.5 470,-739.5 476,-745.5 476,-751.5 476,-751.5 476,-818.5 476,-818.5 476,-824.5 470,-830.5 464,-830.5 464,-830.5 244,-830.5 244,-830.5 238,-830.5 232,-824.5 232,-818.5 232,-818.5 232,-751.5 232,-751.5 232,-745.5 238,-739.5 244,-739.5"/>
<text text-anchor="middle" x="354" y="-815.3" font-family="Times,serif" font-size="14.00">OrganisersContact</text>
<polyline fill="none" stroke="black" points="232,-807.5 476,-807.5 "/>
<text text-anchor="start" x="240" y="-792.3" font-family="Times,serif" font-size="14.00">id :integer</text>
<text text-anchor="start" x="240" y="-777.3" font-family="Times,serif" font-size="14.00">name :character varying</text>
<text text-anchor="start" x="240" y="-762.3" font-family="Times,serif" font-size="14.00">created_at :timestamp without time zone</text>
<text text-anchor="start" x="240" y="-747.3" font-family="Times,serif" font-size="14.00">updated_at :timestamp without time zone</text>
</g>
<!-- OrganisersContact&#45;&gt;Contact -->
<g id="edge8" class="edge"><title>OrganisersContact&#45;&gt;Contact</title>
<path fill="none" stroke="#ddd29b" d="M354,-731.067C354,-681.32 354,-606.851 354,-554.27"/>
<ellipse fill="none" stroke="#ddd29b" cx="354" cy="-735.334" rx="4" ry="4"/>
<polygon fill="#ddd29b" stroke="#ddd29b" points="354,-554.06 358.5,-544.06 354,-549.06 354,-544.06 354,-544.06 354,-544.06 354,-549.06 349.5,-544.06 354,-554.06 354,-554.06"/>
</g>
<!-- Partner&#45;&gt;PartnershipPlan -->
<g id="edge10" class="edge"><title>Partner&#45;&gt;PartnershipPlan</title>
<path fill="none" stroke="#6ae607" d="M1644,-294.853C1644,-287.512 1644,-280.426 1644,-273.703"/>
<ellipse fill="none" stroke="#6ae607" cx="1644" cy="-298.934" rx="4" ry="4"/>
<ellipse fill="#6ae607" stroke="#6ae607" cx="1644" cy="-269.389" rx="4" ry="4"/>
</g>
<!-- Partner&#45;&gt;Feedback -->
<g id="edge9" class="edge"><title>Partner&#45;&gt;Feedback</title>
<path fill="none" stroke="#0a1552" d="M1480.65,-303.665C1479.77,-303.104 1478.88,-302.549 1478,-302 1418.42,-265.021 1343.52,-243.218 1280.15,-230.458"/>
<ellipse fill="none" stroke="#0a1552" cx="1484.01" cy="-305.881" rx="4.00002" ry="4.00002"/>
<polygon fill="#0a1552" stroke="#0a1552" points="1279.89,-230.409 1270.94,-224.071 1274.99,-229.448 1270.08,-228.487 1270.08,-228.487 1270.08,-228.487 1274.99,-229.448 1269.21,-232.904 1279.89,-230.409 1279.89,-230.409"/>
</g>
<!-- Attendee&#45;&gt;Feedback -->
<g id="edge11" class="edge"><title>Attendee&#45;&gt;Feedback</title>
<path fill="none" stroke="#0f2e2a" d="M1098.39,-295.776C1102.84,-288.365 1107.12,-281.209 1111.19,-274.417"/>
<ellipse fill="none" stroke="#0f2e2a" cx="1096.16" cy="-299.503" rx="4.00002" ry="4.00002"/>
<polygon fill="#0f2e2a" stroke="#0f2e2a" points="1111.46,-273.967 1120.46,-267.702 1114.03,-269.678 1116.6,-265.389 1116.6,-265.389 1116.6,-265.389 1114.03,-269.678 1112.74,-263.076 1111.46,-273.967 1111.46,-273.967"/>
</g>
</g>
</svg>
