<?xml version="1.0" encoding="UTF-8" standalone="no"?>
<!DOCTYPE svg PUBLIC "-//W3C//DTD SVG 1.1//EN"
 "http://www.w3.org/Graphics/SVG/1.1/DTD/svg11.dtd">
<!-- Generated by graphviz version 2.36.0 (20140111.2315)
 -->
<!-- Title: models_diagram Pages: 1 -->
<svg width="904pt" height="230pt"
 viewBox="0.00 0.00 904.00 230.00" xmlns="http://www.w3.org/2000/svg" xmlns:xlink="http://www.w3.org/1999/xlink">
<g id="graph0" class="graph" transform="scale(1 1) rotate(0) translate(4 226)">
<title>models_diagram</title>
<polygon fill="none" stroke="none" points="-4,4 -4,-226 900,-226 900,4 -4,4"/>
<!-- _diagram_info -->
<g id="node1" class="node"><title>_diagram_info</title>
<text text-anchor="start" x="8" y="-207.6" font-family="Times,serif" font-size="13.00">Models diagram</text>
<text text-anchor="start" x="8" y="-193.6" font-family="Times,serif" font-size="13.00">Date: Nov 19 2015 &#45; 08:38</text>
<text text-anchor="start" x="8" y="-179.6" font-family="Times,serif" font-size="13.00">Migration version: 20151119063540</text>
<text text-anchor="start" x="8" y="-165.6" font-family="Times,serif" font-size="13.00">Generated by RailRoady 1.4.1</text>
<text text-anchor="start" x="8" y="-151.6" font-family="Times,serif" font-size="13.00">http://railroady.prestonlee.com</text>
</g>
<!-- ContactType -->
<g id="node2" class="node"><title>ContactType</title>
<ellipse fill="none" stroke="black" cx="308" cy="-18" rx="55.3436" ry="18"/>
<text text-anchor="middle" x="308" y="-14.3" font-family="Times,serif" font-size="14.00">ContactType</text>
</g>
<!-- Contact -->
<g id="node3" class="node"><title>Contact</title>
<ellipse fill="none" stroke="black" cx="308" cy="-90" rx="38.0212" ry="18"/>
<text text-anchor="middle" x="308" y="-86.3" font-family="Times,serif" font-size="14.00">Contact</text>
</g>
<!-- Contact&#45;&gt;ContactType -->
<g id="edge1" class="edge"><title>Contact&#45;&gt;ContactType</title>
<path fill="none" stroke="#efbcbb" d="M308,-63.6398C308,-57.348 308,-50.6053 308,-44.3156"/>
<ellipse fill="none" stroke="#efbcbb" cx="308" cy="-67.6966" rx="4" ry="4"/>
<ellipse fill="#efbcbb" stroke="#efbcbb" cx="308" cy="-40.1043" rx="4" ry="4"/>
</g>
<!-- User -->
<g id="node4" class="node"><title>User</title>
<ellipse fill="none" stroke="black" cx="429" cy="-183" rx="26.949" ry="18"/>
<text text-anchor="middle" x="429" y="-179.3" font-family="Times,serif" font-size="14.00">User</text>
</g>
<!-- Speaker -->
<g id="node5" class="node"><title>Speaker</title>
<ellipse fill="none" stroke="black" cx="513" cy="-183" rx="38.4949" ry="18"/>
<text text-anchor="middle" x="513" y="-179.3" font-family="Times,serif" font-size="14.00">Speaker</text>
</g>
<!-- PartnershipPlan -->
<g id="node6" class="node"><title>PartnershipPlan</title>
<ellipse fill="none" stroke="black" cx="636" cy="-183" rx="65.9423" ry="18"/>
<text text-anchor="middle" x="636" y="-179.3" font-family="Times,serif" font-size="14.00">PartnershipPlan</text>
</g>
<!-- PartnershipPerk -->
<g id="node9" class="node"><title>PartnershipPerk</title>
<ellipse fill="none" stroke="black" cx="636" cy="-90" rx="66.4165" ry="18"/>
<text text-anchor="middle" x="636" y="-86.3" font-family="Times,serif" font-size="14.00">PartnershipPerk</text>
</g>
<!-- PartnershipPlan&#45;&gt;PartnershipPerk -->
<g id="edge2" class="edge"><title>PartnershipPlan&#45;&gt;PartnershipPerk</title>
<path fill="none" stroke="#20a8df" d="M636,-156.729C636,-144.725 636,-130.362 636,-118.129"/>
<ellipse fill="none" stroke="#20a8df" cx="636" cy="-160.884" rx="4" ry="4"/>
<polygon fill="#20a8df" stroke="#20a8df" points="636,-118.04 640.5,-108.04 636,-113.04 636,-108.04 636,-108.04 636,-108.04 636,-113.04 631.5,-108.04 636,-118.04 636,-118.04"/>
</g>
<!-- OrganisersContact -->
<g id="node7" class="node"><title>OrganisersContact</title>
<ellipse fill="none" stroke="black" cx="308" cy="-183" rx="76.0649" ry="18"/>
<text text-anchor="middle" x="308" y="-179.3" font-family="Times,serif" font-size="14.00">OrganisersContact</text>
</g>
<!-- OrganisersContact&#45;&gt;Contact -->
<g id="edge3" class="edge"><title>OrganisersContact&#45;&gt;Contact</title>
<path fill="none" stroke="#d197e9" d="M308,-156.729C308,-144.725 308,-130.362 308,-118.129"/>
<ellipse fill="none" stroke="#d197e9" cx="308" cy="-160.884" rx="4" ry="4"/>
<polygon fill="#d197e9" stroke="#d197e9" points="308,-118.04 312.5,-108.04 308,-113.04 308,-108.04 308,-108.04 308,-108.04 308,-113.04 303.5,-108.04 308,-118.04 308,-118.04"/>
</g>
<!-- Partner -->
<g id="node8" class="node"><title>Partner</title>
<ellipse fill="none" stroke="black" cx="757" cy="-183" rx="36.096" ry="18"/>
<text text-anchor="middle" x="757" y="-179.3" font-family="Times,serif" font-size="14.00">Partner</text>
</g>
<!-- Attendee -->
<g id="node10" class="node"><title>Attendee</title>
<ellipse fill="none" stroke="black" cx="854" cy="-183" rx="42.3701" ry="18"/>
<text text-anchor="middle" x="854" y="-179.3" font-family="Times,serif" font-size="14.00">Attendee</text>
</g>
</g>
</svg>
