<?xml version="1.0" encoding="UTF-8" standalone="no"?>
<!DOCTYPE svg PUBLIC "-//W3C//DTD SVG 1.1//EN"
 "http://www.w3.org/Graphics/SVG/1.1/DTD/svg11.dtd">
<!-- Generated by graphviz version 2.36.0 (20140111.2315)
 -->
<!-- Title: models_diagram Pages: 1 -->
<svg width="752pt" height="230pt"
 viewBox="0.00 0.00 752.00 230.00" xmlns="http://www.w3.org/2000/svg" xmlns:xlink="http://www.w3.org/1999/xlink">
<g id="graph0" class="graph" transform="scale(1 1) rotate(0) translate(4 226)">
<title>models_diagram</title>
<polygon fill="none" stroke="none" points="-4,4 -4,-226 748,-226 748,4 -4,4"/>
<!-- _diagram_info -->
<g id="node1" class="node"><title>_diagram_info</title>
<text text-anchor="start" x="7" y="-207.6" font-family="Times,serif" font-size="13.00">Models diagram</text>
<text text-anchor="start" x="7" y="-193.6" font-family="Times,serif" font-size="13.00">Date: Nov 19 2015 &#45; 08:08</text>
<text text-anchor="start" x="7" y="-179.6" font-family="Times,serif" font-size="13.00">Migration version: 20151119055649</text>
<text text-anchor="start" x="7" y="-165.6" font-family="Times,serif" font-size="13.00">Generated by RailRoady 1.4.1</text>
<text text-anchor="start" x="7" y="-151.6" font-family="Times,serif" font-size="13.00">http://railroady.prestonlee.com</text>
</g>
<!-- ContactType -->
<g id="node2" class="node"><title>ContactType</title>
<ellipse fill="none" stroke="black" cx="307" cy="-18" rx="55.3436" ry="18"/>
<text text-anchor="middle" x="307" y="-14.3" font-family="Times,serif" font-size="14.00">ContactType</text>
</g>
<!-- Contact -->
<g id="node3" class="node"><title>Contact</title>
<ellipse fill="none" stroke="black" cx="307" cy="-90" rx="38.0212" ry="18"/>
<text text-anchor="middle" x="307" y="-86.3" font-family="Times,serif" font-size="14.00">Contact</text>
</g>
<!-- Contact&#45;&gt;ContactType -->
<g id="edge1" class="edge"><title>Contact&#45;&gt;ContactType</title>
<path fill="none" stroke="#f9698f" d="M307,-63.6398C307,-57.348 307,-50.6053 307,-44.3156"/>
<ellipse fill="none" stroke="#f9698f" cx="307" cy="-67.6966" rx="4" ry="4"/>
<ellipse fill="#f9698f" stroke="#f9698f" cx="307" cy="-40.1043" rx="4" ry="4"/>
</g>
<!-- User -->
<g id="node4" class="node"><title>User</title>
<ellipse fill="none" stroke="black" cx="428" cy="-183" rx="26.949" ry="18"/>
<text text-anchor="middle" x="428" y="-179.3" font-family="Times,serif" font-size="14.00">User</text>
</g>
<!-- Speaker -->
<g id="node5" class="node"><title>Speaker</title>
<ellipse fill="none" stroke="black" cx="512" cy="-183" rx="38.4949" ry="18"/>
<text text-anchor="middle" x="512" y="-179.3" font-family="Times,serif" font-size="14.00">Speaker</text>
</g>
<!-- OrganisersContact -->
<g id="node6" class="node"><title>OrganisersContact</title>
<ellipse fill="none" stroke="black" cx="307" cy="-183" rx="76.0649" ry="18"/>
<text text-anchor="middle" x="307" y="-179.3" font-family="Times,serif" font-size="14.00">OrganisersContact</text>
</g>
<!-- OrganisersContact&#45;&gt;Contact -->
<g id="edge2" class="edge"><title>OrganisersContact&#45;&gt;Contact</title>
<path fill="none" stroke="#5af992" d="M307,-156.729C307,-144.725 307,-130.362 307,-118.129"/>
<ellipse fill="none" stroke="#5af992" cx="307" cy="-160.884" rx="4" ry="4"/>
<polygon fill="#5af992" stroke="#5af992" points="307,-118.04 311.5,-108.04 307,-113.04 307,-108.04 307,-108.04 307,-108.04 307,-113.04 302.5,-108.04 307,-118.04 307,-118.04"/>
</g>
<!-- Partner -->
<g id="node7" class="node"><title>Partner</title>
<ellipse fill="none" stroke="black" cx="605" cy="-183" rx="36.096" ry="18"/>
<text text-anchor="middle" x="605" y="-179.3" font-family="Times,serif" font-size="14.00">Partner</text>
</g>
<!-- Attendee -->
<g id="node8" class="node"><title>Attendee</title>
<ellipse fill="none" stroke="black" cx="702" cy="-183" rx="42.3701" ry="18"/>
<text text-anchor="middle" x="702" y="-179.3" font-family="Times,serif" font-size="14.00">Attendee</text>
</g>
</g>
</svg>
