<?xml version="1.0" encoding="UTF-8" standalone="no"?>
<!DOCTYPE svg PUBLIC "-//W3C//DTD SVG 1.1//EN"
 "http://www.w3.org/Graphics/SVG/1.1/DTD/svg11.dtd">
<!-- Generated by graphviz version 2.36.0 (20140111.2315)
 -->
<!-- Title: models_diagram Pages: 1 -->
<svg width="761pt" height="302pt"
 viewBox="0.00 0.00 761.00 302.00" xmlns="http://www.w3.org/2000/svg" xmlns:xlink="http://www.w3.org/1999/xlink">
<g id="graph0" class="graph" transform="scale(1 1) rotate(0) translate(4 298)">
<title>models_diagram</title>
<polygon fill="none" stroke="none" points="-4,4 -4,-298 757,-298 757,4 -4,4"/>
<!-- _diagram_info -->
<g id="node1" class="node"><title>_diagram_info</title>
<text text-anchor="start" x="8" y="-279.6" font-family="Times,serif" font-size="13.00">Models diagram</text>
<text text-anchor="start" x="8" y="-265.6" font-family="Times,serif" font-size="13.00">Date: Nov 19 2015 &#45; 12:28</text>
<text text-anchor="start" x="8" y="-251.6" font-family="Times,serif" font-size="13.00">Migration version: 20151119102638</text>
<text text-anchor="start" x="8" y="-237.6" font-family="Times,serif" font-size="13.00">Generated by RailRoady 1.4.1</text>
<text text-anchor="start" x="8" y="-223.6" font-family="Times,serif" font-size="13.00">http://railroady.prestonlee.com</text>
</g>
<!-- ContactType -->
<g id="node2" class="node"><title>ContactType</title>
<ellipse fill="none" stroke="black" cx="308" cy="-90" rx="55.3436" ry="18"/>
<text text-anchor="middle" x="308" y="-86.3" font-family="Times,serif" font-size="14.00">ContactType</text>
</g>
<!-- Contact -->
<g id="node3" class="node"><title>Contact</title>
<ellipse fill="none" stroke="black" cx="308" cy="-162" rx="38.0212" ry="18"/>
<text text-anchor="middle" x="308" y="-158.3" font-family="Times,serif" font-size="14.00">Contact</text>
</g>
<!-- Contact&#45;&gt;ContactType -->
<g id="edge1" class="edge"><title>Contact&#45;&gt;ContactType</title>
<path fill="none" stroke="#81c02a" d="M308,-135.64C308,-129.348 308,-122.605 308,-116.316"/>
<ellipse fill="none" stroke="#81c02a" cx="308" cy="-139.697" rx="4" ry="4"/>
<ellipse fill="#81c02a" stroke="#81c02a" cx="308" cy="-112.104" rx="4" ry="4"/>
</g>
<!-- Conference -->
<g id="node4" class="node"><title>Conference</title>
<ellipse fill="none" stroke="black" cx="517" cy="-255" rx="51.0191" ry="18"/>
<text text-anchor="middle" x="517" y="-251.3" font-family="Times,serif" font-size="14.00">Conference</text>
</g>
<!-- Speaker -->
<g id="node6" class="node"><title>Speaker</title>
<ellipse fill="none" stroke="black" cx="418" cy="-162" rx="38.4949" ry="18"/>
<text text-anchor="middle" x="418" y="-158.3" font-family="Times,serif" font-size="14.00">Speaker</text>
</g>
<!-- Conference&#45;&gt;Speaker -->
<g id="edge4" class="edge"><title>Conference&#45;&gt;Speaker</title>
<path fill="none" stroke="#fb4708" d="M491.551,-230.608C476.384,-216.666 457.237,-199.066 442.281,-185.319"/>
<polygon fill="#fb4708" stroke="#fb4708" points="491.938,-230.964 496.255,-241.044 495.62,-234.347 499.301,-237.731 499.301,-237.731 499.301,-237.731 495.62,-234.347 502.346,-234.418 491.938,-230.964 491.938,-230.964"/>
<polygon fill="#fb4708" stroke="#fb4708" points="442.247,-185.288 437.93,-175.208 438.566,-181.904 434.885,-178.521 434.885,-178.521 434.885,-178.521 438.566,-181.904 431.84,-181.834 442.247,-185.288 442.247,-185.288"/>
</g>
<!-- Partner -->
<g id="node10" class="node"><title>Partner</title>
<ellipse fill="none" stroke="black" cx="687" cy="-162" rx="36.096" ry="18"/>
<text text-anchor="middle" x="687" y="-158.3" font-family="Times,serif" font-size="14.00">Partner</text>
</g>
<!-- Conference&#45;&gt;Partner -->
<g id="edge3" class="edge"><title>Conference&#45;&gt;Partner</title>
<path fill="none" stroke="#cdb3f7" d="M552.872,-234.798C582.841,-218.756 625.218,-196.072 654.273,-180.518"/>
<polygon fill="#cdb3f7" stroke="#cdb3f7" points="552.753,-234.861 541.813,-235.613 548.345,-237.221 543.937,-239.581 543.937,-239.581 543.937,-239.581 548.345,-237.221 546.061,-243.548 552.753,-234.861 552.753,-234.861"/>
<polygon fill="#cdb3f7" stroke="#cdb3f7" points="654.39,-180.456 665.33,-179.704 658.798,-178.096 663.206,-175.737 663.206,-175.737 663.206,-175.737 658.798,-178.096 661.083,-171.769 654.39,-180.456 654.39,-180.456"/>
</g>
<!-- Attendee -->
<g id="node12" class="node"><title>Attendee</title>
<ellipse fill="none" stroke="black" cx="517" cy="-162" rx="42.3701" ry="18"/>
<text text-anchor="middle" x="517" y="-158.3" font-family="Times,serif" font-size="14.00">Attendee</text>
</g>
<!-- Conference&#45;&gt;Attendee -->
<g id="edge2" class="edge"><title>Conference&#45;&gt;Attendee</title>
<path fill="none" stroke="#ef9fb1" d="M517,-226.549C517,-215.083 517,-201.792 517,-190.339"/>
<polygon fill="#ef9fb1" stroke="#ef9fb1" points="517,-226.884 512.5,-236.884 517,-231.884 517,-236.884 517,-236.884 517,-236.884 517,-231.884 521.5,-236.884 517,-226.884 517,-226.884"/>
<polygon fill="#ef9fb1" stroke="#ef9fb1" points="517,-190.04 521.5,-180.04 517,-185.04 517,-180.04 517,-180.04 517,-180.04 517,-185.04 512.5,-180.04 517,-190.04 517,-190.04"/>
</g>
<!-- User -->
<g id="node5" class="node"><title>User</title>
<ellipse fill="none" stroke="black" cx="605" cy="-162" rx="26.949" ry="18"/>
<text text-anchor="middle" x="605" y="-158.3" font-family="Times,serif" font-size="14.00">User</text>
</g>
<!-- Feedback -->
<g id="node8" class="node"><title>Feedback</title>
<ellipse fill="none" stroke="black" cx="538" cy="-90" rx="44.2946" ry="18"/>
<text text-anchor="middle" x="538" y="-86.3" font-family="Times,serif" font-size="14.00">Feedback</text>
</g>
<!-- User&#45;&gt;Feedback -->
<g id="edge5" class="edge"><title>User&#45;&gt;Feedback</title>
<path fill="none" stroke="#529a49" d="M585.367,-140.488C577.526,-132.296 568.454,-122.817 560.36,-114.361"/>
<ellipse fill="none" stroke="#529a49" cx="588.352" cy="-143.606" rx="4.00002" ry="4.00002"/>
<polygon fill="#529a49" stroke="#529a49" points="560.181,-114.174 556.517,-103.838 556.723,-110.562 553.266,-106.95 553.266,-106.95 553.266,-106.95 556.723,-110.562 550.015,-110.061 560.181,-114.174 560.181,-114.174"/>
</g>
<!-- Speaker&#45;&gt;Feedback -->
<g id="edge6" class="edge"><title>Speaker&#45;&gt;Feedback</title>
<path fill="none" stroke="#dca22a" d="M448.298,-143.326C465.539,-133.269 487.155,-120.66 504.848,-110.339"/>
<ellipse fill="none" stroke="#dca22a" cx="444.592" cy="-145.488" rx="4.00002" ry="4.00002"/>
<polygon fill="#dca22a" stroke="#dca22a" points="505.06,-110.215 515.966,-109.063 509.379,-107.695 513.698,-105.176 513.698,-105.176 513.698,-105.176 509.379,-107.695 511.431,-101.289 505.06,-110.215 505.06,-110.215"/>
</g>
<!-- Speech -->
<g id="node13" class="node"><title>Speech</title>
<ellipse fill="none" stroke="black" cx="418" cy="-90" rx="36.096" ry="18"/>
<text text-anchor="middle" x="418" y="-86.3" font-family="Times,serif" font-size="14.00">Speech</text>
</g>
<!-- Speaker&#45;&gt;Speech -->
<g id="edge7" class="edge"><title>Speaker&#45;&gt;Speech</title>
<path fill="none" stroke="#bf8dfb" d="M418,-135.64C418,-130.063 418,-124.132 418,-118.476"/>
<ellipse fill="none" stroke="#bf8dfb" cx="418" cy="-139.697" rx="4" ry="4"/>
<polygon fill="#bf8dfb" stroke="#bf8dfb" points="418,-118.104 422.5,-108.104 418,-113.104 418,-108.104 418,-108.104 418,-108.104 418,-113.104 413.5,-108.104 418,-118.104 418,-118.104"/>
</g>
<!-- PartnershipPlan -->
<g id="node7" class="node"><title>PartnershipPlan</title>
<ellipse fill="none" stroke="black" cx="687" cy="-90" rx="65.9423" ry="18"/>
<text text-anchor="middle" x="687" y="-86.3" font-family="Times,serif" font-size="14.00">PartnershipPlan</text>
</g>
<!-- PartnershipPerk -->
<g id="node11" class="node"><title>PartnershipPerk</title>
<ellipse fill="none" stroke="black" cx="687" cy="-18" rx="66.4165" ry="18"/>
<text text-anchor="middle" x="687" y="-14.3" font-family="Times,serif" font-size="14.00">PartnershipPerk</text>
</g>
<!-- PartnershipPlan&#45;&gt;PartnershipPerk -->
<g id="edge8" class="edge"><title>PartnershipPlan&#45;&gt;PartnershipPerk</title>
<path fill="none" stroke="#636005" d="M687,-63.6398C687,-58.0629 687,-52.1319 687,-46.4761"/>
<ellipse fill="none" stroke="#636005" cx="687" cy="-67.6966" rx="4" ry="4"/>
<polygon fill="#636005" stroke="#636005" points="687,-46.1043 691.5,-36.1043 687,-41.1043 687,-36.1043 687,-36.1043 687,-36.1043 687,-41.1043 682.5,-36.1044 687,-46.1043 687,-46.1043"/>
</g>
<!-- OrganisersContact -->
<g id="node9" class="node"><title>OrganisersContact</title>
<ellipse fill="none" stroke="black" cx="308" cy="-255" rx="76.0649" ry="18"/>
<text text-anchor="middle" x="308" y="-251.3" font-family="Times,serif" font-size="14.00">OrganisersContact</text>
</g>
<!-- OrganisersContact&#45;&gt;Contact -->
<g id="edge9" class="edge"><title>OrganisersContact&#45;&gt;Contact</title>
<path fill="none" stroke="#f5aad5" d="M308,-228.729C308,-216.725 308,-202.362 308,-190.129"/>
<ellipse fill="none" stroke="#f5aad5" cx="308" cy="-232.884" rx="4" ry="4"/>
<polygon fill="#f5aad5" stroke="#f5aad5" points="308,-190.04 312.5,-180.04 308,-185.04 308,-180.04 308,-180.04 308,-180.04 308,-185.04 303.5,-180.04 308,-190.04 308,-190.04"/>
</g>
<!-- Partner&#45;&gt;PartnershipPlan -->
<g id="edge11" class="edge"><title>Partner&#45;&gt;PartnershipPlan</title>
<path fill="none" stroke="#4f10fc" d="M687,-135.64C687,-129.348 687,-122.605 687,-116.316"/>
<ellipse fill="none" stroke="#4f10fc" cx="687" cy="-139.697" rx="4" ry="4"/>
<ellipse fill="#4f10fc" stroke="#4f10fc" cx="687" cy="-112.104" rx="4" ry="4"/>
</g>
<!-- Partner&#45;&gt;Feedback -->
<g id="edge10" class="edge"><title>Partner&#45;&gt;Feedback</title>
<path fill="none" stroke="#f7ad15" d="M653.869,-145.435C630.511,-134.461 599.207,-119.755 575.025,-108.394"/>
<ellipse fill="none" stroke="#f7ad15" cx="657.766" cy="-147.266" rx="4.00002" ry="4.00002"/>
<polygon fill="#f7ad15" stroke="#f7ad15" points="574.858,-108.316 567.721,-99.9909 570.333,-106.19 565.807,-104.064 565.807,-104.064 565.807,-104.064 570.333,-106.19 563.894,-108.137 574.858,-108.316 574.858,-108.316"/>
</g>
<!-- Attendee&#45;&gt;Feedback -->
<g id="edge12" class="edge"><title>Attendee&#45;&gt;Feedback</title>
<path fill="none" stroke="#8a01fa" d="M524.42,-136.267C526.198,-130.34 528.106,-123.981 529.912,-117.959"/>
<ellipse fill="none" stroke="#8a01fa" cx="523.233" cy="-140.224" rx="4.00001" ry="4.00001"/>
<polygon fill="#8a01fa" stroke="#8a01fa" points="529.944,-117.854 537.128,-109.568 531.381,-113.064 532.817,-108.275 532.817,-108.275 532.817,-108.275 531.381,-113.064 528.507,-106.982 529.944,-117.854 529.944,-117.854"/>
</g>
</g>
</svg>
