<?xml version="1.0" encoding="UTF-8" standalone="no"?>
<!DOCTYPE svg PUBLIC "-//W3C//DTD SVG 1.1//EN"
 "http://www.w3.org/Graphics/SVG/1.1/DTD/svg11.dtd">
<!-- Generated by graphviz version 2.36.0 (20140111.2315)
 -->
<!-- Title: models_diagram Pages: 1 -->
<svg width="2071pt" height="704pt"
 viewBox="0.00 0.00 2071.00 704.00" xmlns="http://www.w3.org/2000/svg" xmlns:xlink="http://www.w3.org/1999/xlink">
<g id="graph0" class="graph" transform="scale(1 1) rotate(0) translate(4 700)">
<title>models_diagram</title>
<polygon fill="none" stroke="none" points="-4,4 -4,-700 2067,-700 2067,4 -4,4"/>
<!-- _diagram_info -->
<g id="node1" class="node"><title>_diagram_info</title>
<text text-anchor="start" x="8" y="-651.6" font-family="Times,serif" font-size="13.00">Models diagram</text>
<text text-anchor="start" x="8" y="-637.6" font-family="Times,serif" font-size="13.00">Date: Nov 19 2015 &#45; 09:06</text>
<text text-anchor="start" x="8" y="-623.6" font-family="Times,serif" font-size="13.00">Migration version: 20151119070055</text>
<text text-anchor="start" x="8" y="-609.6" font-family="Times,serif" font-size="13.00">Generated by RailRoady 1.4.1</text>
<text text-anchor="start" x="8" y="-595.6" font-family="Times,serif" font-size="13.00">http://railroady.prestonlee.com</text>
</g>
<!-- ContactType -->
<g id="node2" class="node"><title>ContactType</title>
<path fill="none" stroke="black" d="M244,-1C244,-1 464,-1 464,-1 470,-1 476,-7 476,-13 476,-13 476,-95 476,-95 476,-101 470,-107 464,-107 464,-107 244,-107 244,-107 238,-107 232,-101 232,-95 232,-95 232,-13 232,-13 232,-7 238,-1 244,-1"/>
<text text-anchor="middle" x="354" y="-91.8" font-family="Times,serif" font-size="14.00">ContactType</text>
<polyline fill="none" stroke="black" points="232,-84 476,-84 "/>
<text text-anchor="start" x="240" y="-68.8" font-family="Times,serif" font-size="14.00">id :integer</text>
<text text-anchor="start" x="240" y="-53.8" font-family="Times,serif" font-size="14.00">name :character varying</text>
<text text-anchor="start" x="240" y="-38.8" font-family="Times,serif" font-size="14.00">contact_id :integer</text>
<text text-anchor="start" x="240" y="-23.8" font-family="Times,serif" font-size="14.00">created_at :timestamp without time zone</text>
<text text-anchor="start" x="240" y="-8.8" font-family="Times,serif" font-size="14.00">updated_at :timestamp without time zone</text>
</g>
<!-- Contact -->
<g id="node3" class="node"><title>Contact</title>
<path fill="none" stroke="black" d="M244,-280C244,-280 464,-280 464,-280 470,-280 476,-286 476,-292 476,-292 476,-374 476,-374 476,-380 470,-386 464,-386 464,-386 244,-386 244,-386 238,-386 232,-380 232,-374 232,-374 232,-292 232,-292 232,-286 238,-280 244,-280"/>
<text text-anchor="middle" x="354" y="-370.8" font-family="Times,serif" font-size="14.00">Contact</text>
<polyline fill="none" stroke="black" points="232,-363 476,-363 "/>
<text text-anchor="start" x="240" y="-347.8" font-family="Times,serif" font-size="14.00">id :integer</text>
<text text-anchor="start" x="240" y="-332.8" font-family="Times,serif" font-size="14.00">contact :character varying</text>
<text text-anchor="start" x="240" y="-317.8" font-family="Times,serif" font-size="14.00">organisers_contact_id :integer</text>
<text text-anchor="start" x="240" y="-302.8" font-family="Times,serif" font-size="14.00">created_at :timestamp without time zone</text>
<text text-anchor="start" x="240" y="-287.8" font-family="Times,serif" font-size="14.00">updated_at :timestamp without time zone</text>
</g>
<!-- Contact&#45;&gt;ContactType -->
<g id="edge1" class="edge"><title>Contact&#45;&gt;ContactType</title>
<path fill="none" stroke="#130108" d="M354,-271.892C354,-225.601 354,-161.888 354,-115.499"/>
<ellipse fill="none" stroke="#130108" cx="354" cy="-275.898" rx="4" ry="4"/>
<ellipse fill="#130108" stroke="#130108" cx="354" cy="-111.338" rx="4" ry="4"/>
</g>
<!-- Conference -->
<g id="node4" class="node"><title>Conference</title>
<path fill="none" stroke="black" d="M541,-559C541,-559 761,-559 761,-559 767,-559 773,-565 773,-571 773,-571 773,-683 773,-683 773,-689 767,-695 761,-695 761,-695 541,-695 541,-695 535,-695 529,-689 529,-683 529,-683 529,-571 529,-571 529,-565 535,-559 541,-559"/>
<text text-anchor="middle" x="651" y="-679.8" font-family="Times,serif" font-size="14.00">Conference</text>
<polyline fill="none" stroke="black" points="529,-672 773,-672 "/>
<text text-anchor="start" x="537" y="-656.8" font-family="Times,serif" font-size="14.00">id :integer</text>
<text text-anchor="start" x="537" y="-641.8" font-family="Times,serif" font-size="14.00">name :character varying</text>
<text text-anchor="start" x="537" y="-626.8" font-family="Times,serif" font-size="14.00">description :text</text>
<text text-anchor="start" x="537" y="-611.8" font-family="Times,serif" font-size="14.00">date :date</text>
<text text-anchor="start" x="537" y="-596.8" font-family="Times,serif" font-size="14.00">place :character varying</text>
<text text-anchor="start" x="537" y="-581.8" font-family="Times,serif" font-size="14.00">created_at :timestamp without time zone</text>
<text text-anchor="start" x="537" y="-566.8" font-family="Times,serif" font-size="14.00">updated_at :timestamp without time zone</text>
</g>
<!-- Speaker -->
<g id="node6" class="node"><title>Speaker</title>
<path fill="none" stroke="black" d="M506.5,-145C506.5,-145 795.5,-145 795.5,-145 801.5,-145 807.5,-151 807.5,-157 807.5,-157 807.5,-509 807.5,-509 807.5,-515 801.5,-521 795.5,-521 795.5,-521 506.5,-521 506.5,-521 500.5,-521 494.5,-515 494.5,-509 494.5,-509 494.5,-157 494.5,-157 494.5,-151 500.5,-145 506.5,-145"/>
<text text-anchor="middle" x="651" y="-505.8" font-family="Times,serif" font-size="14.00">Speaker</text>
<polyline fill="none" stroke="black" points="494.5,-498 807.5,-498 "/>
<text text-anchor="start" x="502.5" y="-482.8" font-family="Times,serif" font-size="14.00">id :integer</text>
<text text-anchor="start" x="502.5" y="-467.8" font-family="Times,serif" font-size="14.00">first_name :character varying</text>
<text text-anchor="start" x="502.5" y="-452.8" font-family="Times,serif" font-size="14.00">last_name :character varying</text>
<text text-anchor="start" x="502.5" y="-437.8" font-family="Times,serif" font-size="14.00">type :character varying</text>
<text text-anchor="start" x="502.5" y="-422.8" font-family="Times,serif" font-size="14.00">created_at :timestamp without time zone</text>
<text text-anchor="start" x="502.5" y="-407.8" font-family="Times,serif" font-size="14.00">updated_at :timestamp without time zone</text>
<text text-anchor="start" x="502.5" y="-392.8" font-family="Times,serif" font-size="14.00">email :character varying</text>
<text text-anchor="start" x="502.5" y="-377.8" font-family="Times,serif" font-size="14.00">encrypted_password :character varying</text>
<text text-anchor="start" x="502.5" y="-362.8" font-family="Times,serif" font-size="14.00">reset_password_token :character varying</text>
<text text-anchor="start" x="502.5" y="-347.8" font-family="Times,serif" font-size="14.00">reset_password_sent_at :timestamp without time zone</text>
<text text-anchor="start" x="502.5" y="-332.8" font-family="Times,serif" font-size="14.00">remember_created_at :timestamp without time zone</text>
<text text-anchor="start" x="502.5" y="-317.8" font-family="Times,serif" font-size="14.00">sign_in_count :integer</text>
<text text-anchor="start" x="502.5" y="-302.8" font-family="Times,serif" font-size="14.00">current_sign_in_at :timestamp without time zone</text>
<text text-anchor="start" x="502.5" y="-287.8" font-family="Times,serif" font-size="14.00">last_sign_in_at :timestamp without time zone</text>
<text text-anchor="start" x="502.5" y="-272.8" font-family="Times,serif" font-size="14.00">current_sign_in_ip :inet</text>
<text text-anchor="start" x="502.5" y="-257.8" font-family="Times,serif" font-size="14.00">last_sign_in_ip :inet</text>
<text text-anchor="start" x="502.5" y="-242.8" font-family="Times,serif" font-size="14.00">confirmation_token :character varying</text>
<text text-anchor="start" x="502.5" y="-227.8" font-family="Times,serif" font-size="14.00">confirmed_at :timestamp without time zone</text>
<text text-anchor="start" x="502.5" y="-212.8" font-family="Times,serif" font-size="14.00">confirmation_sent_at :timestamp without time zone</text>
<text text-anchor="start" x="502.5" y="-197.8" font-family="Times,serif" font-size="14.00">unconfirmed_email :character varying</text>
<text text-anchor="start" x="502.5" y="-182.8" font-family="Times,serif" font-size="14.00">failed_attempts :integer</text>
<text text-anchor="start" x="502.5" y="-167.8" font-family="Times,serif" font-size="14.00">unlock_token :character varying</text>
<text text-anchor="start" x="502.5" y="-152.8" font-family="Times,serif" font-size="14.00">locked_at :timestamp without time zone</text>
</g>
<!-- Conference&#45;&gt;Speaker -->
<g id="edge2" class="edge"><title>Conference&#45;&gt;Speaker</title>
<path fill="none" stroke="#85dc50" d="M651,-548.548C651,-542.927 651,-537.13 651,-531.204"/>
<polygon fill="#85dc50" stroke="#85dc50" points="651,-548.643 646.5,-558.643 651,-553.643 651,-558.643 651,-558.643 651,-558.643 651,-553.643 655.5,-558.643 651,-548.643 651,-548.643"/>
<polygon fill="#85dc50" stroke="#85dc50" points="651,-531.118 655.5,-521.118 651,-526.118 651,-521.118 651,-521.118 651,-521.118 651,-526.118 646.5,-521.118 651,-531.118 651,-531.118"/>
</g>
<!-- User -->
<g id="node5" class="node"><title>User</title>
<path fill="none" stroke="black" d="M837.5,-145C837.5,-145 1126.5,-145 1126.5,-145 1132.5,-145 1138.5,-151 1138.5,-157 1138.5,-157 1138.5,-509 1138.5,-509 1138.5,-515 1132.5,-521 1126.5,-521 1126.5,-521 837.5,-521 837.5,-521 831.5,-521 825.5,-515 825.5,-509 825.5,-509 825.5,-157 825.5,-157 825.5,-151 831.5,-145 837.5,-145"/>
<text text-anchor="middle" x="982" y="-505.8" font-family="Times,serif" font-size="14.00">User</text>
<polyline fill="none" stroke="black" points="825.5,-498 1138.5,-498 "/>
<text text-anchor="start" x="833.5" y="-482.8" font-family="Times,serif" font-size="14.00">id :integer</text>
<text text-anchor="start" x="833.5" y="-467.8" font-family="Times,serif" font-size="14.00">first_name :character varying</text>
<text text-anchor="start" x="833.5" y="-452.8" font-family="Times,serif" font-size="14.00">last_name :character varying</text>
<text text-anchor="start" x="833.5" y="-437.8" font-family="Times,serif" font-size="14.00">type :character varying</text>
<text text-anchor="start" x="833.5" y="-422.8" font-family="Times,serif" font-size="14.00">created_at :timestamp without time zone</text>
<text text-anchor="start" x="833.5" y="-407.8" font-family="Times,serif" font-size="14.00">updated_at :timestamp without time zone</text>
<text text-anchor="start" x="833.5" y="-392.8" font-family="Times,serif" font-size="14.00">email :character varying</text>
<text text-anchor="start" x="833.5" y="-377.8" font-family="Times,serif" font-size="14.00">encrypted_password :character varying</text>
<text text-anchor="start" x="833.5" y="-362.8" font-family="Times,serif" font-size="14.00">reset_password_token :character varying</text>
<text text-anchor="start" x="833.5" y="-347.8" font-family="Times,serif" font-size="14.00">reset_password_sent_at :timestamp without time zone</text>
<text text-anchor="start" x="833.5" y="-332.8" font-family="Times,serif" font-size="14.00">remember_created_at :timestamp without time zone</text>
<text text-anchor="start" x="833.5" y="-317.8" font-family="Times,serif" font-size="14.00">sign_in_count :integer</text>
<text text-anchor="start" x="833.5" y="-302.8" font-family="Times,serif" font-size="14.00">current_sign_in_at :timestamp without time zone</text>
<text text-anchor="start" x="833.5" y="-287.8" font-family="Times,serif" font-size="14.00">last_sign_in_at :timestamp without time zone</text>
<text text-anchor="start" x="833.5" y="-272.8" font-family="Times,serif" font-size="14.00">current_sign_in_ip :inet</text>
<text text-anchor="start" x="833.5" y="-257.8" font-family="Times,serif" font-size="14.00">last_sign_in_ip :inet</text>
<text text-anchor="start" x="833.5" y="-242.8" font-family="Times,serif" font-size="14.00">confirmation_token :character varying</text>
<text text-anchor="start" x="833.5" y="-227.8" font-family="Times,serif" font-size="14.00">confirmed_at :timestamp without time zone</text>
<text text-anchor="start" x="833.5" y="-212.8" font-family="Times,serif" font-size="14.00">confirmation_sent_at :timestamp without time zone</text>
<text text-anchor="start" x="833.5" y="-197.8" font-family="Times,serif" font-size="14.00">unconfirmed_email :character varying</text>
<text text-anchor="start" x="833.5" y="-182.8" font-family="Times,serif" font-size="14.00">failed_attempts :integer</text>
<text text-anchor="start" x="833.5" y="-167.8" font-family="Times,serif" font-size="14.00">unlock_token :character varying</text>
<text text-anchor="start" x="833.5" y="-152.8" font-family="Times,serif" font-size="14.00">locked_at :timestamp without time zone</text>
</g>
<!-- Feedback -->
<g id="node8" class="node"><title>Feedback</title>
<path fill="none" stroke="black" d="M1037,-1C1037,-1 1257,-1 1257,-1 1263,-1 1269,-7 1269,-13 1269,-13 1269,-95 1269,-95 1269,-101 1263,-107 1257,-107 1257,-107 1037,-107 1037,-107 1031,-107 1025,-101 1025,-95 1025,-95 1025,-13 1025,-13 1025,-7 1031,-1 1037,-1"/>
<text text-anchor="middle" x="1147" y="-91.8" font-family="Times,serif" font-size="14.00">Feedback</text>
<polyline fill="none" stroke="black" points="1025,-84 1269,-84 "/>
<text text-anchor="start" x="1033" y="-68.8" font-family="Times,serif" font-size="14.00">id :integer</text>
<text text-anchor="start" x="1033" y="-53.8" font-family="Times,serif" font-size="14.00">feedback :text</text>
<text text-anchor="start" x="1033" y="-38.8" font-family="Times,serif" font-size="14.00">user_id :integer</text>
<text text-anchor="start" x="1033" y="-23.8" font-family="Times,serif" font-size="14.00">created_at :timestamp without time zone</text>
<text text-anchor="start" x="1033" y="-8.8" font-family="Times,serif" font-size="14.00">updated_at :timestamp without time zone</text>
</g>
<!-- User&#45;&gt;Feedback -->
<g id="edge3" class="edge"><title>User&#45;&gt;Feedback</title>
<path fill="none" stroke="#e695ae" d="M1097.69,-137.776C1102.11,-130.365 1106.37,-123.209 1110.42,-116.417"/>
<ellipse fill="none" stroke="#e695ae" cx="1095.48" cy="-141.497" rx="4.00002" ry="4.00002"/>
<polygon fill="#e695ae" stroke="#e695ae" points="1110.68,-115.98 1119.66,-109.692 1113.23,-111.685 1115.79,-107.389 1115.79,-107.389 1115.79,-107.389 1113.23,-111.685 1111.93,-105.086 1110.68,-115.98 1110.68,-115.98"/>
</g>
<!-- Speaker&#45;&gt;Feedback -->
<g id="edge4" class="edge"><title>Speaker&#45;&gt;Feedback</title>
<path fill="none" stroke="#241963" d="M814.705,-144.811C815.136,-144.539 815.568,-144.269 816,-144 875.83,-106.776 951.131,-84.9455 1014.79,-72.2329"/>
<ellipse fill="none" stroke="#241963" cx="811.116" cy="-147.153" rx="4.00002" ry="4.00002"/>
<polygon fill="#241963" stroke="#241963" points="1015.09,-72.1756 1025.76,-74.6875 1019.99,-71.2228 1024.9,-70.27 1024.9,-70.27 1024.9,-70.27 1019.99,-71.2228 1024.04,-65.8524 1015.09,-72.1756 1015.09,-72.1756"/>
</g>
<!-- PartnershipPlan -->
<g id="node7" class="node"><title>PartnershipPlan</title>
<path fill="none" stroke="black" d="M1831,-574C1831,-574 2051,-574 2051,-574 2057,-574 2063,-580 2063,-586 2063,-586 2063,-668 2063,-668 2063,-674 2057,-680 2051,-680 2051,-680 1831,-680 1831,-680 1825,-680 1819,-674 1819,-668 1819,-668 1819,-586 1819,-586 1819,-580 1825,-574 1831,-574"/>
<text text-anchor="middle" x="1941" y="-664.8" font-family="Times,serif" font-size="14.00">PartnershipPlan</text>
<polyline fill="none" stroke="black" points="1819,-657 2063,-657 "/>
<text text-anchor="start" x="1827" y="-641.8" font-family="Times,serif" font-size="14.00">id :integer</text>
<text text-anchor="start" x="1827" y="-626.8" font-family="Times,serif" font-size="14.00">name :character varying</text>
<text text-anchor="start" x="1827" y="-611.8" font-family="Times,serif" font-size="14.00">description :text</text>
<text text-anchor="start" x="1827" y="-596.8" font-family="Times,serif" font-size="14.00">created_at :timestamp without time zone</text>
<text text-anchor="start" x="1827" y="-581.8" font-family="Times,serif" font-size="14.00">updated_at :timestamp without time zone</text>
</g>
<!-- PartnershipPerk -->
<g id="node11" class="node"><title>PartnershipPerk</title>
<path fill="none" stroke="black" d="M1831,-272.5C1831,-272.5 2051,-272.5 2051,-272.5 2057,-272.5 2063,-278.5 2063,-284.5 2063,-284.5 2063,-381.5 2063,-381.5 2063,-387.5 2057,-393.5 2051,-393.5 2051,-393.5 1831,-393.5 1831,-393.5 1825,-393.5 1819,-387.5 1819,-381.5 1819,-381.5 1819,-284.5 1819,-284.5 1819,-278.5 1825,-272.5 1831,-272.5"/>
<text text-anchor="middle" x="1941" y="-378.3" font-family="Times,serif" font-size="14.00">PartnershipPerk</text>
<polyline fill="none" stroke="black" points="1819,-370.5 2063,-370.5 "/>
<text text-anchor="start" x="1827" y="-355.3" font-family="Times,serif" font-size="14.00">id :integer</text>
<text text-anchor="start" x="1827" y="-340.3" font-family="Times,serif" font-size="14.00">name :character varying</text>
<text text-anchor="start" x="1827" y="-325.3" font-family="Times,serif" font-size="14.00">description :text</text>
<text text-anchor="start" x="1827" y="-310.3" font-family="Times,serif" font-size="14.00">partnership_plan_id :integer</text>
<text text-anchor="start" x="1827" y="-295.3" font-family="Times,serif" font-size="14.00">created_at :timestamp without time zone</text>
<text text-anchor="start" x="1827" y="-280.3" font-family="Times,serif" font-size="14.00">updated_at :timestamp without time zone</text>
</g>
<!-- PartnershipPlan&#45;&gt;PartnershipPerk -->
<g id="edge5" class="edge"><title>PartnershipPlan&#45;&gt;PartnershipPerk</title>
<path fill="none" stroke="#beaf0b" d="M1941,-565.58C1941,-518.516 1941,-453.113 1941,-403.812"/>
<ellipse fill="none" stroke="#beaf0b" cx="1941" cy="-569.796" rx="4" ry="4"/>
<polygon fill="#beaf0b" stroke="#beaf0b" points="1941,-403.549 1945.5,-393.548 1941,-398.549 1941,-393.549 1941,-393.549 1941,-393.549 1941,-398.549 1936.5,-393.549 1941,-403.549 1941,-403.549"/>
</g>
<!-- OrganisersContact -->
<g id="node9" class="node"><title>OrganisersContact</title>
<path fill="none" stroke="black" d="M244,-581.5C244,-581.5 464,-581.5 464,-581.5 470,-581.5 476,-587.5 476,-593.5 476,-593.5 476,-660.5 476,-660.5 476,-666.5 470,-672.5 464,-672.5 464,-672.5 244,-672.5 244,-672.5 238,-672.5 232,-666.5 232,-660.5 232,-660.5 232,-593.5 232,-593.5 232,-587.5 238,-581.5 244,-581.5"/>
<text text-anchor="middle" x="354" y="-657.3" font-family="Times,serif" font-size="14.00">OrganisersContact</text>
<polyline fill="none" stroke="black" points="232,-649.5 476,-649.5 "/>
<text text-anchor="start" x="240" y="-634.3" font-family="Times,serif" font-size="14.00">id :integer</text>
<text text-anchor="start" x="240" y="-619.3" font-family="Times,serif" font-size="14.00">name :character varying</text>
<text text-anchor="start" x="240" y="-604.3" font-family="Times,serif" font-size="14.00">created_at :timestamp without time zone</text>
<text text-anchor="start" x="240" y="-589.3" font-family="Times,serif" font-size="14.00">updated_at :timestamp without time zone</text>
</g>
<!-- OrganisersContact&#45;&gt;Contact -->
<g id="edge6" class="edge"><title>OrganisersContact&#45;&gt;Contact</title>
<path fill="none" stroke="#14545f" d="M354,-573.067C354,-523.32 354,-448.851 354,-396.27"/>
<ellipse fill="none" stroke="#14545f" cx="354" cy="-577.334" rx="4" ry="4"/>
<polygon fill="#14545f" stroke="#14545f" points="354,-396.06 358.5,-386.06 354,-391.06 354,-386.06 354,-386.06 354,-386.06 354,-391.06 349.5,-386.06 354,-396.06 354,-396.06"/>
</g>
<!-- Partner -->
<g id="node10" class="node"><title>Partner</title>
<path fill="none" stroke="black" d="M1168.5,-145C1168.5,-145 1457.5,-145 1457.5,-145 1463.5,-145 1469.5,-151 1469.5,-157 1469.5,-157 1469.5,-509 1469.5,-509 1469.5,-515 1463.5,-521 1457.5,-521 1457.5,-521 1168.5,-521 1168.5,-521 1162.5,-521 1156.5,-515 1156.5,-509 1156.5,-509 1156.5,-157 1156.5,-157 1156.5,-151 1162.5,-145 1168.5,-145"/>
<text text-anchor="middle" x="1313" y="-505.8" font-family="Times,serif" font-size="14.00">Partner</text>
<polyline fill="none" stroke="black" points="1156.5,-498 1469.5,-498 "/>
<text text-anchor="start" x="1164.5" y="-482.8" font-family="Times,serif" font-size="14.00">id :integer</text>
<text text-anchor="start" x="1164.5" y="-467.8" font-family="Times,serif" font-size="14.00">first_name :character varying</text>
<text text-anchor="start" x="1164.5" y="-452.8" font-family="Times,serif" font-size="14.00">last_name :character varying</text>
<text text-anchor="start" x="1164.5" y="-437.8" font-family="Times,serif" font-size="14.00">type :character varying</text>
<text text-anchor="start" x="1164.5" y="-422.8" font-family="Times,serif" font-size="14.00">created_at :timestamp without time zone</text>
<text text-anchor="start" x="1164.5" y="-407.8" font-family="Times,serif" font-size="14.00">updated_at :timestamp without time zone</text>
<text text-anchor="start" x="1164.5" y="-392.8" font-family="Times,serif" font-size="14.00">email :character varying</text>
<text text-anchor="start" x="1164.5" y="-377.8" font-family="Times,serif" font-size="14.00">encrypted_password :character varying</text>
<text text-anchor="start" x="1164.5" y="-362.8" font-family="Times,serif" font-size="14.00">reset_password_token :character varying</text>
<text text-anchor="start" x="1164.5" y="-347.8" font-family="Times,serif" font-size="14.00">reset_password_sent_at :timestamp without time zone</text>
<text text-anchor="start" x="1164.5" y="-332.8" font-family="Times,serif" font-size="14.00">remember_created_at :timestamp without time zone</text>
<text text-anchor="start" x="1164.5" y="-317.8" font-family="Times,serif" font-size="14.00">sign_in_count :integer</text>
<text text-anchor="start" x="1164.5" y="-302.8" font-family="Times,serif" font-size="14.00">current_sign_in_at :timestamp without time zone</text>
<text text-anchor="start" x="1164.5" y="-287.8" font-family="Times,serif" font-size="14.00">last_sign_in_at :timestamp without time zone</text>
<text text-anchor="start" x="1164.5" y="-272.8" font-family="Times,serif" font-size="14.00">current_sign_in_ip :inet</text>
<text text-anchor="start" x="1164.5" y="-257.8" font-family="Times,serif" font-size="14.00">last_sign_in_ip :inet</text>
<text text-anchor="start" x="1164.5" y="-242.8" font-family="Times,serif" font-size="14.00">confirmation_token :character varying</text>
<text text-anchor="start" x="1164.5" y="-227.8" font-family="Times,serif" font-size="14.00">confirmed_at :timestamp without time zone</text>
<text text-anchor="start" x="1164.5" y="-212.8" font-family="Times,serif" font-size="14.00">confirmation_sent_at :timestamp without time zone</text>
<text text-anchor="start" x="1164.5" y="-197.8" font-family="Times,serif" font-size="14.00">unconfirmed_email :character varying</text>
<text text-anchor="start" x="1164.5" y="-182.8" font-family="Times,serif" font-size="14.00">failed_attempts :integer</text>
<text text-anchor="start" x="1164.5" y="-167.8" font-family="Times,serif" font-size="14.00">unlock_token :character varying</text>
<text text-anchor="start" x="1164.5" y="-152.8" font-family="Times,serif" font-size="14.00">locked_at :timestamp without time zone</text>
</g>
<!-- Partner&#45;&gt;Feedback -->
<g id="edge7" class="edge"><title>Partner&#45;&gt;Feedback</title>
<path fill="none" stroke="#18c37f" d="M1196.61,-137.776C1192.16,-130.365 1187.88,-123.209 1183.81,-116.417"/>
<ellipse fill="none" stroke="#18c37f" cx="1198.84" cy="-141.503" rx="4.00002" ry="4.00002"/>
<polygon fill="#18c37f" stroke="#18c37f" points="1183.54,-115.967 1182.26,-105.076 1180.97,-111.678 1178.4,-107.389 1178.4,-107.389 1178.4,-107.389 1180.97,-111.678 1174.54,-109.702 1183.54,-115.967 1183.54,-115.967"/>
</g>
<!-- Attendee -->
<g id="node12" class="node"><title>Attendee</title>
<path fill="none" stroke="black" d="M1499.5,-145C1499.5,-145 1788.5,-145 1788.5,-145 1794.5,-145 1800.5,-151 1800.5,-157 1800.5,-157 1800.5,-509 1800.5,-509 1800.5,-515 1794.5,-521 1788.5,-521 1788.5,-521 1499.5,-521 1499.5,-521 1493.5,-521 1487.5,-515 1487.5,-509 1487.5,-509 1487.5,-157 1487.5,-157 1487.5,-151 1493.5,-145 1499.5,-145"/>
<text text-anchor="middle" x="1644" y="-505.8" font-family="Times,serif" font-size="14.00">Attendee</text>
<polyline fill="none" stroke="black" points="1487.5,-498 1800.5,-498 "/>
<text text-anchor="start" x="1495.5" y="-482.8" font-family="Times,serif" font-size="14.00">id :integer</text>
<text text-anchor="start" x="1495.5" y="-467.8" font-family="Times,serif" font-size="14.00">first_name :character varying</text>
<text text-anchor="start" x="1495.5" y="-452.8" font-family="Times,serif" font-size="14.00">last_name :character varying</text>
<text text-anchor="start" x="1495.5" y="-437.8" font-family="Times,serif" font-size="14.00">type :character varying</text>
<text text-anchor="start" x="1495.5" y="-422.8" font-family="Times,serif" font-size="14.00">created_at :timestamp without time zone</text>
<text text-anchor="start" x="1495.5" y="-407.8" font-family="Times,serif" font-size="14.00">updated_at :timestamp without time zone</text>
<text text-anchor="start" x="1495.5" y="-392.8" font-family="Times,serif" font-size="14.00">email :character varying</text>
<text text-anchor="start" x="1495.5" y="-377.8" font-family="Times,serif" font-size="14.00">encrypted_password :character varying</text>
<text text-anchor="start" x="1495.5" y="-362.8" font-family="Times,serif" font-size="14.00">reset_password_token :character varying</text>
<text text-anchor="start" x="1495.5" y="-347.8" font-family="Times,serif" font-size="14.00">reset_password_sent_at :timestamp without time zone</text>
<text text-anchor="start" x="1495.5" y="-332.8" font-family="Times,serif" font-size="14.00">remember_created_at :timestamp without time zone</text>
<text text-anchor="start" x="1495.5" y="-317.8" font-family="Times,serif" font-size="14.00">sign_in_count :integer</text>
<text text-anchor="start" x="1495.5" y="-302.8" font-family="Times,serif" font-size="14.00">current_sign_in_at :timestamp without time zone</text>
<text text-anchor="start" x="1495.5" y="-287.8" font-family="Times,serif" font-size="14.00">last_sign_in_at :timestamp without time zone</text>
<text text-anchor="start" x="1495.5" y="-272.8" font-family="Times,serif" font-size="14.00">current_sign_in_ip :inet</text>
<text text-anchor="start" x="1495.5" y="-257.8" font-family="Times,serif" font-size="14.00">last_sign_in_ip :inet</text>
<text text-anchor="start" x="1495.5" y="-242.8" font-family="Times,serif" font-size="14.00">confirmation_token :character varying</text>
<text text-anchor="start" x="1495.5" y="-227.8" font-family="Times,serif" font-size="14.00">confirmed_at :timestamp without time zone</text>
<text text-anchor="start" x="1495.5" y="-212.8" font-family="Times,serif" font-size="14.00">confirmation_sent_at :timestamp without time zone</text>
<text text-anchor="start" x="1495.5" y="-197.8" font-family="Times,serif" font-size="14.00">unconfirmed_email :character varying</text>
<text text-anchor="start" x="1495.5" y="-182.8" font-family="Times,serif" font-size="14.00">failed_attempts :integer</text>
<text text-anchor="start" x="1495.5" y="-167.8" font-family="Times,serif" font-size="14.00">unlock_token :character varying</text>
<text text-anchor="start" x="1495.5" y="-152.8" font-family="Times,serif" font-size="14.00">locked_at :timestamp without time zone</text>
</g>
<!-- Attendee&#45;&gt;Feedback -->
<g id="edge8" class="edge"><title>Attendee&#45;&gt;Feedback</title>
<path fill="none" stroke="#e2117d" d="M1480.65,-145.664C1479.77,-145.103 1478.88,-144.549 1478,-144 1418.11,-106.865 1342.81,-85.042 1279.16,-72.3107"/>
<ellipse fill="none" stroke="#e2117d" cx="1484.01" cy="-147.879" rx="4.00002" ry="4.00002"/>
<polygon fill="#e2117d" stroke="#e2117d" points="1278.87,-72.2535 1269.91,-65.9272 1273.96,-71.299 1269.05,-70.3445 1269.05,-70.3445 1269.05,-70.3445 1273.96,-71.299 1268.19,-74.7617 1278.87,-72.2535 1278.87,-72.2535"/>
</g>
</g>
</svg>
