<?xml version="1.0" encoding="UTF-8" standalone="no"?>
<!DOCTYPE svg PUBLIC "-//W3C//DTD SVG 1.1//EN"
 "http://www.w3.org/Graphics/SVG/1.1/DTD/svg11.dtd">
<!-- Generated by graphviz version 2.36.0 (20140111.2315)
 -->
<!-- Title: models_diagram Pages: 1 -->
<svg width="917pt" height="230pt"
 viewBox="0.00 0.00 917.00 230.00" xmlns="http://www.w3.org/2000/svg" xmlns:xlink="http://www.w3.org/1999/xlink">
<g id="graph0" class="graph" transform="scale(1 1) rotate(0) translate(4 226)">
<title>models_diagram</title>
<polygon fill="none" stroke="none" points="-4,4 -4,-226 913,-226 913,4 -4,4"/>
<!-- _diagram_info -->
<g id="node1" class="node"><title>_diagram_info</title>
<text text-anchor="start" x="8" y="-207.6" font-family="Times,serif" font-size="13.00">Models diagram</text>
<text text-anchor="start" x="8" y="-193.6" font-family="Times,serif" font-size="13.00">Date: Nov 19 2015 &#45; 09:06</text>
<text text-anchor="start" x="8" y="-179.6" font-family="Times,serif" font-size="13.00">Migration version: 20151119070055</text>
<text text-anchor="start" x="8" y="-165.6" font-family="Times,serif" font-size="13.00">Generated by RailRoady 1.4.1</text>
<text text-anchor="start" x="8" y="-151.6" font-family="Times,serif" font-size="13.00">http://railroady.prestonlee.com</text>
</g>
<!-- ContactType -->
<g id="node2" class="node"><title>ContactType</title>
<ellipse fill="none" stroke="black" cx="308" cy="-18" rx="55.3436" ry="18"/>
<text text-anchor="middle" x="308" y="-14.3" font-family="Times,serif" font-size="14.00">ContactType</text>
</g>
<!-- Contact -->
<g id="node3" class="node"><title>Contact</title>
<ellipse fill="none" stroke="black" cx="308" cy="-90" rx="38.0212" ry="18"/>
<text text-anchor="middle" x="308" y="-86.3" font-family="Times,serif" font-size="14.00">Contact</text>
</g>
<!-- Contact&#45;&gt;ContactType -->
<g id="edge1" class="edge"><title>Contact&#45;&gt;ContactType</title>
<path fill="none" stroke="#93863b" d="M308,-63.6398C308,-57.348 308,-50.6053 308,-44.3156"/>
<ellipse fill="none" stroke="#93863b" cx="308" cy="-67.6966" rx="4" ry="4"/>
<ellipse fill="#93863b" stroke="#93863b" cx="308" cy="-40.1043" rx="4" ry="4"/>
</g>
<!-- Conference -->
<g id="node4" class="node"><title>Conference</title>
<ellipse fill="none" stroke="black" cx="453" cy="-183" rx="51.0191" ry="18"/>
<text text-anchor="middle" x="453" y="-179.3" font-family="Times,serif" font-size="14.00">Conference</text>
</g>
<!-- Speaker -->
<g id="node6" class="node"><title>Speaker</title>
<ellipse fill="none" stroke="black" cx="453" cy="-90" rx="38.4949" ry="18"/>
<text text-anchor="middle" x="453" y="-86.3" font-family="Times,serif" font-size="14.00">Speaker</text>
</g>
<!-- Conference&#45;&gt;Speaker -->
<g id="edge2" class="edge"><title>Conference&#45;&gt;Speaker</title>
<path fill="none" stroke="#c6e5f6" d="M453,-154.549C453,-143.083 453,-129.792 453,-118.339"/>
<polygon fill="#c6e5f6" stroke="#c6e5f6" points="453,-154.884 448.5,-164.884 453,-159.884 453,-164.884 453,-164.884 453,-164.884 453,-159.884 457.5,-164.884 453,-154.884 453,-154.884"/>
<polygon fill="#c6e5f6" stroke="#c6e5f6" points="453,-118.04 457.5,-108.04 453,-113.04 453,-108.04 453,-108.04 453,-108.04 453,-113.04 448.5,-108.04 453,-118.04 453,-118.04"/>
</g>
<!-- User -->
<g id="node5" class="node"><title>User</title>
<ellipse fill="none" stroke="black" cx="537" cy="-90" rx="26.949" ry="18"/>
<text text-anchor="middle" x="537" y="-86.3" font-family="Times,serif" font-size="14.00">User</text>
</g>
<!-- Feedback -->
<g id="node8" class="node"><title>Feedback</title>
<ellipse fill="none" stroke="black" cx="578" cy="-18" rx="44.2946" ry="18"/>
<text text-anchor="middle" x="578" y="-14.3" font-family="Times,serif" font-size="14.00">Feedback</text>
</g>
<!-- User&#45;&gt;Feedback -->
<g id="edge3" class="edge"><title>User&#45;&gt;Feedback</title>
<path fill="none" stroke="#157611" d="M550.714,-65.5853C554.667,-58.837 558.999,-51.441 563.024,-44.5692"/>
<ellipse fill="none" stroke="#157611" cx="548.531" cy="-69.3131" rx="4.00002" ry="4.00002"/>
<polygon fill="#157611" stroke="#157611" points="563.204,-44.2622 572.141,-37.9077 565.731,-39.9478 568.258,-35.6334 568.258,-35.6334 568.258,-35.6334 565.731,-39.9478 564.375,-33.3591 563.204,-44.2622 563.204,-44.2622"/>
</g>
<!-- Speaker&#45;&gt;Feedback -->
<g id="edge4" class="edge"><title>Speaker&#45;&gt;Feedback</title>
<path fill="none" stroke="#e11bdc" d="M484.031,-71.6226C502.31,-61.3862 525.449,-48.4288 544.191,-37.9332"/>
<ellipse fill="none" stroke="#e11bdc" cx="480.296" cy="-73.7143" rx="4.00002" ry="4.00002"/>
<polygon fill="#e11bdc" stroke="#e11bdc" points="544.273,-37.8873 555.197,-36.9275 548.635,-35.4443 552.998,-33.0012 552.998,-33.0012 552.998,-33.0012 548.635,-35.4443 550.799,-29.075 544.273,-37.8873 544.273,-37.8873"/>
</g>
<!-- PartnershipPlan -->
<g id="node7" class="node"><title>PartnershipPlan</title>
<ellipse fill="none" stroke="black" cx="843" cy="-183" rx="65.9423" ry="18"/>
<text text-anchor="middle" x="843" y="-179.3" font-family="Times,serif" font-size="14.00">PartnershipPlan</text>
</g>
<!-- PartnershipPerk -->
<g id="node11" class="node"><title>PartnershipPerk</title>
<ellipse fill="none" stroke="black" cx="843" cy="-90" rx="66.4165" ry="18"/>
<text text-anchor="middle" x="843" y="-86.3" font-family="Times,serif" font-size="14.00">PartnershipPerk</text>
</g>
<!-- PartnershipPlan&#45;&gt;PartnershipPerk -->
<g id="edge5" class="edge"><title>PartnershipPlan&#45;&gt;PartnershipPerk</title>
<path fill="none" stroke="#2a0232" d="M843,-156.729C843,-144.725 843,-130.362 843,-118.129"/>
<ellipse fill="none" stroke="#2a0232" cx="843" cy="-160.884" rx="4" ry="4"/>
<polygon fill="#2a0232" stroke="#2a0232" points="843,-118.04 847.5,-108.04 843,-113.04 843,-108.04 843,-108.04 843,-108.04 843,-113.04 838.5,-108.04 843,-118.04 843,-118.04"/>
</g>
<!-- OrganisersContact -->
<g id="node9" class="node"><title>OrganisersContact</title>
<ellipse fill="none" stroke="black" cx="308" cy="-183" rx="76.0649" ry="18"/>
<text text-anchor="middle" x="308" y="-179.3" font-family="Times,serif" font-size="14.00">OrganisersContact</text>
</g>
<!-- OrganisersContact&#45;&gt;Contact -->
<g id="edge6" class="edge"><title>OrganisersContact&#45;&gt;Contact</title>
<path fill="none" stroke="#b098a1" d="M308,-156.729C308,-144.725 308,-130.362 308,-118.129"/>
<ellipse fill="none" stroke="#b098a1" cx="308" cy="-160.884" rx="4" ry="4"/>
<polygon fill="#b098a1" stroke="#b098a1" points="308,-118.04 312.5,-108.04 308,-113.04 308,-108.04 308,-108.04 308,-108.04 308,-113.04 303.5,-108.04 308,-118.04 308,-118.04"/>
</g>
<!-- Partner -->
<g id="node10" class="node"><title>Partner</title>
<ellipse fill="none" stroke="black" cx="619" cy="-90" rx="36.096" ry="18"/>
<text text-anchor="middle" x="619" y="-86.3" font-family="Times,serif" font-size="14.00">Partner</text>
</g>
<!-- Partner&#45;&gt;Feedback -->
<g id="edge7" class="edge"><title>Partner&#45;&gt;Feedback</title>
<path fill="none" stroke="#9fc3bf" d="M605.146,-65.3464C601.264,-58.7188 597.026,-51.4827 593.077,-44.7405"/>
<ellipse fill="none" stroke="#9fc3bf" cx="607.262" cy="-68.9594" rx="4.00002" ry="4.00002"/>
<polygon fill="#9fc3bf" stroke="#9fc3bf" points="592.986,-44.5851 591.814,-33.6819 590.459,-40.2706 587.931,-35.9562 587.931,-35.9562 587.931,-35.9562 590.459,-40.2706 584.049,-38.2305 592.986,-44.5851 592.986,-44.5851"/>
</g>
<!-- Attendee -->
<g id="node12" class="node"><title>Attendee</title>
<ellipse fill="none" stroke="black" cx="716" cy="-90" rx="42.3701" ry="18"/>
<text text-anchor="middle" x="716" y="-86.3" font-family="Times,serif" font-size="14.00">Attendee</text>
</g>
<!-- Attendee&#45;&gt;Feedback -->
<g id="edge8" class="edge"><title>Attendee&#45;&gt;Feedback</title>
<path fill="none" stroke="#dc7b47" d="M682.566,-72.0406C661.728,-61.4705 634.933,-47.8793 613.685,-37.1012"/>
<ellipse fill="none" stroke="#dc7b47" cx="686.151" cy="-73.8592" rx="4.00002" ry="4.00002"/>
<polygon fill="#dc7b47" stroke="#dc7b47" points="613.572,-37.0438 606.689,-28.5068 609.113,-34.7819 604.654,-32.52 604.654,-32.52 604.654,-32.52 609.113,-34.7819 602.618,-36.5333 613.572,-37.0438 613.572,-37.0438"/>
</g>
</g>
</svg>
