<?xml version="1.0" encoding="UTF-8" standalone="no"?>
<!DOCTYPE svg PUBLIC "-//W3C//DTD SVG 1.1//EN"
 "http://www.w3.org/Graphics/SVG/1.1/DTD/svg11.dtd">
<!-- Generated by graphviz version 2.36.0 (20140111.2315)
 -->
<!-- Title: models_diagram Pages: 1 -->
<svg width="867pt" height="230pt"
 viewBox="0.00 0.00 867.00 230.00" xmlns="http://www.w3.org/2000/svg" xmlns:xlink="http://www.w3.org/1999/xlink">
<g id="graph0" class="graph" transform="scale(1 1) rotate(0) translate(4 226)">
<title>models_diagram</title>
<polygon fill="none" stroke="none" points="-4,4 -4,-226 863,-226 863,4 -4,4"/>
<!-- _diagram_info -->
<g id="node1" class="node"><title>_diagram_info</title>
<text text-anchor="start" x="8" y="-207.6" font-family="Times,serif" font-size="13.00">Models diagram</text>
<text text-anchor="start" x="8" y="-193.6" font-family="Times,serif" font-size="13.00">Date: Nov 19 2015 &#45; 09:20</text>
<text text-anchor="start" x="8" y="-179.6" font-family="Times,serif" font-size="13.00">Migration version: 20151119071227</text>
<text text-anchor="start" x="8" y="-165.6" font-family="Times,serif" font-size="13.00">Generated by RailRoady 1.4.1</text>
<text text-anchor="start" x="8" y="-151.6" font-family="Times,serif" font-size="13.00">http://railroady.prestonlee.com</text>
</g>
<!-- ContactType -->
<g id="node2" class="node"><title>ContactType</title>
<ellipse fill="none" stroke="black" cx="308" cy="-18" rx="55.3436" ry="18"/>
<text text-anchor="middle" x="308" y="-14.3" font-family="Times,serif" font-size="14.00">ContactType</text>
</g>
<!-- Contact -->
<g id="node3" class="node"><title>Contact</title>
<ellipse fill="none" stroke="black" cx="308" cy="-90" rx="38.0212" ry="18"/>
<text text-anchor="middle" x="308" y="-86.3" font-family="Times,serif" font-size="14.00">Contact</text>
</g>
<!-- Contact&#45;&gt;ContactType -->
<g id="edge1" class="edge"><title>Contact&#45;&gt;ContactType</title>
<path fill="none" stroke="#131099" d="M308,-63.6398C308,-57.348 308,-50.6053 308,-44.3156"/>
<ellipse fill="none" stroke="#131099" cx="308" cy="-67.6966" rx="4" ry="4"/>
<ellipse fill="#131099" stroke="#131099" cx="308" cy="-40.1043" rx="4" ry="4"/>
</g>
<!-- Conference -->
<g id="node4" class="node"><title>Conference</title>
<ellipse fill="none" stroke="black" cx="496" cy="-183" rx="51.0191" ry="18"/>
<text text-anchor="middle" x="496" y="-179.3" font-family="Times,serif" font-size="14.00">Conference</text>
</g>
<!-- Speaker -->
<g id="node6" class="node"><title>Speaker</title>
<ellipse fill="none" stroke="black" cx="403" cy="-90" rx="38.4949" ry="18"/>
<text text-anchor="middle" x="403" y="-86.3" font-family="Times,serif" font-size="14.00">Speaker</text>
</g>
<!-- Conference&#45;&gt;Speaker -->
<g id="edge4" class="edge"><title>Conference&#45;&gt;Speaker</title>
<path fill="none" stroke="#1ea4a7" d="M472.093,-158.608C457.976,-144.794 440.189,-127.389 426.197,-113.698"/>
<polygon fill="#1ea4a7" stroke="#1ea4a7" points="472.226,-158.737 476.226,-168.947 475.8,-162.234 479.373,-165.731 479.373,-165.731 479.373,-165.731 475.8,-162.234 482.521,-162.515 472.226,-158.737 472.226,-158.737"/>
<polygon fill="#1ea4a7" stroke="#1ea4a7" points="426.009,-113.515 422.009,-103.304 422.436,-110.018 418.862,-106.521 418.862,-106.521 418.862,-106.521 422.436,-110.018 415.715,-109.737 426.009,-113.515 426.009,-113.515"/>
</g>
<!-- Partner -->
<g id="node10" class="node"><title>Partner</title>
<ellipse fill="none" stroke="black" cx="496" cy="-90" rx="36.096" ry="18"/>
<text text-anchor="middle" x="496" y="-86.3" font-family="Times,serif" font-size="14.00">Partner</text>
</g>
<!-- Conference&#45;&gt;Partner -->
<g id="edge3" class="edge"><title>Conference&#45;&gt;Partner</title>
<path fill="none" stroke="#c48df8" d="M496,-154.549C496,-143.083 496,-129.792 496,-118.339"/>
<polygon fill="#c48df8" stroke="#c48df8" points="496,-154.884 491.5,-164.884 496,-159.884 496,-164.884 496,-164.884 496,-164.884 496,-159.884 500.5,-164.884 496,-154.884 496,-154.884"/>
<polygon fill="#c48df8" stroke="#c48df8" points="496,-118.04 500.5,-108.04 496,-113.04 496,-108.04 496,-108.04 496,-108.04 496,-113.04 491.5,-108.04 496,-118.04 496,-118.04"/>
</g>
<!-- Attendee -->
<g id="node12" class="node"><title>Attendee</title>
<ellipse fill="none" stroke="black" cx="593" cy="-90" rx="42.3701" ry="18"/>
<text text-anchor="middle" x="593" y="-86.3" font-family="Times,serif" font-size="14.00">Attendee</text>
</g>
<!-- Conference&#45;&gt;Attendee -->
<g id="edge2" class="edge"><title>Conference&#45;&gt;Attendee</title>
<path fill="none" stroke="#13fb8e" d="M520.886,-158.653C535.512,-144.932 553.929,-127.655 568.489,-113.995"/>
<polygon fill="#13fb8e" stroke="#13fb8e" points="520.635,-158.889 510.263,-162.449 516.988,-162.31 513.342,-165.731 513.342,-165.731 513.342,-165.731 516.988,-162.31 516.421,-169.013 520.635,-158.889 520.635,-158.889"/>
<polygon fill="#13fb8e" stroke="#13fb8e" points="568.84,-113.665 579.212,-110.105 572.487,-110.244 576.133,-106.823 576.133,-106.823 576.133,-106.823 572.487,-110.244 573.054,-103.541 568.84,-113.665 568.84,-113.665"/>
</g>
<!-- User -->
<g id="node5" class="node"><title>User</title>
<ellipse fill="none" stroke="black" cx="681" cy="-90" rx="26.949" ry="18"/>
<text text-anchor="middle" x="681" y="-86.3" font-family="Times,serif" font-size="14.00">User</text>
</g>
<!-- Feedback -->
<g id="node8" class="node"><title>Feedback</title>
<ellipse fill="none" stroke="black" cx="544" cy="-18" rx="44.2946" ry="18"/>
<text text-anchor="middle" x="544" y="-14.3" font-family="Times,serif" font-size="14.00">Feedback</text>
</g>
<!-- User&#45;&gt;Feedback -->
<g id="edge5" class="edge"><title>User&#45;&gt;Feedback</title>
<path fill="none" stroke="#3da097" d="M652.76,-74.5707C631.587,-63.7526 602.46,-48.8702 579.677,-37.2292"/>
<ellipse fill="none" stroke="#3da097" cx="656.631" cy="-76.5485" rx="4.00002" ry="4.00002"/>
<polygon fill="#3da097" stroke="#3da097" points="579.564,-37.1713 572.706,-28.614 575.111,-34.8963 570.659,-32.6213 570.659,-32.6213 570.659,-32.6213 575.111,-34.8963 568.611,-36.6285 579.564,-37.1713 579.564,-37.1713"/>
</g>
<!-- Speaker&#45;&gt;Feedback -->
<g id="edge6" class="edge"><title>Speaker&#45;&gt;Feedback</title>
<path fill="none" stroke="#088177" d="M435.861,-72.686C457.358,-62.0136 485.462,-48.0616 507.63,-37.0558"/>
<ellipse fill="none" stroke="#088177" cx="432.117" cy="-74.5448" rx="4.00002" ry="4.00002"/>
<polygon fill="#088177" stroke="#088177" points="507.775,-36.9843 518.733,-36.5682 512.253,-34.7609 516.732,-32.5375 516.732,-32.5375 516.732,-32.5375 512.253,-34.7609 514.73,-28.5069 507.775,-36.9843 507.775,-36.9843"/>
</g>
<!-- PartnershipPlan -->
<g id="node7" class="node"><title>PartnershipPlan</title>
<ellipse fill="none" stroke="black" cx="793" cy="-183" rx="65.9423" ry="18"/>
<text text-anchor="middle" x="793" y="-179.3" font-family="Times,serif" font-size="14.00">PartnershipPlan</text>
</g>
<!-- PartnershipPerk -->
<g id="node11" class="node"><title>PartnershipPerk</title>
<ellipse fill="none" stroke="black" cx="793" cy="-90" rx="66.4165" ry="18"/>
<text text-anchor="middle" x="793" y="-86.3" font-family="Times,serif" font-size="14.00">PartnershipPerk</text>
</g>
<!-- PartnershipPlan&#45;&gt;PartnershipPerk -->
<g id="edge7" class="edge"><title>PartnershipPlan&#45;&gt;PartnershipPerk</title>
<path fill="none" stroke="#bc13c1" d="M793,-156.729C793,-144.725 793,-130.362 793,-118.129"/>
<ellipse fill="none" stroke="#bc13c1" cx="793" cy="-160.884" rx="4" ry="4"/>
<polygon fill="#bc13c1" stroke="#bc13c1" points="793,-118.04 797.5,-108.04 793,-113.04 793,-108.04 793,-108.04 793,-108.04 793,-113.04 788.5,-108.04 793,-118.04 793,-118.04"/>
</g>
<!-- OrganisersContact -->
<g id="node9" class="node"><title>OrganisersContact</title>
<ellipse fill="none" stroke="black" cx="308" cy="-183" rx="76.0649" ry="18"/>
<text text-anchor="middle" x="308" y="-179.3" font-family="Times,serif" font-size="14.00">OrganisersContact</text>
</g>
<!-- OrganisersContact&#45;&gt;Contact -->
<g id="edge8" class="edge"><title>OrganisersContact&#45;&gt;Contact</title>
<path fill="none" stroke="#bb0179" d="M308,-156.729C308,-144.725 308,-130.362 308,-118.129"/>
<ellipse fill="none" stroke="#bb0179" cx="308" cy="-160.884" rx="4" ry="4"/>
<polygon fill="#bb0179" stroke="#bb0179" points="308,-118.04 312.5,-108.04 308,-113.04 308,-108.04 308,-108.04 308,-108.04 308,-113.04 303.5,-108.04 308,-118.04 308,-118.04"/>
</g>
<!-- Partner&#45;&gt;Feedback -->
<g id="edge9" class="edge"><title>Partner&#45;&gt;Feedback</title>
<path fill="none" stroke="#471838" d="M511.661,-66.1611C516.459,-59.1636 521.765,-51.4255 526.668,-44.2755"/>
<ellipse fill="none" stroke="#471838" cx="509.395" cy="-69.4657" rx="4.00002" ry="4.00002"/>
<polygon fill="#471838" stroke="#471838" points="526.939,-43.8807 536.306,-38.1783 529.767,-39.7571 532.594,-35.6334 532.594,-35.6334 532.594,-35.6334 529.767,-39.7571 528.883,-33.0885 526.939,-43.8807 526.939,-43.8807"/>
</g>
<!-- Attendee&#45;&gt;Feedback -->
<g id="edge10" class="edge"><title>Attendee&#45;&gt;Feedback</title>
<path fill="none" stroke="#da5422" d="M576.769,-65.8123C571.881,-58.8305 566.497,-51.1383 561.529,-44.0419"/>
<ellipse fill="none" stroke="#da5422" cx="579.094" cy="-69.134" rx="4.00002" ry="4.00002"/>
<polygon fill="#da5422" stroke="#da5422" points="561.264,-43.6623 559.216,-32.8893 558.396,-39.5661 555.529,-35.4699 555.529,-35.4699 555.529,-35.4699 558.396,-39.5661 551.842,-38.0505 561.264,-43.6623 561.264,-43.6623"/>
</g>
</g>
</svg>
