<?xml version="1.0" encoding="UTF-8" standalone="no"?>
<!DOCTYPE svg PUBLIC "-//W3C//DTD SVG 1.1//EN"
 "http://www.w3.org/Graphics/SVG/1.1/DTD/svg11.dtd">
<!-- Generated by graphviz version 2.36.0 (20140111.2315)
 -->
<!-- Title: models_diagram Pages: 1 -->
<svg width="1808pt" height="936pt"
 viewBox="0.00 0.00 1808.00 936.00" xmlns="http://www.w3.org/2000/svg" xmlns:xlink="http://www.w3.org/1999/xlink">
<g id="graph0" class="graph" transform="scale(1 1) rotate(0) translate(4 932)">
<title>models_diagram</title>
<polygon fill="none" stroke="none" points="-4,4 -4,-932 1804,-932 1804,4 -4,4"/>
<!-- _diagram_info -->
<g id="node1" class="node"><title>_diagram_info</title>
<text text-anchor="start" x="8" y="-883.6" font-family="Times,serif" font-size="13.00">Models diagram</text>
<text text-anchor="start" x="8" y="-869.6" font-family="Times,serif" font-size="13.00">Date: Nov 19 2015 &#45; 12:20</text>
<text text-anchor="start" x="8" y="-855.6" font-family="Times,serif" font-size="13.00">Migration version: 20151119101808</text>
<text text-anchor="start" x="8" y="-841.6" font-family="Times,serif" font-size="13.00">Generated by RailRoady 1.4.1</text>
<text text-anchor="start" x="8" y="-827.6" font-family="Times,serif" font-size="13.00">http://railroady.prestonlee.com</text>
</g>
<!-- ContactType -->
<g id="node2" class="node"><title>ContactType</title>
<path fill="none" stroke="black" d="M244,-159C244,-159 464,-159 464,-159 470,-159 476,-165 476,-171 476,-171 476,-253 476,-253 476,-259 470,-265 464,-265 464,-265 244,-265 244,-265 238,-265 232,-259 232,-253 232,-253 232,-171 232,-171 232,-165 238,-159 244,-159"/>
<text text-anchor="middle" x="354" y="-249.8" font-family="Times,serif" font-size="14.00">ContactType</text>
<polyline fill="none" stroke="black" points="232,-242 476,-242 "/>
<text text-anchor="start" x="240" y="-226.8" font-family="Times,serif" font-size="14.00">id :integer</text>
<text text-anchor="start" x="240" y="-211.8" font-family="Times,serif" font-size="14.00">name :character varying</text>
<text text-anchor="start" x="240" y="-196.8" font-family="Times,serif" font-size="14.00">contact_id :integer</text>
<text text-anchor="start" x="240" y="-181.8" font-family="Times,serif" font-size="14.00">created_at :timestamp without time zone</text>
<text text-anchor="start" x="240" y="-166.8" font-family="Times,serif" font-size="14.00">updated_at :timestamp without time zone</text>
</g>
<!-- Contact -->
<g id="node3" class="node"><title>Contact</title>
<path fill="none" stroke="black" d="M244,-475C244,-475 464,-475 464,-475 470,-475 476,-481 476,-487 476,-487 476,-569 476,-569 476,-575 470,-581 464,-581 464,-581 244,-581 244,-581 238,-581 232,-575 232,-569 232,-569 232,-487 232,-487 232,-481 238,-475 244,-475"/>
<text text-anchor="middle" x="354" y="-565.8" font-family="Times,serif" font-size="14.00">Contact</text>
<polyline fill="none" stroke="black" points="232,-558 476,-558 "/>
<text text-anchor="start" x="240" y="-542.8" font-family="Times,serif" font-size="14.00">id :integer</text>
<text text-anchor="start" x="240" y="-527.8" font-family="Times,serif" font-size="14.00">contact :character varying</text>
<text text-anchor="start" x="240" y="-512.8" font-family="Times,serif" font-size="14.00">organisers_contact_id :integer</text>
<text text-anchor="start" x="240" y="-497.8" font-family="Times,serif" font-size="14.00">created_at :timestamp without time zone</text>
<text text-anchor="start" x="240" y="-482.8" font-family="Times,serif" font-size="14.00">updated_at :timestamp without time zone</text>
</g>
<!-- Contact&#45;&gt;ContactType -->
<g id="edge1" class="edge"><title>Contact&#45;&gt;ContactType</title>
<path fill="none" stroke="#83373b" d="M354,-466.752C354,-411.051 354,-328.722 354,-273.076"/>
<ellipse fill="none" stroke="#83373b" cx="354" cy="-470.797" rx="4" ry="4"/>
<ellipse fill="#83373b" stroke="#83373b" cx="354" cy="-269.066" rx="4" ry="4"/>
</g>
<!-- Conference -->
<g id="node4" class="node"><title>Conference</title>
<path fill="none" stroke="black" d="M872,-791C872,-791 1092,-791 1092,-791 1098,-791 1104,-797 1104,-803 1104,-803 1104,-915 1104,-915 1104,-921 1098,-927 1092,-927 1092,-927 872,-927 872,-927 866,-927 860,-921 860,-915 860,-915 860,-803 860,-803 860,-797 866,-791 872,-791"/>
<text text-anchor="middle" x="982" y="-911.8" font-family="Times,serif" font-size="14.00">Conference</text>
<polyline fill="none" stroke="black" points="860,-904 1104,-904 "/>
<text text-anchor="start" x="868" y="-888.8" font-family="Times,serif" font-size="14.00">id :integer</text>
<text text-anchor="start" x="868" y="-873.8" font-family="Times,serif" font-size="14.00">name :character varying</text>
<text text-anchor="start" x="868" y="-858.8" font-family="Times,serif" font-size="14.00">description :text</text>
<text text-anchor="start" x="868" y="-843.8" font-family="Times,serif" font-size="14.00">date :date</text>
<text text-anchor="start" x="868" y="-828.8" font-family="Times,serif" font-size="14.00">place :character varying</text>
<text text-anchor="start" x="868" y="-813.8" font-family="Times,serif" font-size="14.00">created_at :timestamp without time zone</text>
<text text-anchor="start" x="868" y="-798.8" font-family="Times,serif" font-size="14.00">updated_at :timestamp without time zone</text>
</g>
<!-- Speaker -->
<g id="node6" class="node"><title>Speaker</title>
<path fill="none" stroke="black" d="M506.5,-302.5C506.5,-302.5 795.5,-302.5 795.5,-302.5 801.5,-302.5 807.5,-308.5 807.5,-314.5 807.5,-314.5 807.5,-741.5 807.5,-741.5 807.5,-747.5 801.5,-753.5 795.5,-753.5 795.5,-753.5 506.5,-753.5 506.5,-753.5 500.5,-753.5 494.5,-747.5 494.5,-741.5 494.5,-741.5 494.5,-314.5 494.5,-314.5 494.5,-308.5 500.5,-302.5 506.5,-302.5"/>
<text text-anchor="middle" x="651" y="-738.3" font-family="Times,serif" font-size="14.00">Speaker</text>
<polyline fill="none" stroke="black" points="494.5,-730.5 807.5,-730.5 "/>
<text text-anchor="start" x="502.5" y="-715.3" font-family="Times,serif" font-size="14.00">id :integer</text>
<text text-anchor="start" x="502.5" y="-700.3" font-family="Times,serif" font-size="14.00">first_name :character varying</text>
<text text-anchor="start" x="502.5" y="-685.3" font-family="Times,serif" font-size="14.00">last_name :character varying</text>
<text text-anchor="start" x="502.5" y="-670.3" font-family="Times,serif" font-size="14.00">username :character varying</text>
<text text-anchor="start" x="502.5" y="-655.3" font-family="Times,serif" font-size="14.00">type :character varying</text>
<text text-anchor="start" x="502.5" y="-640.3" font-family="Times,serif" font-size="14.00">company_name :character varying</text>
<text text-anchor="start" x="502.5" y="-625.3" font-family="Times,serif" font-size="14.00">subscription :boolean</text>
<text text-anchor="start" x="502.5" y="-610.3" font-family="Times,serif" font-size="14.00">about :text</text>
<text text-anchor="start" x="502.5" y="-595.3" font-family="Times,serif" font-size="14.00">created_at :timestamp without time zone</text>
<text text-anchor="start" x="502.5" y="-580.3" font-family="Times,serif" font-size="14.00">updated_at :timestamp without time zone</text>
<text text-anchor="start" x="502.5" y="-565.3" font-family="Times,serif" font-size="14.00">email :character varying</text>
<text text-anchor="start" x="502.5" y="-550.3" font-family="Times,serif" font-size="14.00">encrypted_password :character varying</text>
<text text-anchor="start" x="502.5" y="-535.3" font-family="Times,serif" font-size="14.00">reset_password_token :character varying</text>
<text text-anchor="start" x="502.5" y="-520.3" font-family="Times,serif" font-size="14.00">reset_password_sent_at :timestamp without time zone</text>
<text text-anchor="start" x="502.5" y="-505.3" font-family="Times,serif" font-size="14.00">remember_created_at :timestamp without time zone</text>
<text text-anchor="start" x="502.5" y="-490.3" font-family="Times,serif" font-size="14.00">sign_in_count :integer</text>
<text text-anchor="start" x="502.5" y="-475.3" font-family="Times,serif" font-size="14.00">current_sign_in_at :timestamp without time zone</text>
<text text-anchor="start" x="502.5" y="-460.3" font-family="Times,serif" font-size="14.00">last_sign_in_at :timestamp without time zone</text>
<text text-anchor="start" x="502.5" y="-445.3" font-family="Times,serif" font-size="14.00">current_sign_in_ip :inet</text>
<text text-anchor="start" x="502.5" y="-430.3" font-family="Times,serif" font-size="14.00">last_sign_in_ip :inet</text>
<text text-anchor="start" x="502.5" y="-415.3" font-family="Times,serif" font-size="14.00">confirmation_token :character varying</text>
<text text-anchor="start" x="502.5" y="-400.3" font-family="Times,serif" font-size="14.00">confirmed_at :timestamp without time zone</text>
<text text-anchor="start" x="502.5" y="-385.3" font-family="Times,serif" font-size="14.00">confirmation_sent_at :timestamp without time zone</text>
<text text-anchor="start" x="502.5" y="-370.3" font-family="Times,serif" font-size="14.00">unconfirmed_email :character varying</text>
<text text-anchor="start" x="502.5" y="-355.3" font-family="Times,serif" font-size="14.00">failed_attempts :integer</text>
<text text-anchor="start" x="502.5" y="-340.3" font-family="Times,serif" font-size="14.00">unlock_token :character varying</text>
<text text-anchor="start" x="502.5" y="-325.3" font-family="Times,serif" font-size="14.00">locked_at :timestamp without time zone</text>
<text text-anchor="start" x="502.5" y="-310.3" font-family="Times,serif" font-size="14.00">partnership_plan_id :integer</text>
</g>
<!-- Conference&#45;&gt;Speaker -->
<g id="edge4" class="edge"><title>Conference&#45;&gt;Speaker</title>
<path fill="none" stroke="#e83f9c" d="M853.961,-784.858C840.595,-775.18 827.655,-764.833 816,-754 815.645,-753.67 815.291,-753.34 814.936,-753.008"/>
<polygon fill="#e83f9c" stroke="#e83f9c" points="854.174,-785.009 859.726,-794.465 858.252,-787.902 862.33,-790.795 862.33,-790.795 862.33,-790.795 858.252,-787.902 864.934,-787.124 854.174,-785.009 854.174,-785.009"/>
<polygon fill="#e83f9c" stroke="#e83f9c" points="814.761,-752.84 810.646,-742.675 811.148,-749.383 807.535,-745.927 807.535,-745.927 807.535,-745.927 811.148,-749.383 804.424,-749.178 814.761,-752.84 814.761,-752.84"/>
</g>
<!-- Partner -->
<g id="node10" class="node"><title>Partner</title>
<path fill="none" stroke="black" d="M1499.5,-302.5C1499.5,-302.5 1788.5,-302.5 1788.5,-302.5 1794.5,-302.5 1800.5,-308.5 1800.5,-314.5 1800.5,-314.5 1800.5,-741.5 1800.5,-741.5 1800.5,-747.5 1794.5,-753.5 1788.5,-753.5 1788.5,-753.5 1499.5,-753.5 1499.5,-753.5 1493.5,-753.5 1487.5,-747.5 1487.5,-741.5 1487.5,-741.5 1487.5,-314.5 1487.5,-314.5 1487.5,-308.5 1493.5,-302.5 1499.5,-302.5"/>
<text text-anchor="middle" x="1644" y="-738.3" font-family="Times,serif" font-size="14.00">Partner</text>
<polyline fill="none" stroke="black" points="1487.5,-730.5 1800.5,-730.5 "/>
<text text-anchor="start" x="1495.5" y="-715.3" font-family="Times,serif" font-size="14.00">id :integer</text>
<text text-anchor="start" x="1495.5" y="-700.3" font-family="Times,serif" font-size="14.00">first_name :character varying</text>
<text text-anchor="start" x="1495.5" y="-685.3" font-family="Times,serif" font-size="14.00">last_name :character varying</text>
<text text-anchor="start" x="1495.5" y="-670.3" font-family="Times,serif" font-size="14.00">username :character varying</text>
<text text-anchor="start" x="1495.5" y="-655.3" font-family="Times,serif" font-size="14.00">type :character varying</text>
<text text-anchor="start" x="1495.5" y="-640.3" font-family="Times,serif" font-size="14.00">company_name :character varying</text>
<text text-anchor="start" x="1495.5" y="-625.3" font-family="Times,serif" font-size="14.00">subscription :boolean</text>
<text text-anchor="start" x="1495.5" y="-610.3" font-family="Times,serif" font-size="14.00">about :text</text>
<text text-anchor="start" x="1495.5" y="-595.3" font-family="Times,serif" font-size="14.00">created_at :timestamp without time zone</text>
<text text-anchor="start" x="1495.5" y="-580.3" font-family="Times,serif" font-size="14.00">updated_at :timestamp without time zone</text>
<text text-anchor="start" x="1495.5" y="-565.3" font-family="Times,serif" font-size="14.00">email :character varying</text>
<text text-anchor="start" x="1495.5" y="-550.3" font-family="Times,serif" font-size="14.00">encrypted_password :character varying</text>
<text text-anchor="start" x="1495.5" y="-535.3" font-family="Times,serif" font-size="14.00">reset_password_token :character varying</text>
<text text-anchor="start" x="1495.5" y="-520.3" font-family="Times,serif" font-size="14.00">reset_password_sent_at :timestamp without time zone</text>
<text text-anchor="start" x="1495.5" y="-505.3" font-family="Times,serif" font-size="14.00">remember_created_at :timestamp without time zone</text>
<text text-anchor="start" x="1495.5" y="-490.3" font-family="Times,serif" font-size="14.00">sign_in_count :integer</text>
<text text-anchor="start" x="1495.5" y="-475.3" font-family="Times,serif" font-size="14.00">current_sign_in_at :timestamp without time zone</text>
<text text-anchor="start" x="1495.5" y="-460.3" font-family="Times,serif" font-size="14.00">last_sign_in_at :timestamp without time zone</text>
<text text-anchor="start" x="1495.5" y="-445.3" font-family="Times,serif" font-size="14.00">current_sign_in_ip :inet</text>
<text text-anchor="start" x="1495.5" y="-430.3" font-family="Times,serif" font-size="14.00">last_sign_in_ip :inet</text>
<text text-anchor="start" x="1495.5" y="-415.3" font-family="Times,serif" font-size="14.00">confirmation_token :character varying</text>
<text text-anchor="start" x="1495.5" y="-400.3" font-family="Times,serif" font-size="14.00">confirmed_at :timestamp without time zone</text>
<text text-anchor="start" x="1495.5" y="-385.3" font-family="Times,serif" font-size="14.00">confirmation_sent_at :timestamp without time zone</text>
<text text-anchor="start" x="1495.5" y="-370.3" font-family="Times,serif" font-size="14.00">unconfirmed_email :character varying</text>
<text text-anchor="start" x="1495.5" y="-355.3" font-family="Times,serif" font-size="14.00">failed_attempts :integer</text>
<text text-anchor="start" x="1495.5" y="-340.3" font-family="Times,serif" font-size="14.00">unlock_token :character varying</text>
<text text-anchor="start" x="1495.5" y="-325.3" font-family="Times,serif" font-size="14.00">locked_at :timestamp without time zone</text>
<text text-anchor="start" x="1495.5" y="-310.3" font-family="Times,serif" font-size="14.00">partnership_plan_id :integer</text>
</g>
<!-- Conference&#45;&gt;Partner -->
<g id="edge3" class="edge"><title>Conference&#45;&gt;Partner</title>
<path fill="none" stroke="#8e3783" d="M1114.16,-855.639C1220.07,-848.088 1368.54,-824.301 1478,-754 1478.3,-753.809 1478.59,-753.618 1478.89,-753.426"/>
<polygon fill="#8e3783" stroke="#8e3783" points="1114.02,-855.648 1103.74,-851.83 1109.03,-855.984 1104.04,-856.32 1104.04,-856.32 1104.04,-856.32 1109.03,-855.984 1104.35,-860.81 1114.02,-855.648 1114.02,-855.648"/>
<polygon fill="#8e3783" stroke="#8e3783" points="1479.11,-753.279 1489.91,-751.38 1483.24,-750.469 1487.38,-747.658 1487.38,-747.658 1487.38,-747.658 1483.24,-750.469 1484.85,-743.936 1479.11,-753.279 1479.11,-753.279"/>
</g>
<!-- Attendee -->
<g id="node12" class="node"><title>Attendee</title>
<path fill="none" stroke="black" d="M837.5,-302.5C837.5,-302.5 1126.5,-302.5 1126.5,-302.5 1132.5,-302.5 1138.5,-308.5 1138.5,-314.5 1138.5,-314.5 1138.5,-741.5 1138.5,-741.5 1138.5,-747.5 1132.5,-753.5 1126.5,-753.5 1126.5,-753.5 837.5,-753.5 837.5,-753.5 831.5,-753.5 825.5,-747.5 825.5,-741.5 825.5,-741.5 825.5,-314.5 825.5,-314.5 825.5,-308.5 831.5,-302.5 837.5,-302.5"/>
<text text-anchor="middle" x="982" y="-738.3" font-family="Times,serif" font-size="14.00">Attendee</text>
<polyline fill="none" stroke="black" points="825.5,-730.5 1138.5,-730.5 "/>
<text text-anchor="start" x="833.5" y="-715.3" font-family="Times,serif" font-size="14.00">id :integer</text>
<text text-anchor="start" x="833.5" y="-700.3" font-family="Times,serif" font-size="14.00">first_name :character varying</text>
<text text-anchor="start" x="833.5" y="-685.3" font-family="Times,serif" font-size="14.00">last_name :character varying</text>
<text text-anchor="start" x="833.5" y="-670.3" font-family="Times,serif" font-size="14.00">username :character varying</text>
<text text-anchor="start" x="833.5" y="-655.3" font-family="Times,serif" font-size="14.00">type :character varying</text>
<text text-anchor="start" x="833.5" y="-640.3" font-family="Times,serif" font-size="14.00">company_name :character varying</text>
<text text-anchor="start" x="833.5" y="-625.3" font-family="Times,serif" font-size="14.00">subscription :boolean</text>
<text text-anchor="start" x="833.5" y="-610.3" font-family="Times,serif" font-size="14.00">about :text</text>
<text text-anchor="start" x="833.5" y="-595.3" font-family="Times,serif" font-size="14.00">created_at :timestamp without time zone</text>
<text text-anchor="start" x="833.5" y="-580.3" font-family="Times,serif" font-size="14.00">updated_at :timestamp without time zone</text>
<text text-anchor="start" x="833.5" y="-565.3" font-family="Times,serif" font-size="14.00">email :character varying</text>
<text text-anchor="start" x="833.5" y="-550.3" font-family="Times,serif" font-size="14.00">encrypted_password :character varying</text>
<text text-anchor="start" x="833.5" y="-535.3" font-family="Times,serif" font-size="14.00">reset_password_token :character varying</text>
<text text-anchor="start" x="833.5" y="-520.3" font-family="Times,serif" font-size="14.00">reset_password_sent_at :timestamp without time zone</text>
<text text-anchor="start" x="833.5" y="-505.3" font-family="Times,serif" font-size="14.00">remember_created_at :timestamp without time zone</text>
<text text-anchor="start" x="833.5" y="-490.3" font-family="Times,serif" font-size="14.00">sign_in_count :integer</text>
<text text-anchor="start" x="833.5" y="-475.3" font-family="Times,serif" font-size="14.00">current_sign_in_at :timestamp without time zone</text>
<text text-anchor="start" x="833.5" y="-460.3" font-family="Times,serif" font-size="14.00">last_sign_in_at :timestamp without time zone</text>
<text text-anchor="start" x="833.5" y="-445.3" font-family="Times,serif" font-size="14.00">current_sign_in_ip :inet</text>
<text text-anchor="start" x="833.5" y="-430.3" font-family="Times,serif" font-size="14.00">last_sign_in_ip :inet</text>
<text text-anchor="start" x="833.5" y="-415.3" font-family="Times,serif" font-size="14.00">confirmation_token :character varying</text>
<text text-anchor="start" x="833.5" y="-400.3" font-family="Times,serif" font-size="14.00">confirmed_at :timestamp without time zone</text>
<text text-anchor="start" x="833.5" y="-385.3" font-family="Times,serif" font-size="14.00">confirmation_sent_at :timestamp without time zone</text>
<text text-anchor="start" x="833.5" y="-370.3" font-family="Times,serif" font-size="14.00">unconfirmed_email :character varying</text>
<text text-anchor="start" x="833.5" y="-355.3" font-family="Times,serif" font-size="14.00">failed_attempts :integer</text>
<text text-anchor="start" x="833.5" y="-340.3" font-family="Times,serif" font-size="14.00">unlock_token :character varying</text>
<text text-anchor="start" x="833.5" y="-325.3" font-family="Times,serif" font-size="14.00">locked_at :timestamp without time zone</text>
<text text-anchor="start" x="833.5" y="-310.3" font-family="Times,serif" font-size="14.00">partnership_plan_id :integer</text>
</g>
<!-- Conference&#45;&gt;Attendee -->
<g id="edge2" class="edge"><title>Conference&#45;&gt;Attendee</title>
<path fill="none" stroke="#aaa51a" d="M982,-780.447C982,-775.114 982,-769.61 982,-763.97"/>
<polygon fill="#aaa51a" stroke="#aaa51a" points="982,-780.628 977.5,-790.628 982,-785.628 982,-790.628 982,-790.628 982,-790.628 982,-785.628 986.5,-790.628 982,-780.628 982,-780.628"/>
<polygon fill="#aaa51a" stroke="#aaa51a" points="982,-763.678 986.5,-753.678 982,-758.678 982,-753.678 982,-753.678 982,-753.678 982,-758.678 977.5,-753.678 982,-763.678 982,-763.678"/>
</g>
<!-- User -->
<g id="node5" class="node"><title>User</title>
<path fill="none" stroke="black" d="M1168.5,-302.5C1168.5,-302.5 1457.5,-302.5 1457.5,-302.5 1463.5,-302.5 1469.5,-308.5 1469.5,-314.5 1469.5,-314.5 1469.5,-741.5 1469.5,-741.5 1469.5,-747.5 1463.5,-753.5 1457.5,-753.5 1457.5,-753.5 1168.5,-753.5 1168.5,-753.5 1162.5,-753.5 1156.5,-747.5 1156.5,-741.5 1156.5,-741.5 1156.5,-314.5 1156.5,-314.5 1156.5,-308.5 1162.5,-302.5 1168.5,-302.5"/>
<text text-anchor="middle" x="1313" y="-738.3" font-family="Times,serif" font-size="14.00">User</text>
<polyline fill="none" stroke="black" points="1156.5,-730.5 1469.5,-730.5 "/>
<text text-anchor="start" x="1164.5" y="-715.3" font-family="Times,serif" font-size="14.00">id :integer</text>
<text text-anchor="start" x="1164.5" y="-700.3" font-family="Times,serif" font-size="14.00">first_name :character varying</text>
<text text-anchor="start" x="1164.5" y="-685.3" font-family="Times,serif" font-size="14.00">last_name :character varying</text>
<text text-anchor="start" x="1164.5" y="-670.3" font-family="Times,serif" font-size="14.00">username :character varying</text>
<text text-anchor="start" x="1164.5" y="-655.3" font-family="Times,serif" font-size="14.00">type :character varying</text>
<text text-anchor="start" x="1164.5" y="-640.3" font-family="Times,serif" font-size="14.00">company_name :character varying</text>
<text text-anchor="start" x="1164.5" y="-625.3" font-family="Times,serif" font-size="14.00">subscription :boolean</text>
<text text-anchor="start" x="1164.5" y="-610.3" font-family="Times,serif" font-size="14.00">about :text</text>
<text text-anchor="start" x="1164.5" y="-595.3" font-family="Times,serif" font-size="14.00">created_at :timestamp without time zone</text>
<text text-anchor="start" x="1164.5" y="-580.3" font-family="Times,serif" font-size="14.00">updated_at :timestamp without time zone</text>
<text text-anchor="start" x="1164.5" y="-565.3" font-family="Times,serif" font-size="14.00">email :character varying</text>
<text text-anchor="start" x="1164.5" y="-550.3" font-family="Times,serif" font-size="14.00">encrypted_password :character varying</text>
<text text-anchor="start" x="1164.5" y="-535.3" font-family="Times,serif" font-size="14.00">reset_password_token :character varying</text>
<text text-anchor="start" x="1164.5" y="-520.3" font-family="Times,serif" font-size="14.00">reset_password_sent_at :timestamp without time zone</text>
<text text-anchor="start" x="1164.5" y="-505.3" font-family="Times,serif" font-size="14.00">remember_created_at :timestamp without time zone</text>
<text text-anchor="start" x="1164.5" y="-490.3" font-family="Times,serif" font-size="14.00">sign_in_count :integer</text>
<text text-anchor="start" x="1164.5" y="-475.3" font-family="Times,serif" font-size="14.00">current_sign_in_at :timestamp without time zone</text>
<text text-anchor="start" x="1164.5" y="-460.3" font-family="Times,serif" font-size="14.00">last_sign_in_at :timestamp without time zone</text>
<text text-anchor="start" x="1164.5" y="-445.3" font-family="Times,serif" font-size="14.00">current_sign_in_ip :inet</text>
<text text-anchor="start" x="1164.5" y="-430.3" font-family="Times,serif" font-size="14.00">last_sign_in_ip :inet</text>
<text text-anchor="start" x="1164.5" y="-415.3" font-family="Times,serif" font-size="14.00">confirmation_token :character varying</text>
<text text-anchor="start" x="1164.5" y="-400.3" font-family="Times,serif" font-size="14.00">confirmed_at :timestamp without time zone</text>
<text text-anchor="start" x="1164.5" y="-385.3" font-family="Times,serif" font-size="14.00">confirmation_sent_at :timestamp without time zone</text>
<text text-anchor="start" x="1164.5" y="-370.3" font-family="Times,serif" font-size="14.00">unconfirmed_email :character varying</text>
<text text-anchor="start" x="1164.5" y="-355.3" font-family="Times,serif" font-size="14.00">failed_attempts :integer</text>
<text text-anchor="start" x="1164.5" y="-340.3" font-family="Times,serif" font-size="14.00">unlock_token :character varying</text>
<text text-anchor="start" x="1164.5" y="-325.3" font-family="Times,serif" font-size="14.00">locked_at :timestamp without time zone</text>
<text text-anchor="start" x="1164.5" y="-310.3" font-family="Times,serif" font-size="14.00">partnership_plan_id :integer</text>
</g>
<!-- Feedback -->
<g id="node8" class="node"><title>Feedback</title>
<path fill="none" stroke="black" d="M1038,-159C1038,-159 1258,-159 1258,-159 1264,-159 1270,-165 1270,-171 1270,-171 1270,-253 1270,-253 1270,-259 1264,-265 1258,-265 1258,-265 1038,-265 1038,-265 1032,-265 1026,-259 1026,-253 1026,-253 1026,-171 1026,-171 1026,-165 1032,-159 1038,-159"/>
<text text-anchor="middle" x="1148" y="-249.8" font-family="Times,serif" font-size="14.00">Feedback</text>
<polyline fill="none" stroke="black" points="1026,-242 1270,-242 "/>
<text text-anchor="start" x="1034" y="-226.8" font-family="Times,serif" font-size="14.00">id :integer</text>
<text text-anchor="start" x="1034" y="-211.8" font-family="Times,serif" font-size="14.00">feedback :text</text>
<text text-anchor="start" x="1034" y="-196.8" font-family="Times,serif" font-size="14.00">user_id :integer</text>
<text text-anchor="start" x="1034" y="-181.8" font-family="Times,serif" font-size="14.00">created_at :timestamp without time zone</text>
<text text-anchor="start" x="1034" y="-166.8" font-family="Times,serif" font-size="14.00">updated_at :timestamp without time zone</text>
</g>
<!-- User&#45;&gt;Feedback -->
<g id="edge5" class="edge"><title>User&#45;&gt;Feedback</title>
<path fill="none" stroke="#aa5bd1" d="M1190.99,-294.817C1187.3,-287.797 1183.75,-281.04 1180.38,-274.624"/>
<ellipse fill="none" stroke="#aa5bd1" cx="1192.98" cy="-298.599" rx="4.00002" ry="4.00002"/>
<polygon fill="#aa5bd1" stroke="#aa5bd1" points="1180.23,-274.331 1179.56,-263.386 1177.9,-269.905 1175.58,-265.479 1175.58,-265.479 1175.58,-265.479 1177.9,-269.905 1171.59,-267.572 1180.23,-274.331 1180.23,-274.331"/>
</g>
<!-- Speaker&#45;&gt;Feedback -->
<g id="edge6" class="edge"><title>Speaker&#45;&gt;Feedback</title>
<path fill="none" stroke="#0cfc32" d="M814.429,-303.084C814.952,-302.72 815.475,-302.359 816,-302 874.91,-261.699 951.247,-239.629 1015.87,-227.551"/>
<ellipse fill="none" stroke="#0cfc32" cx="810.941" cy="-305.593" rx="4.00002" ry="4.00002"/>
<polygon fill="#0cfc32" stroke="#0cfc32" points="1015.88,-227.549 1026.52,-230.197 1020.8,-226.659 1025.72,-225.769 1025.72,-225.769 1025.72,-225.769 1020.8,-226.659 1024.92,-221.341 1015.88,-227.549 1015.88,-227.549"/>
</g>
<!-- PartnershipPlan -->
<g id="node7" class="node"><title>PartnershipPlan</title>
<path fill="none" stroke="black" d="M1534,-159C1534,-159 1754,-159 1754,-159 1760,-159 1766,-165 1766,-171 1766,-171 1766,-253 1766,-253 1766,-259 1760,-265 1754,-265 1754,-265 1534,-265 1534,-265 1528,-265 1522,-259 1522,-253 1522,-253 1522,-171 1522,-171 1522,-165 1528,-159 1534,-159"/>
<text text-anchor="middle" x="1644" y="-249.8" font-family="Times,serif" font-size="14.00">PartnershipPlan</text>
<polyline fill="none" stroke="black" points="1522,-242 1766,-242 "/>
<text text-anchor="start" x="1530" y="-226.8" font-family="Times,serif" font-size="14.00">id :integer</text>
<text text-anchor="start" x="1530" y="-211.8" font-family="Times,serif" font-size="14.00">name :character varying</text>
<text text-anchor="start" x="1530" y="-196.8" font-family="Times,serif" font-size="14.00">description :text</text>
<text text-anchor="start" x="1530" y="-181.8" font-family="Times,serif" font-size="14.00">created_at :timestamp without time zone</text>
<text text-anchor="start" x="1530" y="-166.8" font-family="Times,serif" font-size="14.00">updated_at :timestamp without time zone</text>
</g>
<!-- PartnershipPerk -->
<g id="node11" class="node"><title>PartnershipPerk</title>
<path fill="none" stroke="black" d="M1534,-0.5C1534,-0.5 1754,-0.5 1754,-0.5 1760,-0.5 1766,-6.5 1766,-12.5 1766,-12.5 1766,-109.5 1766,-109.5 1766,-115.5 1760,-121.5 1754,-121.5 1754,-121.5 1534,-121.5 1534,-121.5 1528,-121.5 1522,-115.5 1522,-109.5 1522,-109.5 1522,-12.5 1522,-12.5 1522,-6.5 1528,-0.5 1534,-0.5"/>
<text text-anchor="middle" x="1644" y="-106.3" font-family="Times,serif" font-size="14.00">PartnershipPerk</text>
<polyline fill="none" stroke="black" points="1522,-98.5 1766,-98.5 "/>
<text text-anchor="start" x="1530" y="-83.3" font-family="Times,serif" font-size="14.00">id :integer</text>
<text text-anchor="start" x="1530" y="-68.3" font-family="Times,serif" font-size="14.00">name :character varying</text>
<text text-anchor="start" x="1530" y="-53.3" font-family="Times,serif" font-size="14.00">description :text</text>
<text text-anchor="start" x="1530" y="-38.3" font-family="Times,serif" font-size="14.00">partnership_plan_id :integer</text>
<text text-anchor="start" x="1530" y="-23.3" font-family="Times,serif" font-size="14.00">created_at :timestamp without time zone</text>
<text text-anchor="start" x="1530" y="-8.3" font-family="Times,serif" font-size="14.00">updated_at :timestamp without time zone</text>
</g>
<!-- PartnershipPlan&#45;&gt;PartnershipPerk -->
<g id="edge7" class="edge"><title>PartnershipPlan&#45;&gt;PartnershipPerk</title>
<path fill="none" stroke="#09ee54" d="M1644,-150.615C1644,-144.513 1644,-138.28 1644,-132.088"/>
<ellipse fill="none" stroke="#09ee54" cx="1644" cy="-154.887" rx="4" ry="4"/>
<polygon fill="#09ee54" stroke="#09ee54" points="1644,-131.735 1648.5,-121.735 1644,-126.735 1644,-121.735 1644,-121.735 1644,-121.735 1644,-126.735 1639.5,-121.735 1644,-131.735 1644,-131.735"/>
</g>
<!-- OrganisersContact -->
<g id="node9" class="node"><title>OrganisersContact</title>
<path fill="none" stroke="black" d="M244,-813.5C244,-813.5 464,-813.5 464,-813.5 470,-813.5 476,-819.5 476,-825.5 476,-825.5 476,-892.5 476,-892.5 476,-898.5 470,-904.5 464,-904.5 464,-904.5 244,-904.5 244,-904.5 238,-904.5 232,-898.5 232,-892.5 232,-892.5 232,-825.5 232,-825.5 232,-819.5 238,-813.5 244,-813.5"/>
<text text-anchor="middle" x="354" y="-889.3" font-family="Times,serif" font-size="14.00">OrganisersContact</text>
<polyline fill="none" stroke="black" points="232,-881.5 476,-881.5 "/>
<text text-anchor="start" x="240" y="-866.3" font-family="Times,serif" font-size="14.00">id :integer</text>
<text text-anchor="start" x="240" y="-851.3" font-family="Times,serif" font-size="14.00">name :character varying</text>
<text text-anchor="start" x="240" y="-836.3" font-family="Times,serif" font-size="14.00">created_at :timestamp without time zone</text>
<text text-anchor="start" x="240" y="-821.3" font-family="Times,serif" font-size="14.00">updated_at :timestamp without time zone</text>
</g>
<!-- OrganisersContact&#45;&gt;Contact -->
<g id="edge8" class="edge"><title>OrganisersContact&#45;&gt;Contact</title>
<path fill="none" stroke="#130576" d="M354,-805.243C354,-746.932 354,-653.097 354,-591.238"/>
<ellipse fill="none" stroke="#130576" cx="354" cy="-809.287" rx="4" ry="4"/>
<polygon fill="#130576" stroke="#130576" points="354,-591.216 358.5,-581.216 354,-586.216 354,-581.216 354,-581.216 354,-581.216 354,-586.216 349.5,-581.216 354,-591.216 354,-591.216"/>
</g>
<!-- Partner&#45;&gt;PartnershipPlan -->
<g id="edge10" class="edge"><title>Partner&#45;&gt;PartnershipPlan</title>
<path fill="none" stroke="#5396af" d="M1644,-293.914C1644,-286.803 1644,-279.966 1644,-273.487"/>
<ellipse fill="none" stroke="#5396af" cx="1644" cy="-298.14" rx="4" ry="4"/>
<ellipse fill="#5396af" stroke="#5396af" cx="1644" cy="-269.479" rx="4" ry="4"/>
</g>
<!-- Partner&#45;&gt;Feedback -->
<g id="edge9" class="edge"><title>Partner&#45;&gt;Feedback</title>
<path fill="none" stroke="#f300f6" d="M1480.61,-303.809C1479.74,-303.2 1478.87,-302.597 1478,-302 1419.75,-262.207 1344.43,-240.179 1280.46,-227.998"/>
<ellipse fill="none" stroke="#f300f6" cx="1483.97" cy="-306.245" rx="4.00002" ry="4.00002"/>
<polygon fill="#f300f6" stroke="#f300f6" points="1280.12,-227.938 1271.11,-221.701 1275.21,-227.032 1270.29,-226.127 1270.29,-226.127 1270.29,-226.127 1275.21,-227.032 1269.48,-230.552 1280.12,-227.938 1280.12,-227.938"/>
</g>
<!-- Attendee&#45;&gt;Feedback -->
<g id="edge11" class="edge"><title>Attendee&#45;&gt;Feedback</title>
<path fill="none" stroke="#6e3494" d="M1104.75,-294.817C1108.46,-287.797 1112.03,-281.04 1115.42,-274.624"/>
<ellipse fill="none" stroke="#6e3494" cx="1102.74" cy="-298.604" rx="4.00002" ry="4.00002"/>
<polygon fill="#6e3494" stroke="#6e3494" points="1115.58,-274.32 1124.23,-267.582 1117.92,-269.899 1120.26,-265.479 1120.26,-265.479 1120.26,-265.479 1117.92,-269.899 1116.28,-263.376 1115.58,-274.32 1115.58,-274.32"/>
</g>
</g>
</svg>
