<?xml version="1.0" encoding="UTF-8" standalone="no"?>
<!DOCTYPE svg PUBLIC "-//W3C//DTD SVG 1.1//EN"
 "http://www.w3.org/Graphics/SVG/1.1/DTD/svg11.dtd">
<!-- Generated by graphviz version 2.36.0 (20140111.2315)
 -->
<!-- Title: models_diagram Pages: 1 -->
<svg width="2071pt" height="672pt"
 viewBox="0.00 0.00 2071.00 672.00" xmlns="http://www.w3.org/2000/svg" xmlns:xlink="http://www.w3.org/1999/xlink">
<g id="graph0" class="graph" transform="scale(1 1) rotate(0) translate(4 668)">
<title>models_diagram</title>
<polygon fill="none" stroke="none" points="-4,4 -4,-668 2067,-668 2067,4 -4,4"/>
<!-- _diagram_info -->
<g id="node1" class="node"><title>_diagram_info</title>
<text text-anchor="start" x="8" y="-499.6" font-family="Times,serif" font-size="13.00">Models diagram</text>
<text text-anchor="start" x="8" y="-485.6" font-family="Times,serif" font-size="13.00">Date: Nov 19 2015 &#45; 08:38</text>
<text text-anchor="start" x="8" y="-471.6" font-family="Times,serif" font-size="13.00">Migration version: 20151119063540</text>
<text text-anchor="start" x="8" y="-457.6" font-family="Times,serif" font-size="13.00">Generated by RailRoady 1.4.1</text>
<text text-anchor="start" x="8" y="-443.6" font-family="Times,serif" font-size="13.00">http://railroady.prestonlee.com</text>
</g>
<!-- ContactType -->
<g id="node2" class="node"><title>ContactType</title>
<path fill="none" stroke="black" d="M244,-0.5C244,-0.5 464,-0.5 464,-0.5 470,-0.5 476,-6.5 476,-12.5 476,-12.5 476,-79.5 476,-79.5 476,-85.5 470,-91.5 464,-91.5 464,-91.5 244,-91.5 244,-91.5 238,-91.5 232,-85.5 232,-79.5 232,-79.5 232,-12.5 232,-12.5 232,-6.5 238,-0.5 244,-0.5"/>
<text text-anchor="middle" x="354" y="-76.3" font-family="Times,serif" font-size="14.00">ContactType</text>
<polyline fill="none" stroke="black" points="232,-68.5 476,-68.5 "/>
<text text-anchor="start" x="240" y="-53.3" font-family="Times,serif" font-size="14.00">id :integer</text>
<text text-anchor="start" x="240" y="-38.3" font-family="Times,serif" font-size="14.00">name :character varying</text>
<text text-anchor="start" x="240" y="-23.3" font-family="Times,serif" font-size="14.00">created_at :timestamp without time zone</text>
<text text-anchor="start" x="240" y="-8.3" font-family="Times,serif" font-size="14.00">updated_at :timestamp without time zone</text>
</g>
<!-- Contact -->
<g id="node3" class="node"><title>Contact</title>
<path fill="none" stroke="black" d="M244,-136C244,-136 464,-136 464,-136 470,-136 476,-142 476,-148 476,-148 476,-230 476,-230 476,-236 470,-242 464,-242 464,-242 244,-242 244,-242 238,-242 232,-236 232,-230 232,-230 232,-148 232,-148 232,-142 238,-136 244,-136"/>
<text text-anchor="middle" x="354" y="-226.8" font-family="Times,serif" font-size="14.00">Contact</text>
<polyline fill="none" stroke="black" points="232,-219 476,-219 "/>
<text text-anchor="start" x="240" y="-203.8" font-family="Times,serif" font-size="14.00">id :integer</text>
<text text-anchor="start" x="240" y="-188.8" font-family="Times,serif" font-size="14.00">contact :character varying</text>
<text text-anchor="start" x="240" y="-173.8" font-family="Times,serif" font-size="14.00">created_at :timestamp without time zone</text>
<text text-anchor="start" x="240" y="-158.8" font-family="Times,serif" font-size="14.00">updated_at :timestamp without time zone</text>
<text text-anchor="start" x="240" y="-143.8" font-family="Times,serif" font-size="14.00">contact_type_id :integer</text>
</g>
<!-- Contact&#45;&gt;ContactType -->
<g id="edge1" class="edge"><title>Contact&#45;&gt;ContactType</title>
<path fill="none" stroke="#36b433" d="M354,-127.679C354,-118.5 354,-109.085 354,-100.076"/>
<ellipse fill="none" stroke="#36b433" cx="354" cy="-131.897" rx="4" ry="4"/>
<ellipse fill="#36b433" stroke="#36b433" cx="354" cy="-95.9343" rx="4" ry="4"/>
</g>
<!-- User -->
<g id="node4" class="node"><title>User</title>
<path fill="none" stroke="black" d="M506.5,-287C506.5,-287 795.5,-287 795.5,-287 801.5,-287 807.5,-293 807.5,-299 807.5,-299 807.5,-651 807.5,-651 807.5,-657 801.5,-663 795.5,-663 795.5,-663 506.5,-663 506.5,-663 500.5,-663 494.5,-657 494.5,-651 494.5,-651 494.5,-299 494.5,-299 494.5,-293 500.5,-287 506.5,-287"/>
<text text-anchor="middle" x="651" y="-647.8" font-family="Times,serif" font-size="14.00">User</text>
<polyline fill="none" stroke="black" points="494.5,-640 807.5,-640 "/>
<text text-anchor="start" x="502.5" y="-624.8" font-family="Times,serif" font-size="14.00">id :integer</text>
<text text-anchor="start" x="502.5" y="-609.8" font-family="Times,serif" font-size="14.00">first_name :character varying</text>
<text text-anchor="start" x="502.5" y="-594.8" font-family="Times,serif" font-size="14.00">last_name :character varying</text>
<text text-anchor="start" x="502.5" y="-579.8" font-family="Times,serif" font-size="14.00">type :character varying</text>
<text text-anchor="start" x="502.5" y="-564.8" font-family="Times,serif" font-size="14.00">created_at :timestamp without time zone</text>
<text text-anchor="start" x="502.5" y="-549.8" font-family="Times,serif" font-size="14.00">updated_at :timestamp without time zone</text>
<text text-anchor="start" x="502.5" y="-534.8" font-family="Times,serif" font-size="14.00">email :character varying</text>
<text text-anchor="start" x="502.5" y="-519.8" font-family="Times,serif" font-size="14.00">encrypted_password :character varying</text>
<text text-anchor="start" x="502.5" y="-504.8" font-family="Times,serif" font-size="14.00">reset_password_token :character varying</text>
<text text-anchor="start" x="502.5" y="-489.8" font-family="Times,serif" font-size="14.00">reset_password_sent_at :timestamp without time zone</text>
<text text-anchor="start" x="502.5" y="-474.8" font-family="Times,serif" font-size="14.00">remember_created_at :timestamp without time zone</text>
<text text-anchor="start" x="502.5" y="-459.8" font-family="Times,serif" font-size="14.00">sign_in_count :integer</text>
<text text-anchor="start" x="502.5" y="-444.8" font-family="Times,serif" font-size="14.00">current_sign_in_at :timestamp without time zone</text>
<text text-anchor="start" x="502.5" y="-429.8" font-family="Times,serif" font-size="14.00">last_sign_in_at :timestamp without time zone</text>
<text text-anchor="start" x="502.5" y="-414.8" font-family="Times,serif" font-size="14.00">current_sign_in_ip :inet</text>
<text text-anchor="start" x="502.5" y="-399.8" font-family="Times,serif" font-size="14.00">last_sign_in_ip :inet</text>
<text text-anchor="start" x="502.5" y="-384.8" font-family="Times,serif" font-size="14.00">confirmation_token :character varying</text>
<text text-anchor="start" x="502.5" y="-369.8" font-family="Times,serif" font-size="14.00">confirmed_at :timestamp without time zone</text>
<text text-anchor="start" x="502.5" y="-354.8" font-family="Times,serif" font-size="14.00">confirmation_sent_at :timestamp without time zone</text>
<text text-anchor="start" x="502.5" y="-339.8" font-family="Times,serif" font-size="14.00">unconfirmed_email :character varying</text>
<text text-anchor="start" x="502.5" y="-324.8" font-family="Times,serif" font-size="14.00">failed_attempts :integer</text>
<text text-anchor="start" x="502.5" y="-309.8" font-family="Times,serif" font-size="14.00">unlock_token :character varying</text>
<text text-anchor="start" x="502.5" y="-294.8" font-family="Times,serif" font-size="14.00">locked_at :timestamp without time zone</text>
</g>
<!-- Speaker -->
<g id="node5" class="node"><title>Speaker</title>
<path fill="none" stroke="black" d="M837.5,-287C837.5,-287 1126.5,-287 1126.5,-287 1132.5,-287 1138.5,-293 1138.5,-299 1138.5,-299 1138.5,-651 1138.5,-651 1138.5,-657 1132.5,-663 1126.5,-663 1126.5,-663 837.5,-663 837.5,-663 831.5,-663 825.5,-657 825.5,-651 825.5,-651 825.5,-299 825.5,-299 825.5,-293 831.5,-287 837.5,-287"/>
<text text-anchor="middle" x="982" y="-647.8" font-family="Times,serif" font-size="14.00">Speaker</text>
<polyline fill="none" stroke="black" points="825.5,-640 1138.5,-640 "/>
<text text-anchor="start" x="833.5" y="-624.8" font-family="Times,serif" font-size="14.00">id :integer</text>
<text text-anchor="start" x="833.5" y="-609.8" font-family="Times,serif" font-size="14.00">first_name :character varying</text>
<text text-anchor="start" x="833.5" y="-594.8" font-family="Times,serif" font-size="14.00">last_name :character varying</text>
<text text-anchor="start" x="833.5" y="-579.8" font-family="Times,serif" font-size="14.00">type :character varying</text>
<text text-anchor="start" x="833.5" y="-564.8" font-family="Times,serif" font-size="14.00">created_at :timestamp without time zone</text>
<text text-anchor="start" x="833.5" y="-549.8" font-family="Times,serif" font-size="14.00">updated_at :timestamp without time zone</text>
<text text-anchor="start" x="833.5" y="-534.8" font-family="Times,serif" font-size="14.00">email :character varying</text>
<text text-anchor="start" x="833.5" y="-519.8" font-family="Times,serif" font-size="14.00">encrypted_password :character varying</text>
<text text-anchor="start" x="833.5" y="-504.8" font-family="Times,serif" font-size="14.00">reset_password_token :character varying</text>
<text text-anchor="start" x="833.5" y="-489.8" font-family="Times,serif" font-size="14.00">reset_password_sent_at :timestamp without time zone</text>
<text text-anchor="start" x="833.5" y="-474.8" font-family="Times,serif" font-size="14.00">remember_created_at :timestamp without time zone</text>
<text text-anchor="start" x="833.5" y="-459.8" font-family="Times,serif" font-size="14.00">sign_in_count :integer</text>
<text text-anchor="start" x="833.5" y="-444.8" font-family="Times,serif" font-size="14.00">current_sign_in_at :timestamp without time zone</text>
<text text-anchor="start" x="833.5" y="-429.8" font-family="Times,serif" font-size="14.00">last_sign_in_at :timestamp without time zone</text>
<text text-anchor="start" x="833.5" y="-414.8" font-family="Times,serif" font-size="14.00">current_sign_in_ip :inet</text>
<text text-anchor="start" x="833.5" y="-399.8" font-family="Times,serif" font-size="14.00">last_sign_in_ip :inet</text>
<text text-anchor="start" x="833.5" y="-384.8" font-family="Times,serif" font-size="14.00">confirmation_token :character varying</text>
<text text-anchor="start" x="833.5" y="-369.8" font-family="Times,serif" font-size="14.00">confirmed_at :timestamp without time zone</text>
<text text-anchor="start" x="833.5" y="-354.8" font-family="Times,serif" font-size="14.00">confirmation_sent_at :timestamp without time zone</text>
<text text-anchor="start" x="833.5" y="-339.8" font-family="Times,serif" font-size="14.00">unconfirmed_email :character varying</text>
<text text-anchor="start" x="833.5" y="-324.8" font-family="Times,serif" font-size="14.00">failed_attempts :integer</text>
<text text-anchor="start" x="833.5" y="-309.8" font-family="Times,serif" font-size="14.00">unlock_token :character varying</text>
<text text-anchor="start" x="833.5" y="-294.8" font-family="Times,serif" font-size="14.00">locked_at :timestamp without time zone</text>
</g>
<!-- PartnershipPlan -->
<g id="node6" class="node"><title>PartnershipPlan</title>
<path fill="none" stroke="black" d="M1169,-422C1169,-422 1389,-422 1389,-422 1395,-422 1401,-428 1401,-434 1401,-434 1401,-516 1401,-516 1401,-522 1395,-528 1389,-528 1389,-528 1169,-528 1169,-528 1163,-528 1157,-522 1157,-516 1157,-516 1157,-434 1157,-434 1157,-428 1163,-422 1169,-422"/>
<text text-anchor="middle" x="1279" y="-512.8" font-family="Times,serif" font-size="14.00">PartnershipPlan</text>
<polyline fill="none" stroke="black" points="1157,-505 1401,-505 "/>
<text text-anchor="start" x="1165" y="-489.8" font-family="Times,serif" font-size="14.00">id :integer</text>
<text text-anchor="start" x="1165" y="-474.8" font-family="Times,serif" font-size="14.00">name :character varying</text>
<text text-anchor="start" x="1165" y="-459.8" font-family="Times,serif" font-size="14.00">description :text</text>
<text text-anchor="start" x="1165" y="-444.8" font-family="Times,serif" font-size="14.00">created_at :timestamp without time zone</text>
<text text-anchor="start" x="1165" y="-429.8" font-family="Times,serif" font-size="14.00">updated_at :timestamp without time zone</text>
</g>
<!-- PartnershipPerk -->
<g id="node9" class="node"><title>PartnershipPerk</title>
<path fill="none" stroke="black" d="M1169,-128.5C1169,-128.5 1389,-128.5 1389,-128.5 1395,-128.5 1401,-134.5 1401,-140.5 1401,-140.5 1401,-237.5 1401,-237.5 1401,-243.5 1395,-249.5 1389,-249.5 1389,-249.5 1169,-249.5 1169,-249.5 1163,-249.5 1157,-243.5 1157,-237.5 1157,-237.5 1157,-140.5 1157,-140.5 1157,-134.5 1163,-128.5 1169,-128.5"/>
<text text-anchor="middle" x="1279" y="-234.3" font-family="Times,serif" font-size="14.00">PartnershipPerk</text>
<polyline fill="none" stroke="black" points="1157,-226.5 1401,-226.5 "/>
<text text-anchor="start" x="1165" y="-211.3" font-family="Times,serif" font-size="14.00">id :integer</text>
<text text-anchor="start" x="1165" y="-196.3" font-family="Times,serif" font-size="14.00">name :character varying</text>
<text text-anchor="start" x="1165" y="-181.3" font-family="Times,serif" font-size="14.00">description :text</text>
<text text-anchor="start" x="1165" y="-166.3" font-family="Times,serif" font-size="14.00">partnership_plan_id :integer</text>
<text text-anchor="start" x="1165" y="-151.3" font-family="Times,serif" font-size="14.00">created_at :timestamp without time zone</text>
<text text-anchor="start" x="1165" y="-136.3" font-family="Times,serif" font-size="14.00">updated_at :timestamp without time zone</text>
</g>
<!-- PartnershipPlan&#45;&gt;PartnershipPerk -->
<g id="edge2" class="edge"><title>PartnershipPlan&#45;&gt;PartnershipPerk</title>
<path fill="none" stroke="#e5b43d" d="M1279,-413.716C1279,-368.657 1279,-306.956 1279,-259.764"/>
<ellipse fill="none" stroke="#e5b43d" cx="1279" cy="-417.91" rx="4" ry="4"/>
<polygon fill="#e5b43d" stroke="#e5b43d" points="1279,-259.622 1283.5,-249.622 1279,-254.622 1279,-249.622 1279,-249.622 1279,-249.622 1279,-254.622 1274.5,-249.622 1279,-259.622 1279,-259.622"/>
</g>
<!-- OrganisersContact -->
<g id="node7" class="node"><title>OrganisersContact</title>
<path fill="none" stroke="black" d="M244,-422C244,-422 464,-422 464,-422 470,-422 476,-428 476,-434 476,-434 476,-516 476,-516 476,-522 470,-528 464,-528 464,-528 244,-528 244,-528 238,-528 232,-522 232,-516 232,-516 232,-434 232,-434 232,-428 238,-422 244,-422"/>
<text text-anchor="middle" x="354" y="-512.8" font-family="Times,serif" font-size="14.00">OrganisersContact</text>
<polyline fill="none" stroke="black" points="232,-505 476,-505 "/>
<text text-anchor="start" x="240" y="-489.8" font-family="Times,serif" font-size="14.00">id :integer</text>
<text text-anchor="start" x="240" y="-474.8" font-family="Times,serif" font-size="14.00">name :character varying</text>
<text text-anchor="start" x="240" y="-459.8" font-family="Times,serif" font-size="14.00">created_at :timestamp without time zone</text>
<text text-anchor="start" x="240" y="-444.8" font-family="Times,serif" font-size="14.00">updated_at :timestamp without time zone</text>
<text text-anchor="start" x="240" y="-429.8" font-family="Times,serif" font-size="14.00">contact_id :integer</text>
</g>
<!-- OrganisersContact&#45;&gt;Contact -->
<g id="edge3" class="edge"><title>OrganisersContact&#45;&gt;Contact</title>
<path fill="none" stroke="#f35220" d="M354,-413.616C354,-366.21 354,-300.43 354,-252.49"/>
<ellipse fill="none" stroke="#f35220" cx="354" cy="-417.91" rx="4" ry="4"/>
<polygon fill="#f35220" stroke="#f35220" points="354,-252.24 358.5,-242.24 354,-247.24 354,-242.24 354,-242.24 354,-242.24 354,-247.24 349.5,-242.24 354,-252.24 354,-252.24"/>
</g>
<!-- Partner -->
<g id="node8" class="node"><title>Partner</title>
<path fill="none" stroke="black" d="M1431.5,-287C1431.5,-287 1720.5,-287 1720.5,-287 1726.5,-287 1732.5,-293 1732.5,-299 1732.5,-299 1732.5,-651 1732.5,-651 1732.5,-657 1726.5,-663 1720.5,-663 1720.5,-663 1431.5,-663 1431.5,-663 1425.5,-663 1419.5,-657 1419.5,-651 1419.5,-651 1419.5,-299 1419.5,-299 1419.5,-293 1425.5,-287 1431.5,-287"/>
<text text-anchor="middle" x="1576" y="-647.8" font-family="Times,serif" font-size="14.00">Partner</text>
<polyline fill="none" stroke="black" points="1419.5,-640 1732.5,-640 "/>
<text text-anchor="start" x="1427.5" y="-624.8" font-family="Times,serif" font-size="14.00">id :integer</text>
<text text-anchor="start" x="1427.5" y="-609.8" font-family="Times,serif" font-size="14.00">first_name :character varying</text>
<text text-anchor="start" x="1427.5" y="-594.8" font-family="Times,serif" font-size="14.00">last_name :character varying</text>
<text text-anchor="start" x="1427.5" y="-579.8" font-family="Times,serif" font-size="14.00">type :character varying</text>
<text text-anchor="start" x="1427.5" y="-564.8" font-family="Times,serif" font-size="14.00">created_at :timestamp without time zone</text>
<text text-anchor="start" x="1427.5" y="-549.8" font-family="Times,serif" font-size="14.00">updated_at :timestamp without time zone</text>
<text text-anchor="start" x="1427.5" y="-534.8" font-family="Times,serif" font-size="14.00">email :character varying</text>
<text text-anchor="start" x="1427.5" y="-519.8" font-family="Times,serif" font-size="14.00">encrypted_password :character varying</text>
<text text-anchor="start" x="1427.5" y="-504.8" font-family="Times,serif" font-size="14.00">reset_password_token :character varying</text>
<text text-anchor="start" x="1427.5" y="-489.8" font-family="Times,serif" font-size="14.00">reset_password_sent_at :timestamp without time zone</text>
<text text-anchor="start" x="1427.5" y="-474.8" font-family="Times,serif" font-size="14.00">remember_created_at :timestamp without time zone</text>
<text text-anchor="start" x="1427.5" y="-459.8" font-family="Times,serif" font-size="14.00">sign_in_count :integer</text>
<text text-anchor="start" x="1427.5" y="-444.8" font-family="Times,serif" font-size="14.00">current_sign_in_at :timestamp without time zone</text>
<text text-anchor="start" x="1427.5" y="-429.8" font-family="Times,serif" font-size="14.00">last_sign_in_at :timestamp without time zone</text>
<text text-anchor="start" x="1427.5" y="-414.8" font-family="Times,serif" font-size="14.00">current_sign_in_ip :inet</text>
<text text-anchor="start" x="1427.5" y="-399.8" font-family="Times,serif" font-size="14.00">last_sign_in_ip :inet</text>
<text text-anchor="start" x="1427.5" y="-384.8" font-family="Times,serif" font-size="14.00">confirmation_token :character varying</text>
<text text-anchor="start" x="1427.5" y="-369.8" font-family="Times,serif" font-size="14.00">confirmed_at :timestamp without time zone</text>
<text text-anchor="start" x="1427.5" y="-354.8" font-family="Times,serif" font-size="14.00">confirmation_sent_at :timestamp without time zone</text>
<text text-anchor="start" x="1427.5" y="-339.8" font-family="Times,serif" font-size="14.00">unconfirmed_email :character varying</text>
<text text-anchor="start" x="1427.5" y="-324.8" font-family="Times,serif" font-size="14.00">failed_attempts :integer</text>
<text text-anchor="start" x="1427.5" y="-309.8" font-family="Times,serif" font-size="14.00">unlock_token :character varying</text>
<text text-anchor="start" x="1427.5" y="-294.8" font-family="Times,serif" font-size="14.00">locked_at :timestamp without time zone</text>
</g>
<!-- Attendee -->
<g id="node10" class="node"><title>Attendee</title>
<path fill="none" stroke="black" d="M1762.5,-287C1762.5,-287 2051.5,-287 2051.5,-287 2057.5,-287 2063.5,-293 2063.5,-299 2063.5,-299 2063.5,-651 2063.5,-651 2063.5,-657 2057.5,-663 2051.5,-663 2051.5,-663 1762.5,-663 1762.5,-663 1756.5,-663 1750.5,-657 1750.5,-651 1750.5,-651 1750.5,-299 1750.5,-299 1750.5,-293 1756.5,-287 1762.5,-287"/>
<text text-anchor="middle" x="1907" y="-647.8" font-family="Times,serif" font-size="14.00">Attendee</text>
<polyline fill="none" stroke="black" points="1750.5,-640 2063.5,-640 "/>
<text text-anchor="start" x="1758.5" y="-624.8" font-family="Times,serif" font-size="14.00">id :integer</text>
<text text-anchor="start" x="1758.5" y="-609.8" font-family="Times,serif" font-size="14.00">first_name :character varying</text>
<text text-anchor="start" x="1758.5" y="-594.8" font-family="Times,serif" font-size="14.00">last_name :character varying</text>
<text text-anchor="start" x="1758.5" y="-579.8" font-family="Times,serif" font-size="14.00">type :character varying</text>
<text text-anchor="start" x="1758.5" y="-564.8" font-family="Times,serif" font-size="14.00">created_at :timestamp without time zone</text>
<text text-anchor="start" x="1758.5" y="-549.8" font-family="Times,serif" font-size="14.00">updated_at :timestamp without time zone</text>
<text text-anchor="start" x="1758.5" y="-534.8" font-family="Times,serif" font-size="14.00">email :character varying</text>
<text text-anchor="start" x="1758.5" y="-519.8" font-family="Times,serif" font-size="14.00">encrypted_password :character varying</text>
<text text-anchor="start" x="1758.5" y="-504.8" font-family="Times,serif" font-size="14.00">reset_password_token :character varying</text>
<text text-anchor="start" x="1758.5" y="-489.8" font-family="Times,serif" font-size="14.00">reset_password_sent_at :timestamp without time zone</text>
<text text-anchor="start" x="1758.5" y="-474.8" font-family="Times,serif" font-size="14.00">remember_created_at :timestamp without time zone</text>
<text text-anchor="start" x="1758.5" y="-459.8" font-family="Times,serif" font-size="14.00">sign_in_count :integer</text>
<text text-anchor="start" x="1758.5" y="-444.8" font-family="Times,serif" font-size="14.00">current_sign_in_at :timestamp without time zone</text>
<text text-anchor="start" x="1758.5" y="-429.8" font-family="Times,serif" font-size="14.00">last_sign_in_at :timestamp without time zone</text>
<text text-anchor="start" x="1758.5" y="-414.8" font-family="Times,serif" font-size="14.00">current_sign_in_ip :inet</text>
<text text-anchor="start" x="1758.5" y="-399.8" font-family="Times,serif" font-size="14.00">last_sign_in_ip :inet</text>
<text text-anchor="start" x="1758.5" y="-384.8" font-family="Times,serif" font-size="14.00">confirmation_token :character varying</text>
<text text-anchor="start" x="1758.5" y="-369.8" font-family="Times,serif" font-size="14.00">confirmed_at :timestamp without time zone</text>
<text text-anchor="start" x="1758.5" y="-354.8" font-family="Times,serif" font-size="14.00">confirmation_sent_at :timestamp without time zone</text>
<text text-anchor="start" x="1758.5" y="-339.8" font-family="Times,serif" font-size="14.00">unconfirmed_email :character varying</text>
<text text-anchor="start" x="1758.5" y="-324.8" font-family="Times,serif" font-size="14.00">failed_attempts :integer</text>
<text text-anchor="start" x="1758.5" y="-309.8" font-family="Times,serif" font-size="14.00">unlock_token :character varying</text>
<text text-anchor="start" x="1758.5" y="-294.8" font-family="Times,serif" font-size="14.00">locked_at :timestamp without time zone</text>
</g>
</g>
</svg>
