<?xml version="1.0" encoding="UTF-8" standalone="no"?>
<!DOCTYPE svg PUBLIC "-//W3C//DTD SVG 1.1//EN"
 "http://www.w3.org/Graphics/SVG/1.1/DTD/svg11.dtd">
<!-- Generated by graphviz version 2.36.0 (20140111.2315)
 -->
<!-- Title: models_diagram Pages: 1 -->
<svg width="1542pt" height="1330pt"
 viewBox="0.00 0.00 1542.00 1330.00" xmlns="http://www.w3.org/2000/svg" xmlns:xlink="http://www.w3.org/1999/xlink">
<g id="graph0" class="graph" transform="scale(1 1) rotate(0) translate(4 1326)">
<title>models_diagram</title>
<polygon fill="none" stroke="none" points="-4,4 -4,-1326 1538,-1326 1538,4 -4,4"/>
<!-- _diagram_info -->
<g id="node1" class="node"><title>_diagram_info</title>
<text text-anchor="start" x="8" y="-1120.6" font-family="Times,serif" font-size="13.00">Models diagram</text>
<text text-anchor="start" x="8" y="-1106.6" font-family="Times,serif" font-size="13.00">Date: Nov 19 2015 &#45; 12:40</text>
<text text-anchor="start" x="8" y="-1092.6" font-family="Times,serif" font-size="13.00">Migration version: 20151119102638</text>
<text text-anchor="start" x="8" y="-1078.6" font-family="Times,serif" font-size="13.00">Generated by RailRoady 1.4.1</text>
<text text-anchor="start" x="8" y="-1064.6" font-family="Times,serif" font-size="13.00">http://railroady.prestonlee.com</text>
</g>
<!-- ContactType -->
<g id="node2" class="node"><title>ContactType</title>
<path fill="none" stroke="black" d="M244,-319C244,-319 464,-319 464,-319 470,-319 476,-325 476,-331 476,-331 476,-413 476,-413 476,-419 470,-425 464,-425 464,-425 244,-425 244,-425 238,-425 232,-419 232,-413 232,-413 232,-331 232,-331 232,-325 238,-319 244,-319"/>
<text text-anchor="middle" x="354" y="-409.8" font-family="Times,serif" font-size="14.00">ContactType</text>
<polyline fill="none" stroke="black" points="232,-402 476,-402 "/>
<text text-anchor="start" x="240" y="-386.8" font-family="Times,serif" font-size="14.00">id :integer</text>
<text text-anchor="start" x="240" y="-371.8" font-family="Times,serif" font-size="14.00">name :character varying</text>
<text text-anchor="start" x="240" y="-356.8" font-family="Times,serif" font-size="14.00">contact_id :integer</text>
<text text-anchor="start" x="240" y="-341.8" font-family="Times,serif" font-size="14.00">created_at :timestamp without time zone</text>
<text text-anchor="start" x="240" y="-326.8" font-family="Times,serif" font-size="14.00">updated_at :timestamp without time zone</text>
</g>
<!-- Contact -->
<g id="node3" class="node"><title>Contact</title>
<path fill="none" stroke="black" d="M244,-688C244,-688 464,-688 464,-688 470,-688 476,-694 476,-700 476,-700 476,-782 476,-782 476,-788 470,-794 464,-794 464,-794 244,-794 244,-794 238,-794 232,-788 232,-782 232,-782 232,-700 232,-700 232,-694 238,-688 244,-688"/>
<text text-anchor="middle" x="354" y="-778.8" font-family="Times,serif" font-size="14.00">Contact</text>
<polyline fill="none" stroke="black" points="232,-771 476,-771 "/>
<text text-anchor="start" x="240" y="-755.8" font-family="Times,serif" font-size="14.00">id :integer</text>
<text text-anchor="start" x="240" y="-740.8" font-family="Times,serif" font-size="14.00">contact :character varying</text>
<text text-anchor="start" x="240" y="-725.8" font-family="Times,serif" font-size="14.00">organisers_contact_id :integer</text>
<text text-anchor="start" x="240" y="-710.8" font-family="Times,serif" font-size="14.00">created_at :timestamp without time zone</text>
<text text-anchor="start" x="240" y="-695.8" font-family="Times,serif" font-size="14.00">updated_at :timestamp without time zone</text>
</g>
<!-- Contact&#45;&gt;ContactType -->
<g id="edge1" class="edge"><title>Contact&#45;&gt;ContactType</title>
<path fill="none" stroke="#345525" d="M354,-679.384C354,-611.182 354,-501.073 354,-433.089"/>
<ellipse fill="none" stroke="#345525" cx="354" cy="-683.808" rx="4" ry="4"/>
<ellipse fill="#345525" stroke="#345525" cx="354" cy="-429.012" rx="4" ry="4"/>
</g>
<!-- Conference -->
<g id="node4" class="node"><title>Conference</title>
<path fill="none" stroke="black" d="M806,-673C806,-673 1026,-673 1026,-673 1032,-673 1038,-679 1038,-685 1038,-685 1038,-797 1038,-797 1038,-803 1032,-809 1026,-809 1026,-809 806,-809 806,-809 800,-809 794,-803 794,-797 794,-797 794,-685 794,-685 794,-679 800,-673 806,-673"/>
<text text-anchor="middle" x="916" y="-793.8" font-family="Times,serif" font-size="14.00">Conference</text>
<polyline fill="none" stroke="black" points="794,-786 1038,-786 "/>
<text text-anchor="start" x="802" y="-770.8" font-family="Times,serif" font-size="14.00">id :integer</text>
<text text-anchor="start" x="802" y="-755.8" font-family="Times,serif" font-size="14.00">name :character varying</text>
<text text-anchor="start" x="802" y="-740.8" font-family="Times,serif" font-size="14.00">description :text</text>
<text text-anchor="start" x="802" y="-725.8" font-family="Times,serif" font-size="14.00">date :date</text>
<text text-anchor="start" x="802" y="-710.8" font-family="Times,serif" font-size="14.00">place :character varying</text>
<text text-anchor="start" x="802" y="-695.8" font-family="Times,serif" font-size="14.00">created_at :timestamp without time zone</text>
<text text-anchor="start" x="802" y="-680.8" font-family="Times,serif" font-size="14.00">updated_at :timestamp without time zone</text>
</g>
<!-- User -->
<g id="node5" class="node"><title>User</title>
<path fill="none" stroke="black" d="M736.5,-146.5C736.5,-146.5 1025.5,-146.5 1025.5,-146.5 1031.5,-146.5 1037.5,-152.5 1037.5,-158.5 1037.5,-158.5 1037.5,-585.5 1037.5,-585.5 1037.5,-591.5 1031.5,-597.5 1025.5,-597.5 1025.5,-597.5 736.5,-597.5 736.5,-597.5 730.5,-597.5 724.5,-591.5 724.5,-585.5 724.5,-585.5 724.5,-158.5 724.5,-158.5 724.5,-152.5 730.5,-146.5 736.5,-146.5"/>
<text text-anchor="middle" x="881" y="-582.3" font-family="Times,serif" font-size="14.00">User</text>
<polyline fill="none" stroke="black" points="724.5,-574.5 1037.5,-574.5 "/>
<text text-anchor="start" x="732.5" y="-559.3" font-family="Times,serif" font-size="14.00">id :integer</text>
<text text-anchor="start" x="732.5" y="-544.3" font-family="Times,serif" font-size="14.00">first_name :character varying</text>
<text text-anchor="start" x="732.5" y="-529.3" font-family="Times,serif" font-size="14.00">last_name :character varying</text>
<text text-anchor="start" x="732.5" y="-514.3" font-family="Times,serif" font-size="14.00">username :character varying</text>
<text text-anchor="start" x="732.5" y="-499.3" font-family="Times,serif" font-size="14.00">type :character varying</text>
<text text-anchor="start" x="732.5" y="-484.3" font-family="Times,serif" font-size="14.00">company_name :character varying</text>
<text text-anchor="start" x="732.5" y="-469.3" font-family="Times,serif" font-size="14.00">subscription :boolean</text>
<text text-anchor="start" x="732.5" y="-454.3" font-family="Times,serif" font-size="14.00">about :text</text>
<text text-anchor="start" x="732.5" y="-439.3" font-family="Times,serif" font-size="14.00">created_at :timestamp without time zone</text>
<text text-anchor="start" x="732.5" y="-424.3" font-family="Times,serif" font-size="14.00">updated_at :timestamp without time zone</text>
<text text-anchor="start" x="732.5" y="-409.3" font-family="Times,serif" font-size="14.00">email :character varying</text>
<text text-anchor="start" x="732.5" y="-394.3" font-family="Times,serif" font-size="14.00">encrypted_password :character varying</text>
<text text-anchor="start" x="732.5" y="-379.3" font-family="Times,serif" font-size="14.00">reset_password_token :character varying</text>
<text text-anchor="start" x="732.5" y="-364.3" font-family="Times,serif" font-size="14.00">reset_password_sent_at :timestamp without time zone</text>
<text text-anchor="start" x="732.5" y="-349.3" font-family="Times,serif" font-size="14.00">remember_created_at :timestamp without time zone</text>
<text text-anchor="start" x="732.5" y="-334.3" font-family="Times,serif" font-size="14.00">sign_in_count :integer</text>
<text text-anchor="start" x="732.5" y="-319.3" font-family="Times,serif" font-size="14.00">current_sign_in_at :timestamp without time zone</text>
<text text-anchor="start" x="732.5" y="-304.3" font-family="Times,serif" font-size="14.00">last_sign_in_at :timestamp without time zone</text>
<text text-anchor="start" x="732.5" y="-289.3" font-family="Times,serif" font-size="14.00">current_sign_in_ip :inet</text>
<text text-anchor="start" x="732.5" y="-274.3" font-family="Times,serif" font-size="14.00">last_sign_in_ip :inet</text>
<text text-anchor="start" x="732.5" y="-259.3" font-family="Times,serif" font-size="14.00">confirmation_token :character varying</text>
<text text-anchor="start" x="732.5" y="-244.3" font-family="Times,serif" font-size="14.00">confirmed_at :timestamp without time zone</text>
<text text-anchor="start" x="732.5" y="-229.3" font-family="Times,serif" font-size="14.00">confirmation_sent_at :timestamp without time zone</text>
<text text-anchor="start" x="732.5" y="-214.3" font-family="Times,serif" font-size="14.00">unconfirmed_email :character varying</text>
<text text-anchor="start" x="732.5" y="-199.3" font-family="Times,serif" font-size="14.00">failed_attempts :integer</text>
<text text-anchor="start" x="732.5" y="-184.3" font-family="Times,serif" font-size="14.00">unlock_token :character varying</text>
<text text-anchor="start" x="732.5" y="-169.3" font-family="Times,serif" font-size="14.00">locked_at :timestamp without time zone</text>
<text text-anchor="start" x="732.5" y="-154.3" font-family="Times,serif" font-size="14.00">partnership_plan_id :integer</text>
</g>
<!-- Conference&#45;&gt;User -->
<g id="edge2" class="edge"><title>Conference&#45;&gt;User</title>
<path fill="none" stroke="#83bdd9" d="M940.093,-663.052C942.531,-652.703 944.616,-642.155 946,-632 947.079,-624.087 947.718,-616.066 947.972,-607.988"/>
<polygon fill="#83bdd9" stroke="#83bdd9" points="940.06,-663.187 933.29,-671.814 938.859,-668.041 937.659,-672.895 937.659,-672.895 937.659,-672.895 938.859,-668.041 942.027,-673.975 940.06,-663.187 940.06,-663.187"/>
<polygon fill="#83bdd9" stroke="#83bdd9" points="947.975,-607.728 952.591,-597.781 948.033,-602.728 948.091,-597.728 948.091,-597.728 948.091,-597.728 948.033,-602.728 943.592,-597.676 947.975,-607.728 947.975,-607.728"/>
<text text-anchor="middle" x="972.5" y="-620.3" font-family="Times,serif" font-size="14.00">attendees</text>
</g>
<!-- Conference&#45;&gt;User -->
<g id="edge3" class="edge"><title>Conference&#45;&gt;User</title>
<path fill="none" stroke="#660f25" d="M847.698,-664.33C841.321,-654.028 835.824,-643.146 832,-632 829.281,-624.076 827.202,-615.96 825.684,-607.722"/>
<polygon fill="#660f25" stroke="#660f25" points="847.784,-664.462 849.475,-675.297 850.514,-668.651 853.245,-672.84 853.245,-672.84 853.245,-672.84 850.514,-668.651 857.015,-670.383 847.784,-664.462 847.784,-664.462"/>
<polygon fill="#660f25" stroke="#660f25" points="825.649,-607.496 828.553,-596.922 824.878,-602.556 824.107,-597.616 824.107,-597.616 824.107,-597.616 824.878,-602.556 819.66,-598.31 825.649,-607.496 825.649,-607.496"/>
<text text-anchor="middle" x="854" y="-620.3" font-family="Times,serif" font-size="14.00">partners</text>
</g>
<!-- Conference&#45;&gt;User -->
<g id="edge4" class="edge"><title>Conference&#45;&gt;User</title>
<path fill="none" stroke="#02ef78" d="M899.676,-662.951C897.873,-652.582 896.243,-642.056 895,-632 894.018,-624.057 893.105,-615.968 892.255,-607.793"/>
<polygon fill="#02ef78" stroke="#02ef78" points="899.681,-662.982 897.021,-673.62 900.566,-667.903 901.45,-672.824 901.45,-672.824 901.45,-672.824 900.566,-667.903 905.879,-672.028 899.681,-662.982 899.681,-662.982"/>
<polygon fill="#02ef78" stroke="#02ef78" points="892.249,-607.731 895.729,-597.332 891.75,-602.756 891.251,-597.781 891.251,-597.781 891.251,-597.781 891.75,-602.756 886.773,-598.23 892.249,-607.731 892.249,-607.731"/>
<text text-anchor="middle" x="918.5" y="-620.3" font-family="Times,serif" font-size="14.00">speakers</text>
</g>
<!-- Feedback -->
<g id="node8" class="node"><title>Feedback</title>
<path fill="none" stroke="black" d="M1100,-1C1100,-1 1320,-1 1320,-1 1326,-1 1332,-7 1332,-13 1332,-13 1332,-95 1332,-95 1332,-101 1326,-107 1320,-107 1320,-107 1100,-107 1100,-107 1094,-107 1088,-101 1088,-95 1088,-95 1088,-13 1088,-13 1088,-7 1094,-1 1100,-1"/>
<text text-anchor="middle" x="1210" y="-91.8" font-family="Times,serif" font-size="14.00">Feedback</text>
<polyline fill="none" stroke="black" points="1088,-84 1332,-84 "/>
<text text-anchor="start" x="1096" y="-68.8" font-family="Times,serif" font-size="14.00">id :integer</text>
<text text-anchor="start" x="1096" y="-53.8" font-family="Times,serif" font-size="14.00">feedback :text</text>
<text text-anchor="start" x="1096" y="-38.8" font-family="Times,serif" font-size="14.00">user_id :integer</text>
<text text-anchor="start" x="1096" y="-23.8" font-family="Times,serif" font-size="14.00">created_at :timestamp without time zone</text>
<text text-anchor="start" x="1096" y="-8.8" font-family="Times,serif" font-size="14.00">updated_at :timestamp without time zone</text>
</g>
<!-- User&#45;&gt;Feedback -->
<g id="edge5" class="edge"><title>User&#45;&gt;Feedback</title>
<path fill="none" stroke="#704bb5" d="M1043.42,-149.188C1044.61,-148.116 1045.8,-147.053 1047,-146 1060.75,-133.889 1076.37,-122.689 1092.38,-112.589"/>
<ellipse fill="none" stroke="#704bb5" cx="1040.46" cy="-151.919" rx="4.00002" ry="4.00002"/>
<polygon fill="#704bb5" stroke="#704bb5" points="1092.78,-112.339 1103.66,-110.923 1097.04,-109.715 1101.29,-107.092 1101.29,-107.092 1101.29,-107.092 1097.04,-109.715 1098.93,-103.261 1092.78,-112.339 1092.78,-112.339"/>
</g>
<!-- Speaker -->
<g id="node6" class="node"><title>Speaker</title>
<path fill="none" stroke="black" d="M509.5,-870.5C509.5,-870.5 798.5,-870.5 798.5,-870.5 804.5,-870.5 810.5,-876.5 810.5,-882.5 810.5,-882.5 810.5,-1309.5 810.5,-1309.5 810.5,-1315.5 804.5,-1321.5 798.5,-1321.5 798.5,-1321.5 509.5,-1321.5 509.5,-1321.5 503.5,-1321.5 497.5,-1315.5 497.5,-1309.5 497.5,-1309.5 497.5,-882.5 497.5,-882.5 497.5,-876.5 503.5,-870.5 509.5,-870.5"/>
<text text-anchor="middle" x="654" y="-1306.3" font-family="Times,serif" font-size="14.00">Speaker</text>
<polyline fill="none" stroke="black" points="497.5,-1298.5 810.5,-1298.5 "/>
<text text-anchor="start" x="505.5" y="-1283.3" font-family="Times,serif" font-size="14.00">id :integer</text>
<text text-anchor="start" x="505.5" y="-1268.3" font-family="Times,serif" font-size="14.00">first_name :character varying</text>
<text text-anchor="start" x="505.5" y="-1253.3" font-family="Times,serif" font-size="14.00">last_name :character varying</text>
<text text-anchor="start" x="505.5" y="-1238.3" font-family="Times,serif" font-size="14.00">username :character varying</text>
<text text-anchor="start" x="505.5" y="-1223.3" font-family="Times,serif" font-size="14.00">type :character varying</text>
<text text-anchor="start" x="505.5" y="-1208.3" font-family="Times,serif" font-size="14.00">company_name :character varying</text>
<text text-anchor="start" x="505.5" y="-1193.3" font-family="Times,serif" font-size="14.00">subscription :boolean</text>
<text text-anchor="start" x="505.5" y="-1178.3" font-family="Times,serif" font-size="14.00">about :text</text>
<text text-anchor="start" x="505.5" y="-1163.3" font-family="Times,serif" font-size="14.00">created_at :timestamp without time zone</text>
<text text-anchor="start" x="505.5" y="-1148.3" font-family="Times,serif" font-size="14.00">updated_at :timestamp without time zone</text>
<text text-anchor="start" x="505.5" y="-1133.3" font-family="Times,serif" font-size="14.00">email :character varying</text>
<text text-anchor="start" x="505.5" y="-1118.3" font-family="Times,serif" font-size="14.00">encrypted_password :character varying</text>
<text text-anchor="start" x="505.5" y="-1103.3" font-family="Times,serif" font-size="14.00">reset_password_token :character varying</text>
<text text-anchor="start" x="505.5" y="-1088.3" font-family="Times,serif" font-size="14.00">reset_password_sent_at :timestamp without time zone</text>
<text text-anchor="start" x="505.5" y="-1073.3" font-family="Times,serif" font-size="14.00">remember_created_at :timestamp without time zone</text>
<text text-anchor="start" x="505.5" y="-1058.3" font-family="Times,serif" font-size="14.00">sign_in_count :integer</text>
<text text-anchor="start" x="505.5" y="-1043.3" font-family="Times,serif" font-size="14.00">current_sign_in_at :timestamp without time zone</text>
<text text-anchor="start" x="505.5" y="-1028.3" font-family="Times,serif" font-size="14.00">last_sign_in_at :timestamp without time zone</text>
<text text-anchor="start" x="505.5" y="-1013.3" font-family="Times,serif" font-size="14.00">current_sign_in_ip :inet</text>
<text text-anchor="start" x="505.5" y="-998.3" font-family="Times,serif" font-size="14.00">last_sign_in_ip :inet</text>
<text text-anchor="start" x="505.5" y="-983.3" font-family="Times,serif" font-size="14.00">confirmation_token :character varying</text>
<text text-anchor="start" x="505.5" y="-968.3" font-family="Times,serif" font-size="14.00">confirmed_at :timestamp without time zone</text>
<text text-anchor="start" x="505.5" y="-953.3" font-family="Times,serif" font-size="14.00">confirmation_sent_at :timestamp without time zone</text>
<text text-anchor="start" x="505.5" y="-938.3" font-family="Times,serif" font-size="14.00">unconfirmed_email :character varying</text>
<text text-anchor="start" x="505.5" y="-923.3" font-family="Times,serif" font-size="14.00">failed_attempts :integer</text>
<text text-anchor="start" x="505.5" y="-908.3" font-family="Times,serif" font-size="14.00">unlock_token :character varying</text>
<text text-anchor="start" x="505.5" y="-893.3" font-family="Times,serif" font-size="14.00">locked_at :timestamp without time zone</text>
<text text-anchor="start" x="505.5" y="-878.3" font-family="Times,serif" font-size="14.00">partnership_plan_id :integer</text>
</g>
<!-- Speaker&#45;&gt;Conference -->
<g id="edge7" class="edge"><title>Speaker&#45;&gt;Conference</title>
<path fill="none" stroke="#1fb562" d="M816.633,-875.88C832.068,-855.084 846.88,-835.128 860.14,-817.262"/>
<polygon fill="#1fb562" stroke="#1fb562" points="816.527,-876.023 806.954,-881.371 813.547,-880.038 810.567,-884.053 810.567,-884.053 810.567,-884.053 813.547,-880.038 814.181,-886.735 816.527,-876.023 816.527,-876.023"/>
<polygon fill="#1fb562" stroke="#1fb562" points="860.159,-817.235 869.733,-811.888 863.139,-813.221 866.119,-809.206 866.119,-809.206 866.119,-809.206 863.139,-813.221 862.506,-806.524 860.159,-817.235 860.159,-817.235"/>
</g>
<!-- Speaker&#45;&gt;Feedback -->
<g id="edge6" class="edge"><title>Speaker&#45;&gt;Feedback</title>
<path fill="none" stroke="#e95623" d="M531.475,-862.661C528.252,-852.434 525.397,-842.189 523,-832 450.466,-523.692 472.46,-348.492 716,-146 769.822,-101.25 950.388,-76.84 1077.58,-64.8574"/>
<ellipse fill="none" stroke="#e95623" cx="532.776" cy="-866.672" rx="4.00001" ry="4.00001"/>
<polygon fill="#e95623" stroke="#e95623" points="1077.84,-64.8338 1088.21,-68.3919 1082.82,-64.3725 1087.8,-63.9111 1087.8,-63.9111 1087.8,-63.9111 1082.82,-64.3725 1087.38,-59.4303 1077.84,-64.8338 1077.84,-64.8338"/>
</g>
<!-- Speech -->
<g id="node13" class="node"><title>Speech</title>
<path fill="none" stroke="black" d="M544,-650.5C544,-650.5 764,-650.5 764,-650.5 770,-650.5 776,-656.5 776,-662.5 776,-662.5 776,-819.5 776,-819.5 776,-825.5 770,-831.5 764,-831.5 764,-831.5 544,-831.5 544,-831.5 538,-831.5 532,-825.5 532,-819.5 532,-819.5 532,-662.5 532,-662.5 532,-656.5 538,-650.5 544,-650.5"/>
<text text-anchor="middle" x="654" y="-816.3" font-family="Times,serif" font-size="14.00">Speech</text>
<polyline fill="none" stroke="black" points="532,-808.5 776,-808.5 "/>
<text text-anchor="start" x="540" y="-793.3" font-family="Times,serif" font-size="14.00">id :integer</text>
<text text-anchor="start" x="540" y="-778.3" font-family="Times,serif" font-size="14.00">name :character varying</text>
<text text-anchor="start" x="540" y="-763.3" font-family="Times,serif" font-size="14.00">description :text</text>
<text text-anchor="start" x="540" y="-748.3" font-family="Times,serif" font-size="14.00">speech_start :time without time zone</text>
<text text-anchor="start" x="540" y="-733.3" font-family="Times,serif" font-size="14.00">speech_finish :time without time zone</text>
<text text-anchor="start" x="540" y="-718.3" font-family="Times,serif" font-size="14.00">qa_start :time without time zone</text>
<text text-anchor="start" x="540" y="-703.3" font-family="Times,serif" font-size="14.00">qa_finish :time without time zone</text>
<text text-anchor="start" x="540" y="-688.3" font-family="Times,serif" font-size="14.00">user_id :integer</text>
<text text-anchor="start" x="540" y="-673.3" font-family="Times,serif" font-size="14.00">created_at :timestamp without time zone</text>
<text text-anchor="start" x="540" y="-658.3" font-family="Times,serif" font-size="14.00">updated_at :timestamp without time zone</text>
</g>
<!-- Speaker&#45;&gt;Speech -->
<g id="edge8" class="edge"><title>Speaker&#45;&gt;Speech</title>
<path fill="none" stroke="#a7ccc3" d="M654,-862.289C654,-855.343 654,-848.526 654,-841.889"/>
<ellipse fill="none" stroke="#a7ccc3" cx="654" cy="-866.44" rx="4" ry="4"/>
<polygon fill="#a7ccc3" stroke="#a7ccc3" points="654,-841.613 658.5,-831.613 654,-836.613 654,-831.613 654,-831.613 654,-831.613 654,-836.613 649.5,-831.613 654,-841.613 654,-841.613"/>
</g>
<!-- PartnershipPlan -->
<g id="node7" class="node"><title>PartnershipPlan</title>
<path fill="none" stroke="black" d="M1068,-688C1068,-688 1288,-688 1288,-688 1294,-688 1300,-694 1300,-700 1300,-700 1300,-782 1300,-782 1300,-788 1294,-794 1288,-794 1288,-794 1068,-794 1068,-794 1062,-794 1056,-788 1056,-782 1056,-782 1056,-700 1056,-700 1056,-694 1062,-688 1068,-688"/>
<text text-anchor="middle" x="1178" y="-778.8" font-family="Times,serif" font-size="14.00">PartnershipPlan</text>
<polyline fill="none" stroke="black" points="1056,-771 1300,-771 "/>
<text text-anchor="start" x="1064" y="-755.8" font-family="Times,serif" font-size="14.00">id :integer</text>
<text text-anchor="start" x="1064" y="-740.8" font-family="Times,serif" font-size="14.00">name :character varying</text>
<text text-anchor="start" x="1064" y="-725.8" font-family="Times,serif" font-size="14.00">description :text</text>
<text text-anchor="start" x="1064" y="-710.8" font-family="Times,serif" font-size="14.00">created_at :timestamp without time zone</text>
<text text-anchor="start" x="1064" y="-695.8" font-family="Times,serif" font-size="14.00">updated_at :timestamp without time zone</text>
</g>
<!-- PartnershipPerk -->
<g id="node11" class="node"><title>PartnershipPerk</title>
<path fill="none" stroke="black" d="M1068,-311.5C1068,-311.5 1288,-311.5 1288,-311.5 1294,-311.5 1300,-317.5 1300,-323.5 1300,-323.5 1300,-420.5 1300,-420.5 1300,-426.5 1294,-432.5 1288,-432.5 1288,-432.5 1068,-432.5 1068,-432.5 1062,-432.5 1056,-426.5 1056,-420.5 1056,-420.5 1056,-323.5 1056,-323.5 1056,-317.5 1062,-311.5 1068,-311.5"/>
<text text-anchor="middle" x="1178" y="-417.3" font-family="Times,serif" font-size="14.00">PartnershipPerk</text>
<polyline fill="none" stroke="black" points="1056,-409.5 1300,-409.5 "/>
<text text-anchor="start" x="1064" y="-394.3" font-family="Times,serif" font-size="14.00">id :integer</text>
<text text-anchor="start" x="1064" y="-379.3" font-family="Times,serif" font-size="14.00">name :character varying</text>
<text text-anchor="start" x="1064" y="-364.3" font-family="Times,serif" font-size="14.00">description :text</text>
<text text-anchor="start" x="1064" y="-349.3" font-family="Times,serif" font-size="14.00">partnership_plan_id :integer</text>
<text text-anchor="start" x="1064" y="-334.3" font-family="Times,serif" font-size="14.00">created_at :timestamp without time zone</text>
<text text-anchor="start" x="1064" y="-319.3" font-family="Times,serif" font-size="14.00">updated_at :timestamp without time zone</text>
</g>
<!-- PartnershipPlan&#45;&gt;PartnershipPerk -->
<g id="edge9" class="edge"><title>PartnershipPlan&#45;&gt;PartnershipPerk</title>
<path fill="none" stroke="#a81e1d" d="M1178,-679.69C1178,-614.692 1178,-511.376 1178,-442.883"/>
<ellipse fill="none" stroke="#a81e1d" cx="1178" cy="-683.808" rx="4" ry="4"/>
<polygon fill="#a81e1d" stroke="#a81e1d" points="1178,-442.62 1182.5,-432.62 1178,-437.62 1178,-432.62 1178,-432.62 1178,-432.62 1178,-437.62 1173.5,-432.62 1178,-442.62 1178,-442.62"/>
</g>
<!-- OrganisersContact -->
<g id="node9" class="node"><title>OrganisersContact</title>
<path fill="none" stroke="black" d="M244,-1050.5C244,-1050.5 464,-1050.5 464,-1050.5 470,-1050.5 476,-1056.5 476,-1062.5 476,-1062.5 476,-1129.5 476,-1129.5 476,-1135.5 470,-1141.5 464,-1141.5 464,-1141.5 244,-1141.5 244,-1141.5 238,-1141.5 232,-1135.5 232,-1129.5 232,-1129.5 232,-1062.5 232,-1062.5 232,-1056.5 238,-1050.5 244,-1050.5"/>
<text text-anchor="middle" x="354" y="-1126.3" font-family="Times,serif" font-size="14.00">OrganisersContact</text>
<polyline fill="none" stroke="black" points="232,-1118.5 476,-1118.5 "/>
<text text-anchor="start" x="240" y="-1103.3" font-family="Times,serif" font-size="14.00">id :integer</text>
<text text-anchor="start" x="240" y="-1088.3" font-family="Times,serif" font-size="14.00">name :character varying</text>
<text text-anchor="start" x="240" y="-1073.3" font-family="Times,serif" font-size="14.00">created_at :timestamp without time zone</text>
<text text-anchor="start" x="240" y="-1058.3" font-family="Times,serif" font-size="14.00">updated_at :timestamp without time zone</text>
</g>
<!-- OrganisersContact&#45;&gt;Contact -->
<g id="edge10" class="edge"><title>OrganisersContact&#45;&gt;Contact</title>
<path fill="none" stroke="#9f1195" d="M354,-1041.97C354,-978.287 354,-871.636 354,-804.149"/>
<ellipse fill="none" stroke="#9f1195" cx="354" cy="-1046.29" rx="4" ry="4"/>
<polygon fill="#9f1195" stroke="#9f1195" points="354,-804.076 358.5,-794.076 354,-799.076 354,-794.076 354,-794.076 354,-794.076 354,-799.076 349.5,-794.076 354,-804.076 354,-804.076"/>
</g>
<!-- Partner -->
<g id="node10" class="node"><title>Partner</title>
<path fill="none" stroke="black" d="M902.5,-870.5C902.5,-870.5 1191.5,-870.5 1191.5,-870.5 1197.5,-870.5 1203.5,-876.5 1203.5,-882.5 1203.5,-882.5 1203.5,-1309.5 1203.5,-1309.5 1203.5,-1315.5 1197.5,-1321.5 1191.5,-1321.5 1191.5,-1321.5 902.5,-1321.5 902.5,-1321.5 896.5,-1321.5 890.5,-1315.5 890.5,-1309.5 890.5,-1309.5 890.5,-882.5 890.5,-882.5 890.5,-876.5 896.5,-870.5 902.5,-870.5"/>
<text text-anchor="middle" x="1047" y="-1306.3" font-family="Times,serif" font-size="14.00">Partner</text>
<polyline fill="none" stroke="black" points="890.5,-1298.5 1203.5,-1298.5 "/>
<text text-anchor="start" x="898.5" y="-1283.3" font-family="Times,serif" font-size="14.00">id :integer</text>
<text text-anchor="start" x="898.5" y="-1268.3" font-family="Times,serif" font-size="14.00">first_name :character varying</text>
<text text-anchor="start" x="898.5" y="-1253.3" font-family="Times,serif" font-size="14.00">last_name :character varying</text>
<text text-anchor="start" x="898.5" y="-1238.3" font-family="Times,serif" font-size="14.00">username :character varying</text>
<text text-anchor="start" x="898.5" y="-1223.3" font-family="Times,serif" font-size="14.00">type :character varying</text>
<text text-anchor="start" x="898.5" y="-1208.3" font-family="Times,serif" font-size="14.00">company_name :character varying</text>
<text text-anchor="start" x="898.5" y="-1193.3" font-family="Times,serif" font-size="14.00">subscription :boolean</text>
<text text-anchor="start" x="898.5" y="-1178.3" font-family="Times,serif" font-size="14.00">about :text</text>
<text text-anchor="start" x="898.5" y="-1163.3" font-family="Times,serif" font-size="14.00">created_at :timestamp without time zone</text>
<text text-anchor="start" x="898.5" y="-1148.3" font-family="Times,serif" font-size="14.00">updated_at :timestamp without time zone</text>
<text text-anchor="start" x="898.5" y="-1133.3" font-family="Times,serif" font-size="14.00">email :character varying</text>
<text text-anchor="start" x="898.5" y="-1118.3" font-family="Times,serif" font-size="14.00">encrypted_password :character varying</text>
<text text-anchor="start" x="898.5" y="-1103.3" font-family="Times,serif" font-size="14.00">reset_password_token :character varying</text>
<text text-anchor="start" x="898.5" y="-1088.3" font-family="Times,serif" font-size="14.00">reset_password_sent_at :timestamp without time zone</text>
<text text-anchor="start" x="898.5" y="-1073.3" font-family="Times,serif" font-size="14.00">remember_created_at :timestamp without time zone</text>
<text text-anchor="start" x="898.5" y="-1058.3" font-family="Times,serif" font-size="14.00">sign_in_count :integer</text>
<text text-anchor="start" x="898.5" y="-1043.3" font-family="Times,serif" font-size="14.00">current_sign_in_at :timestamp without time zone</text>
<text text-anchor="start" x="898.5" y="-1028.3" font-family="Times,serif" font-size="14.00">last_sign_in_at :timestamp without time zone</text>
<text text-anchor="start" x="898.5" y="-1013.3" font-family="Times,serif" font-size="14.00">current_sign_in_ip :inet</text>
<text text-anchor="start" x="898.5" y="-998.3" font-family="Times,serif" font-size="14.00">last_sign_in_ip :inet</text>
<text text-anchor="start" x="898.5" y="-983.3" font-family="Times,serif" font-size="14.00">confirmation_token :character varying</text>
<text text-anchor="start" x="898.5" y="-968.3" font-family="Times,serif" font-size="14.00">confirmed_at :timestamp without time zone</text>
<text text-anchor="start" x="898.5" y="-953.3" font-family="Times,serif" font-size="14.00">confirmation_sent_at :timestamp without time zone</text>
<text text-anchor="start" x="898.5" y="-938.3" font-family="Times,serif" font-size="14.00">unconfirmed_email :character varying</text>
<text text-anchor="start" x="898.5" y="-923.3" font-family="Times,serif" font-size="14.00">failed_attempts :integer</text>
<text text-anchor="start" x="898.5" y="-908.3" font-family="Times,serif" font-size="14.00">unlock_token :character varying</text>
<text text-anchor="start" x="898.5" y="-893.3" font-family="Times,serif" font-size="14.00">locked_at :timestamp without time zone</text>
<text text-anchor="start" x="898.5" y="-878.3" font-family="Times,serif" font-size="14.00">partnership_plan_id :integer</text>
</g>
<!-- Partner&#45;&gt;Conference -->
<g id="edge12" class="edge"><title>Partner&#45;&gt;Conference</title>
<path fill="none" stroke="#90bf57" d="M960.147,-860.961C954.608,-846.034 949.297,-831.724 944.399,-818.526"/>
<polygon fill="#90bf57" stroke="#90bf57" points="960.185,-861.064 959.446,-872.005 961.925,-865.752 963.665,-870.44 963.665,-870.44 963.665,-870.44 961.925,-865.752 967.883,-868.874 960.185,-861.064 960.185,-861.064"/>
<polygon fill="#90bf57" stroke="#90bf57" points="944.388,-818.495 945.127,-807.555 942.648,-813.808 940.909,-809.12 940.909,-809.12 940.909,-809.12 942.648,-813.808 936.69,-810.686 944.388,-818.495 944.388,-818.495"/>
</g>
<!-- Partner&#45;&gt;PartnershipPlan -->
<g id="edge13" class="edge"><title>Partner&#45;&gt;PartnershipPlan</title>
<path fill="none" stroke="#cc2e22" d="M1133.15,-862.862C1141.4,-840.614 1149.17,-819.679 1155.85,-801.685"/>
<ellipse fill="none" stroke="#cc2e22" cx="1131.73" cy="-866.69" rx="4.00001" ry="4.00001"/>
<ellipse fill="#cc2e22" stroke="#cc2e22" cx="1157.25" cy="-797.908" rx="4.00001" ry="4.00001"/>
</g>
<!-- Partner&#45;&gt;Feedback -->
<g id="edge11" class="edge"><title>Partner&#45;&gt;Feedback</title>
<path fill="none" stroke="#e7aa21" d="M1210.03,-872.312C1211.02,-871.534 1212.01,-870.763 1213,-870 1249.36,-842.009 1283.21,-869.952 1309,-832 1351.85,-768.96 1339.64,-215.791 1309,-146 1304.04,-134.699 1296.9,-124.185 1288.71,-114.615"/>
<ellipse fill="none" stroke="#e7aa21" cx="1206.68" cy="-875.03" rx="4.00002" ry="4.00002"/>
<polygon fill="#e7aa21" stroke="#e7aa21" points="1288.65,-114.549 1285.26,-104.12 1285.28,-110.847 1281.92,-107.145 1281.92,-107.145 1281.92,-107.145 1285.28,-110.847 1278.59,-110.169 1288.65,-114.549 1288.65,-114.549"/>
</g>
<!-- Attendee -->
<g id="node12" class="node"><title>Attendee</title>
<path fill="none" stroke="black" d="M1233.5,-870.5C1233.5,-870.5 1522.5,-870.5 1522.5,-870.5 1528.5,-870.5 1534.5,-876.5 1534.5,-882.5 1534.5,-882.5 1534.5,-1309.5 1534.5,-1309.5 1534.5,-1315.5 1528.5,-1321.5 1522.5,-1321.5 1522.5,-1321.5 1233.5,-1321.5 1233.5,-1321.5 1227.5,-1321.5 1221.5,-1315.5 1221.5,-1309.5 1221.5,-1309.5 1221.5,-882.5 1221.5,-882.5 1221.5,-876.5 1227.5,-870.5 1233.5,-870.5"/>
<text text-anchor="middle" x="1378" y="-1306.3" font-family="Times,serif" font-size="14.00">Attendee</text>
<polyline fill="none" stroke="black" points="1221.5,-1298.5 1534.5,-1298.5 "/>
<text text-anchor="start" x="1229.5" y="-1283.3" font-family="Times,serif" font-size="14.00">id :integer</text>
<text text-anchor="start" x="1229.5" y="-1268.3" font-family="Times,serif" font-size="14.00">first_name :character varying</text>
<text text-anchor="start" x="1229.5" y="-1253.3" font-family="Times,serif" font-size="14.00">last_name :character varying</text>
<text text-anchor="start" x="1229.5" y="-1238.3" font-family="Times,serif" font-size="14.00">username :character varying</text>
<text text-anchor="start" x="1229.5" y="-1223.3" font-family="Times,serif" font-size="14.00">type :character varying</text>
<text text-anchor="start" x="1229.5" y="-1208.3" font-family="Times,serif" font-size="14.00">company_name :character varying</text>
<text text-anchor="start" x="1229.5" y="-1193.3" font-family="Times,serif" font-size="14.00">subscription :boolean</text>
<text text-anchor="start" x="1229.5" y="-1178.3" font-family="Times,serif" font-size="14.00">about :text</text>
<text text-anchor="start" x="1229.5" y="-1163.3" font-family="Times,serif" font-size="14.00">created_at :timestamp without time zone</text>
<text text-anchor="start" x="1229.5" y="-1148.3" font-family="Times,serif" font-size="14.00">updated_at :timestamp without time zone</text>
<text text-anchor="start" x="1229.5" y="-1133.3" font-family="Times,serif" font-size="14.00">email :character varying</text>
<text text-anchor="start" x="1229.5" y="-1118.3" font-family="Times,serif" font-size="14.00">encrypted_password :character varying</text>
<text text-anchor="start" x="1229.5" y="-1103.3" font-family="Times,serif" font-size="14.00">reset_password_token :character varying</text>
<text text-anchor="start" x="1229.5" y="-1088.3" font-family="Times,serif" font-size="14.00">reset_password_sent_at :timestamp without time zone</text>
<text text-anchor="start" x="1229.5" y="-1073.3" font-family="Times,serif" font-size="14.00">remember_created_at :timestamp without time zone</text>
<text text-anchor="start" x="1229.5" y="-1058.3" font-family="Times,serif" font-size="14.00">sign_in_count :integer</text>
<text text-anchor="start" x="1229.5" y="-1043.3" font-family="Times,serif" font-size="14.00">current_sign_in_at :timestamp without time zone</text>
<text text-anchor="start" x="1229.5" y="-1028.3" font-family="Times,serif" font-size="14.00">last_sign_in_at :timestamp without time zone</text>
<text text-anchor="start" x="1229.5" y="-1013.3" font-family="Times,serif" font-size="14.00">current_sign_in_ip :inet</text>
<text text-anchor="start" x="1229.5" y="-998.3" font-family="Times,serif" font-size="14.00">last_sign_in_ip :inet</text>
<text text-anchor="start" x="1229.5" y="-983.3" font-family="Times,serif" font-size="14.00">confirmation_token :character varying</text>
<text text-anchor="start" x="1229.5" y="-968.3" font-family="Times,serif" font-size="14.00">confirmed_at :timestamp without time zone</text>
<text text-anchor="start" x="1229.5" y="-953.3" font-family="Times,serif" font-size="14.00">confirmation_sent_at :timestamp without time zone</text>
<text text-anchor="start" x="1229.5" y="-938.3" font-family="Times,serif" font-size="14.00">unconfirmed_email :character varying</text>
<text text-anchor="start" x="1229.5" y="-923.3" font-family="Times,serif" font-size="14.00">failed_attempts :integer</text>
<text text-anchor="start" x="1229.5" y="-908.3" font-family="Times,serif" font-size="14.00">unlock_token :character varying</text>
<text text-anchor="start" x="1229.5" y="-893.3" font-family="Times,serif" font-size="14.00">locked_at :timestamp without time zone</text>
<text text-anchor="start" x="1229.5" y="-878.3" font-family="Times,serif" font-size="14.00">partnership_plan_id :integer</text>
</g>
<!-- Attendee&#45;&gt;Conference -->
<g id="edge15" class="edge"><title>Attendee&#45;&gt;Conference</title>
<path fill="none" stroke="#66e17a" d="M1212.88,-870.583C1212.59,-870.388 1212.29,-870.194 1212,-870 1149.09,-828.712 1115.89,-862.283 1047,-832 1035.64,-827.006 1024.23,-820.988 1013.13,-814.462"/>
<polygon fill="#66e17a" stroke="#66e17a" points="1213.1,-870.733 1218.76,-880.128 1217.21,-873.581 1221.32,-876.429 1221.32,-876.429 1221.32,-876.429 1217.21,-873.581 1223.88,-872.731 1213.1,-870.733 1213.1,-870.733"/>
<polygon fill="#66e17a" stroke="#66e17a" points="1012.87,-814.301 1006.64,-805.277 1008.59,-811.714 1004.31,-809.128 1004.31,-809.128 1004.31,-809.128 1008.59,-811.714 1001.98,-812.979 1012.87,-814.301 1012.87,-814.301"/>
</g>
<!-- Attendee&#45;&gt;Feedback -->
<g id="edge14" class="edge"><title>Attendee&#45;&gt;Feedback</title>
<path fill="none" stroke="#359ee2" d="M1418.08,-862.497C1441.28,-661.984 1447.12,-370.193 1336,-146 1330.13,-134.151 1321.89,-123.504 1312.4,-114.033"/>
<ellipse fill="none" stroke="#359ee2" cx="1417.61" cy="-866.511" rx="4.00001" ry="4.00001"/>
<polygon fill="#359ee2" stroke="#359ee2" points="1312.21,-113.859 1307.99,-103.736 1308.56,-110.439 1304.92,-107.019 1304.92,-107.019 1304.92,-107.019 1308.56,-110.439 1301.84,-110.302 1312.21,-113.859 1312.21,-113.859"/>
</g>
</g>
</svg>
